<svg width="36" height="36" viewBox="0 0 36 36" fill="none" xmlns="http://www.w3.org/2000/svg">
<path d="M8.78238 21.8925C8.14111 21.8192 7.4916 21.8986 6.88683 22.124C6.28205 22.3495 5.73914 22.7148 5.30238 23.19C4.20738 24.4725 3.86238 26.3325 2.99988 27.0375C2.92954 27.0937 2.87274 27.165 2.83371 27.2462C2.79468 27.3273 2.77441 27.4162 2.77441 27.5063C2.77441 27.5963 2.79468 27.6852 2.83371 27.7663C2.87274 27.8475 2.92954 27.9188 2.99988 27.975C5.24988 29.7375 7.71738 29.7525 9.42738 28.155C11.3324 26.385 12.5999 22.995 8.78238 21.8925Z" fill="#FF6196"/>
<path d="M27.2325 21.8925C27.8727 21.8192 28.5211 21.8986 29.1246 22.1241C29.7282 22.3496 30.2698 22.7149 30.705 23.19C31.8075 24.4725 32.145 26.3325 32.9925 27.0375C33.0629 27.0937 33.1197 27.165 33.1587 27.2462C33.1977 27.3273 33.218 27.4162 33.218 27.5063C33.218 27.5963 33.1977 27.6852 33.1587 27.7663C33.1197 27.8475 33.0629 27.9188 32.9925 27.975C30.7425 29.7375 28.275 29.7525 26.5575 28.155C24.675 26.385 23.4075 22.995 27.2325 21.8925Z" fill="#FF6196"/>
<path d="M2.99988 27.975C3.23636 28.1686 3.48706 28.3441 3.74988 28.5C4.163 27.4776 4.69679 26.5083 5.33988 25.6125C5.77664 25.1377 6.31977 24.7731 6.92471 24.5489C7.52965 24.3247 8.17914 24.2471 8.81988 24.3225C9.28502 24.4109 9.72611 24.5969 10.114 24.8684C10.5019 25.1399 10.8277 25.4907 11.0699 25.8975C11.6624 24.3225 11.3324 22.6425 8.81988 21.9225C8.17861 21.8492 7.5291 21.9286 6.92433 22.154C6.31955 22.3795 5.77664 22.7448 5.33988 23.22C4.20738 24.4725 3.86238 26.3325 2.99988 27.0375C2.92954 27.0937 2.87274 27.165 2.83371 27.2462C2.79468 27.3273 2.77441 27.4162 2.77441 27.5063C2.77441 27.5963 2.79468 27.6852 2.83371 27.7663C2.87274 27.8475 2.92954 27.9188 2.99988 27.975Z" fill="#FF87AF"/>
<path d="M27.2326 24.2925C27.8723 24.2171 28.5206 24.2947 29.1244 24.519C29.7281 24.7432 30.2699 25.1078 30.7051 25.5825C31.3497 26.4893 31.8859 27.4685 32.3026 28.5C32.5633 28.3517 32.8138 28.1864 33.0526 28.005C33.123 27.9488 33.1798 27.8775 33.2188 27.7963C33.2578 27.7152 33.2781 27.6263 33.2781 27.5363C33.2781 27.4462 33.2578 27.3573 33.2188 27.2762C33.1798 27.195 33.123 27.1237 33.0526 27.0675C32.2051 26.3625 31.8676 24.5025 30.7651 23.22C30.3299 22.7449 29.7883 22.3796 29.1848 22.1541C28.5812 21.9286 27.9328 21.8492 27.2926 21.9225C24.8101 22.6725 24.4726 24.3225 25.0426 25.8975C25.2759 25.4923 25.5912 25.1403 25.9683 24.8639C26.3454 24.5876 26.776 24.3929 27.2326 24.2925Z" fill="#FF87AF"/>
<path d="M8.78238 21.8925C8.14111 21.8192 7.4916 21.8986 6.88683 22.124C6.28205 22.3495 5.73914 22.7148 5.30238 23.19C4.20738 24.4725 3.86238 26.3325 2.99988 27.0375C2.92954 27.0937 2.87274 27.165 2.83371 27.2462C2.79468 27.3273 2.77441 27.4162 2.77441 27.5063C2.77441 27.5963 2.79468 27.6852 2.83371 27.7663C2.87274 27.8475 2.92954 27.9188 2.99988 27.975C5.24988 29.7375 7.71738 29.7525 9.42738 28.155C11.3324 26.385 12.5999 22.995 8.78238 21.8925Z" stroke="#45413C" stroke-width="0.5" stroke-linecap="round" stroke-linejoin="round"/>
<path d="M27.2325 21.8925C27.8727 21.8192 28.5211 21.8986 29.1246 22.1241C29.7282 22.3496 30.2698 22.7149 30.705 23.19C31.8075 24.4725 32.145 26.3325 32.9925 27.0375C33.0629 27.0937 33.1197 27.165 33.1587 27.2462C33.1977 27.3273 33.218 27.4162 33.218 27.5063C33.218 27.5963 33.1977 27.6852 33.1587 27.7663C33.1197 27.8475 33.0629 27.9188 32.9925 27.975C30.7425 29.7375 28.275 29.7525 26.5575 28.155C24.675 26.385 23.4075 22.995 27.2325 21.8925Z" stroke="#45413C" stroke-width="0.5" stroke-linecap="round" stroke-linejoin="round"/>
<path opacity="0.15" d="M6.94531 33.27C6.94531 33.4315 7.23126 33.5915 7.78682 33.7407C8.34239 33.8899 9.15669 34.0255 10.1832 34.1397C11.2098 34.254 12.4285 34.3446 13.7697 34.4064C15.111 34.4682 16.5485 34.5 18.0003 34.5C19.4521 34.5 20.8896 34.4682 22.2309 34.4064C23.5721 34.3446 24.7908 34.254 25.8174 34.1397C26.8439 34.0255 27.6582 33.8899 28.2138 33.7407C28.7694 33.5915 29.0553 33.4315 29.0553 33.27C29.0553 33.1085 28.7694 32.9485 28.2138 32.7993C27.6582 32.6501 26.8439 32.5145 25.8174 32.4003C24.7908 32.286 23.5721 32.1954 22.2309 32.1336C20.8896 32.0718 19.4521 32.04 18.0003 32.04C16.5485 32.04 15.111 32.0718 13.7697 32.1336C12.4285 32.1954 11.2098 32.286 10.1832 32.4003C9.15669 32.5145 8.34239 32.6501 7.78682 32.7993C7.23126 32.9485 6.94531 33.1085 6.94531 33.27Z" fill="#45413C"/>
<path d="M30.6522 17.52C30.6529 16.9301 30.441 16.3598 30.0553 15.9134C29.6696 15.4671 29.136 15.1748 28.5522 15.09C27.5322 9.75001 23.1972 5.71501 17.9997 5.71501C12.8022 5.71501 8.46723 9.75001 7.44723 15.09C6.85964 15.1702 6.32099 15.4605 5.93102 15.9073C5.54105 16.354 5.32617 16.927 5.32617 17.52C5.32617 18.113 5.54105 18.686 5.93102 19.1328C6.32099 19.5795 6.85964 19.8699 7.44723 19.95C8.46723 25.305 12.8022 29.325 17.9997 29.325C23.1972 29.325 27.5322 25.305 28.5522 19.95C29.136 19.8652 29.6696 19.5729 30.0553 19.1266C30.441 18.6803 30.6529 18.1099 30.6522 17.52Z" fill="#FFDA8F" stroke="#45413C" stroke-width="0.5" stroke-linecap="round" stroke-linejoin="round"/>
<path d="M14.6919 22.3575C14.6183 22.3564 14.5453 22.3713 14.478 22.401C14.4107 22.4308 14.3506 22.4748 14.3019 22.53C14.2537 22.5878 14.2182 22.655 14.1975 22.7273C14.1769 22.7997 14.1715 22.8755 14.1819 22.95C14.3323 23.8538 14.7985 24.675 15.4976 25.2673C16.1966 25.8596 17.0831 26.1847 17.9994 26.1847C18.9156 26.1847 19.8022 25.8596 20.5012 25.2673C21.2003 24.675 21.6665 23.8538 21.8169 22.95C21.8273 22.8755 21.8219 22.7997 21.8013 22.7273C21.7806 22.655 21.745 22.5878 21.6969 22.53C21.6482 22.4748 21.5881 22.4308 21.5208 22.401C21.4535 22.3713 21.3805 22.3564 21.3069 22.3575H14.6919Z" fill="#FF6242"/>
<path d="M17.9996 23.94C16.9467 23.9044 15.9121 24.2211 15.0596 24.84C15.4263 25.2589 15.8784 25.5946 16.3854 25.8246C16.8925 26.0546 17.4428 26.1736 17.9996 26.1736C18.5563 26.1736 19.1067 26.0546 19.6137 25.8246C20.1208 25.5946 20.5728 25.2589 20.9396 24.84C20.0876 24.2201 19.0526 23.9033 17.9996 23.94Z" fill="#FFA694"/>
<path d="M14.6919 22.3575C14.6183 22.3564 14.5453 22.3713 14.478 22.401C14.4107 22.4308 14.3506 22.4748 14.3019 22.53C14.2537 22.5878 14.2182 22.655 14.1975 22.7273C14.1769 22.7997 14.1715 22.8755 14.1819 22.95C14.3323 23.8538 14.7985 24.675 15.4976 25.2673C16.1966 25.8596 17.0831 26.1847 17.9994 26.1847C18.9156 26.1847 19.8022 25.8596 20.5012 25.2673C21.2003 24.675 21.6665 23.8538 21.8169 22.95C21.8273 22.8755 21.8219 22.7997 21.8013 22.7273C21.7806 22.655 21.745 22.5878 21.6969 22.53C21.6482 22.4748 21.5881 22.4308 21.5208 22.401C21.4535 22.3713 21.3805 22.3564 21.3069 22.3575H14.6919Z" stroke="#45413C" stroke-width="0.5" stroke-linecap="round" stroke-linejoin="round"/>
<path d="M9.91504 20.7075C9.91504 20.8925 10.0375 21.0699 10.2555 21.2007C10.4735 21.3315 10.7692 21.405 11.0775 21.405C11.3859 21.405 11.6815 21.3315 11.8996 21.2007C12.1176 21.0699 12.24 20.8925 12.24 20.7075C12.24 20.5225 12.1176 20.3451 11.8996 20.2143C11.6815 20.0835 11.3859 20.01 11.0775 20.01C10.7692 20.01 10.4735 20.0835 10.2555 20.2143C10.0375 20.3451 9.91504 20.5225 9.91504 20.7075Z" fill="#FFBE3D"/>
<path d="M23.7598 20.7075C23.7598 20.8925 23.8822 21.0699 24.1003 21.2007C24.3183 21.3315 24.614 21.405 24.9223 21.405C25.2306 21.405 25.5263 21.3315 25.7443 21.2007C25.9623 21.0699 26.0848 20.8925 26.0848 20.7075C26.0848 20.5225 25.9623 20.3451 25.7443 20.2143C25.5263 20.0835 25.2306 20.01 24.9223 20.01C24.614 20.01 24.3183 20.0835 24.1003 20.2143C23.8822 20.3451 23.7598 20.5225 23.7598 20.7075Z" fill="#FFBE3D"/>
<path d="M17.9996 2.36251C14.9755 2.36449 12.0758 3.56723 9.93814 5.70634C7.80044 7.84544 6.59961 10.7458 6.59961 13.77V15.39L7.44711 15.09H8.03211C10.0159 15.0904 11.968 14.5928 13.7095 13.6428C15.451 12.6927 16.9261 11.3207 17.9996 9.65251C19.0731 11.3207 20.5482 12.6927 22.2897 13.6428C24.0312 14.5928 25.9833 15.0904 27.9671 15.09H28.5521L29.4071 15.39V13.77C29.4081 12.2717 29.1137 10.7878 28.5408 9.40338C27.9678 8.01891 27.1276 6.76097 26.0681 5.70149C25.0086 4.642 23.7507 3.80177 22.3662 3.22884C20.9818 2.65591 19.4979 2.36152 17.9996 2.36251Z" fill="#FF6196"/>
<path d="M17.9996 2.36251C14.9755 2.36449 12.0758 3.56723 9.93814 5.70634C7.80044 7.84544 6.59961 10.7458 6.59961 13.77V15.39H6.66711C6.98013 12.6025 8.30921 10.028 10.4004 8.1585C12.4916 6.28898 15.1983 5.25549 18.0034 5.25549C20.8084 5.25549 23.5151 6.28898 25.6063 8.1585C27.6975 10.028 29.0266 12.6025 29.3396 15.39H29.4071V13.77C29.4081 12.2717 29.1137 10.7878 28.5408 9.40338C27.9678 8.01891 27.1276 6.76097 26.0681 5.70149C25.0086 4.642 23.7507 3.80177 22.3662 3.22884C20.9818 2.65591 19.4979 2.36152 17.9996 2.36251Z" fill="#FF87AF"/>
<path d="M17.9996 2.36251C14.9755 2.36449 12.0758 3.56723 9.93814 5.70634C7.80044 7.84544 6.59961 10.7458 6.59961 13.77V15.39L7.44711 15.09H8.03211C10.0159 15.0904 11.968 14.5928 13.7095 13.6428C15.451 12.6927 16.9261 11.3207 17.9996 9.65251C19.0731 11.3207 20.5482 12.6927 22.2897 13.6428C24.0312 14.5928 25.9833 15.0904 27.9671 15.09H28.5521L29.4071 15.39V13.77C29.4081 12.2717 29.1137 10.7878 28.5408 9.40338C27.9678 8.01891 27.1276 6.76097 26.0681 5.70149C25.0086 4.64201 23.7507 3.80177 22.3662 3.22884C20.9818 2.65591 19.4979 2.36152 17.9996 2.36251V2.36251Z" stroke="#45413C" stroke-width="0.5" stroke-linecap="round" stroke-linejoin="round"/>
<path d="M14.0625 16.875C13.9686 16.6543 13.8119 16.4661 13.6119 16.3338C13.4119 16.2015 13.1773 16.1309 12.9375 16.1309C12.6977 16.1309 12.4631 16.2015 12.2631 16.3338C12.0631 16.4661 11.9064 16.6543 11.8125 16.875" stroke="#45413C" stroke-width="0.5" stroke-linecap="round" stroke-linejoin="round"/>
<path d="M24.1875 16.875C24.0936 16.6543 23.9369 16.4661 23.7369 16.3338C23.5369 16.2015 23.3023 16.1309 23.0625 16.1309C22.8227 16.1309 22.5881 16.2015 22.3881 16.3338C22.1881 16.4661 22.0314 16.6543 21.9375 16.875" stroke="#45413C" stroke-width="0.5" stroke-linecap="round" stroke-linejoin="round"/>
</svg>
