<svg width="36" height="36" viewBox="0 0 36 36" fill="none" xmlns="http://www.w3.org/2000/svg">
<path opacity="0.15" d="M10.5 34.125C10.5 34.4234 11.2902 34.7095 12.6967 34.9205C14.1032 35.1315 16.0109 35.25 18 35.25C19.9891 35.25 21.8968 35.1315 23.3033 34.9205C24.7098 34.7095 25.5 34.4234 25.5 34.125C25.5 33.8266 24.7098 33.5405 23.3033 33.3295C21.8968 33.1185 19.9891 33 18 33C16.0109 33 14.1032 33.1185 12.6967 33.3295C11.2902 33.5405 10.5 33.8266 10.5 34.125Z" fill="#45413C"/>
<path d="M15.1729 16.8451C16.387 18.2671 17.0544 20.0753 17.0554 21.9451V33.5176C17.0573 33.6794 17.123 33.8339 17.2381 33.9476C17.3532 34.0613 17.5085 34.1251 17.6704 34.1251H18.3304C18.4922 34.1251 18.6475 34.0613 18.7626 33.9476C18.8777 33.8339 18.9434 33.6794 18.9454 33.5176V21.9451C18.9463 20.0753 19.6137 18.2671 20.8279 16.8451H15.1729Z" fill="#6DD627"/>
<path d="M16.8979 20.3851C17.6252 20.5351 18.3755 20.5351 19.1029 20.3851C19.3653 19.0769 19.9593 17.8579 20.8279 16.8451H15.1729C16.0414 17.8579 16.6354 19.0769 16.8979 20.3851Z" fill="#46B000"/>
<path d="M15.1729 16.8451C16.387 18.2671 17.0544 20.0753 17.0554 21.9451V33.5176C17.0573 33.6794 17.123 33.8339 17.2381 33.9476C17.3532 34.0613 17.5085 34.1251 17.6704 34.1251H18.3304C18.4922 34.1251 18.6475 34.0613 18.7626 33.9476C18.8777 33.8339 18.9434 33.6794 18.9454 33.5176V21.9451C18.9463 20.0753 19.6137 18.2671 20.8279 16.8451H15.1729Z" stroke="#45413C" stroke-width="0.5" stroke-linecap="round" stroke-linejoin="round"/>
<path d="M23.4898 9.62253C23.4898 14.31 21.0298 18.105 17.9998 18.105C14.9698 18.105 12.5098 14.31 12.5098 9.62253C12.5098 5.70003 16.3648 2.39253 17.6173 1.42503C17.7258 1.34466 17.8572 1.30127 17.9923 1.30127C18.1273 1.30127 18.2588 1.34466 18.3673 1.42503C19.6348 2.39253 23.4898 5.70003 23.4898 9.62253Z" fill="#FF87AF"/>
<path d="M17.6179 4.41003C17.7264 4.32966 17.8579 4.28627 17.9929 4.28627C18.1279 4.28627 18.2594 4.32966 18.3679 4.41003C19.5004 5.25003 22.7104 8.02503 23.3629 11.415C23.4477 10.8213 23.4903 10.2223 23.4904 9.62253C23.4904 5.70003 19.6354 2.39253 18.3829 1.42503C18.2744 1.34466 18.1429 1.30127 18.0079 1.30127C17.8729 1.30127 17.7414 1.34466 17.6329 1.42503C16.3804 2.39253 12.5254 5.70003 12.5254 9.62253C12.5255 10.2223 12.5681 10.8213 12.6529 11.415C13.2904 8.02503 16.5004 5.25003 17.6179 4.41003Z" fill="#FFB0CA"/>
<path d="M23.4898 9.62253C23.4898 14.31 21.0298 18.105 17.9998 18.105C14.9698 18.105 12.5098 14.31 12.5098 9.62253C12.5098 5.70003 16.3648 2.39253 17.6173 1.42503C17.7258 1.34466 17.8572 1.30127 17.9923 1.30127C18.1273 1.30127 18.2588 1.34466 18.3673 1.42503C19.6348 2.39253 23.4898 5.70003 23.4898 9.62253Z" stroke="#45413C" stroke-width="0.5" stroke-linecap="round" stroke-linejoin="round"/>
<path d="M18 18.1051C21.3075 18.1051 24 14.0851 24 9.10508C24.0039 7.761 23.7964 6.42467 23.385 5.14508C23.3334 4.99589 23.2278 4.87149 23.0889 4.79649C22.95 4.72149 22.788 4.70136 22.635 4.74008C20.0025 5.43758 18 9.13508 18 13.6126V18.1051Z" fill="#FF87AF"/>
<path d="M22.62 7.50008C22.773 7.46312 22.9342 7.48403 23.0726 7.5588C23.2111 7.63357 23.317 7.75691 23.37 7.90508C23.6429 8.74851 23.8264 9.61828 23.9175 10.5001C23.9625 10.0426 23.985 9.58508 23.985 9.10508C23.9889 7.761 23.7814 6.42467 23.37 5.14508C23.3185 4.99589 23.2128 4.87148 23.0739 4.79649C22.935 4.72149 22.773 4.70136 22.62 4.74008C20.0025 5.43758 18 9.13508 18 13.6126V16.3801C18 11.9101 20.0025 8.20508 22.62 7.50008Z" fill="#FFB0CA"/>
<path d="M18 18.1051C21.3075 18.1051 24 14.0851 24 9.10508C24.0039 7.761 23.7964 6.42467 23.385 5.14508C23.3335 4.99589 23.2278 4.87149 23.0889 4.79649C22.95 4.72149 22.788 4.70136 22.635 4.74008C20.0025 5.43758 18 9.13508 18 13.6126V18.1051Z" stroke="#45413C" stroke-width="0.5" stroke-linecap="round" stroke-linejoin="round"/>
<path d="M18.0001 18.1051C14.6926 18.1051 12.0001 14.0851 12.0001 9.10508C11.9962 7.761 12.2037 6.42467 12.6151 5.14508C12.6666 4.99589 12.7723 4.87149 12.9112 4.79649C13.0501 4.72149 13.212 4.70136 13.3651 4.74008C15.9976 5.43758 18.0001 9.13508 18.0001 13.6126V18.1051Z" fill="#FF87AF"/>
<path d="M13.3797 7.50008C13.2267 7.46312 13.0655 7.48403 12.9271 7.5588C12.7886 7.63357 12.6827 7.75691 12.6297 7.90508C12.3568 8.74851 12.1733 9.61828 12.0822 10.5001C12.0372 10.0426 12.0147 9.58508 12.0147 9.10508C12.0108 7.761 12.2183 6.42467 12.6297 5.14508C12.6813 4.99589 12.7869 4.87148 12.9258 4.79649C13.0647 4.72149 13.2267 4.70136 13.3797 4.74008C15.9972 5.43758 17.9997 9.13508 17.9997 13.6126V16.3801C17.9997 11.9101 15.9972 8.20508 13.3797 7.50008Z" fill="#FFB0CA"/>
<path d="M18.0001 18.1051C14.6926 18.1051 12.0001 14.0851 12.0001 9.10508C11.9962 7.761 12.2037 6.42467 12.6151 5.14508C12.6666 4.99589 12.7723 4.87149 12.9112 4.79649C13.0501 4.72149 13.212 4.70136 13.3651 4.74008C15.9976 5.43758 18.0001 9.13508 18.0001 13.6126V18.1051Z" stroke="#45413C" stroke-width="0.5" stroke-linecap="round" stroke-linejoin="round"/>
<path d="M18 13.6125V5.13" stroke="#45413C" stroke-width="0.5" stroke-linecap="round" stroke-linejoin="round"/>
<path d="M17.768 34.125C17.6752 34.1261 17.5832 34.1062 17.4992 34.0667C17.4151 34.0273 17.3411 33.9693 17.2826 33.8971C17.2242 33.825 17.1828 33.7405 17.1617 33.6501C17.1405 33.5596 17.1401 33.4656 17.1605 33.375C17.483 31.4625 18.6605 26.07 22.088 21.8325C25.2455 17.9325 30.158 16.005 32.453 15.2775C32.5675 15.2451 32.6889 15.2459 32.803 15.2797C32.9171 15.3135 33.0193 15.3789 33.0978 15.4683C33.1763 15.5578 33.2278 15.6677 33.2464 15.7852C33.265 15.9027 33.25 16.0231 33.203 16.1325C31.7791 19.3716 29.5731 22.2064 26.783 24.3825C22.028 27.9 19.1855 29.1 18.9605 33.5325C18.9547 33.6917 18.8873 33.8424 18.7726 33.9529C18.6579 34.0634 18.5048 34.1251 18.3455 34.125H17.768Z" fill="#6DD627"/>
<path d="M17.4826 34.0425C18.2666 30.422 19.8389 27.0188 22.0876 24.075C25.2451 20.1675 30.1576 18.24 32.4526 17.52C32.4875 17.5158 32.5228 17.5158 32.5576 17.52C32.8276 17.0175 33.0451 16.56 33.2176 16.1775C33.2658 16.0685 33.2817 15.948 33.2635 15.8302C33.2452 15.7125 33.1935 15.6024 33.1145 15.5132C33.0355 15.4239 32.9326 15.3592 32.8179 15.3268C32.7032 15.2943 32.5817 15.2954 32.4676 15.33C30.1726 16.08 25.2601 17.9775 22.1026 21.885C18.6526 26.0925 17.4826 31.5 17.1601 33.405C17.1396 33.5317 17.1598 33.6617 17.2178 33.7762C17.2757 33.8907 17.3684 33.984 17.4826 34.0425Z" fill="#9CEB60"/>
<path d="M17.768 34.125C17.6752 34.1261 17.5832 34.1062 17.4992 34.0667C17.4151 34.0273 17.3411 33.9693 17.2826 33.8971C17.2242 33.825 17.1828 33.7405 17.1617 33.6501C17.1405 33.5596 17.1401 33.4656 17.1605 33.375C17.483 31.4625 18.6605 26.07 22.088 21.8325C25.2455 17.9325 30.158 16.005 32.453 15.2775C32.5675 15.2451 32.6889 15.2459 32.803 15.2797C32.9171 15.3135 33.0193 15.3789 33.0978 15.4683C33.1763 15.5578 33.2278 15.6677 33.2464 15.7852C33.265 15.9027 33.25 16.0231 33.203 16.1325C31.7791 19.3716 29.5731 22.2064 26.783 24.3825C22.028 27.9 19.1855 29.1 18.9605 33.5325C18.9547 33.6917 18.8873 33.8424 18.7726 33.9529C18.6579 34.0634 18.5048 34.1251 18.3455 34.125H17.768Z" stroke="#45413C" stroke-width="0.5" stroke-linecap="round" stroke-linejoin="round"/>
<path d="M18.2326 34.1251C18.3254 34.1262 18.4173 34.1063 18.5014 34.0668C18.5855 34.0274 18.6595 33.9694 18.718 33.8972C18.7764 33.8251 18.8178 33.7406 18.8389 33.6502C18.8601 33.5597 18.8605 33.4657 18.8401 33.3751C18.5176 31.4626 17.3401 26.0701 13.9201 21.8326C10.7551 18.0001 5.84257 16.0426 3.55507 15.3151C3.44054 15.2827 3.3192 15.2835 3.20509 15.3173C3.09098 15.3511 2.98877 15.4165 2.9103 15.5059C2.83182 15.5954 2.78029 15.7053 2.76167 15.8228C2.74305 15.9403 2.75809 16.0607 2.80507 16.1701C4.229 19.4092 6.43501 22.244 9.22507 24.4201C13.9951 27.9301 16.8376 29.1301 17.0626 33.5626C17.0702 33.7211 17.1381 33.8708 17.2525 33.9809C17.3668 34.091 17.5188 34.1534 17.6776 34.1551L18.2326 34.1251Z" fill="#6DD627"/>
<path d="M3.63007 17.8576C5.95507 18.6076 10.7851 20.5276 13.9201 24.3901C16.0992 27.259 17.6341 30.5641 18.4201 34.0801C18.5516 34.0302 18.6621 33.9367 18.7331 33.8153C18.804 33.6938 18.8312 33.5517 18.8101 33.4126C18.4876 31.5001 17.3101 26.1076 13.8901 21.8701C10.7551 18.0001 5.84257 16.0426 3.55507 15.3151C3.44054 15.2827 3.3192 15.2835 3.20509 15.3173C3.09098 15.3511 2.98877 15.4165 2.9103 15.5059C2.83182 15.5954 2.78029 15.7053 2.76167 15.8228C2.74305 15.9403 2.75809 16.0607 2.80507 16.1701C3.00007 16.6351 3.27757 17.2501 3.63007 17.8576Z" fill="#9CEB60"/>
<path d="M18.2326 34.1251C18.3254 34.1262 18.4173 34.1063 18.5014 34.0668C18.5855 34.0274 18.6595 33.9694 18.718 33.8972C18.7764 33.8251 18.8178 33.7406 18.8389 33.6502C18.8601 33.5597 18.8605 33.4657 18.8401 33.3751C18.5176 31.4626 17.3401 26.0701 13.9201 21.8326C10.7551 18.0001 5.84257 16.0426 3.55507 15.3151C3.44054 15.2827 3.3192 15.2835 3.20509 15.3173C3.09098 15.3511 2.98877 15.4165 2.9103 15.5059C2.83182 15.5954 2.78029 15.7053 2.76167 15.8228C2.74305 15.9403 2.75809 16.0607 2.80507 16.1701C4.229 19.4092 6.43501 22.244 9.22507 24.4201C13.9951 27.9301 16.8376 29.1301 17.0626 33.5626C17.0702 33.7211 17.1381 33.8708 17.2525 33.9809C17.3668 34.0911 17.5188 34.1534 17.6776 34.1551L18.2326 34.1251Z" stroke="#45413C" stroke-width="0.5" stroke-linecap="round" stroke-linejoin="round"/>
</svg>
