<svg width="36" height="36" viewBox="0 0 36 36" fill="none" xmlns="http://www.w3.org/2000/svg">
<path d="M3 16.125C3 20.1032 4.58035 23.9186 7.3934 26.7316C10.2064 29.5446 14.0218 31.125 18 31.125C21.9782 31.125 25.7936 29.5446 28.6066 26.7316C31.4196 23.9186 33 20.1032 33 16.125C33 12.1468 31.4196 8.33144 28.6066 5.5184C25.7936 2.70535 21.9782 1.125 18 1.125C14.0218 1.125 10.2064 2.70535 7.3934 5.5184C4.58035 8.33144 3 12.1468 3 16.125Z" fill="#FFE500"/>
<path d="M18 1.125C15.0333 1.125 12.1332 2.00473 9.66645 3.65296C7.19972 5.30118 5.27713 7.64386 4.14181 10.3847C3.0065 13.1256 2.70945 16.1416 3.28823 19.0514C3.86701 21.9611 5.29562 24.6338 7.3934 26.7316C9.49119 28.8294 12.1639 30.258 15.0737 30.8368C17.9834 31.4156 20.9994 31.1185 23.7403 29.9832C26.4812 28.8479 28.8238 26.9253 30.472 24.4586C32.1203 21.9918 33 19.0917 33 16.125C33 12.1468 31.4197 8.33144 28.6066 5.5184C25.7936 2.70535 21.9783 1.125 18 1.125ZM18 28.875C15.2929 28.875 12.6465 28.0722 10.3956 26.5682C8.14474 25.0642 6.39038 22.9265 5.35441 20.4255C4.31843 17.9244 4.04737 15.1723 4.57551 12.5172C5.10364 9.86209 6.40725 7.42321 8.32148 5.50898C10.2357 3.59474 12.6746 2.29114 15.3297 1.763C17.9848 1.23487 20.7369 1.50592 23.238 2.5419C25.739 3.57787 27.8767 5.33223 29.3807 7.58313C30.8847 9.83403 31.6875 12.4804 31.6875 15.1875C31.6875 18.8176 30.2454 22.2991 27.6785 24.866C25.1116 27.4329 21.6302 28.875 18 28.875Z" fill="#EBCB00"/>
<path d="M13.5 4.125C13.5 4.42337 13.9741 4.70952 14.818 4.9205C15.6619 5.13147 16.8065 5.25 18 5.25C19.1935 5.25 20.3381 5.13147 21.182 4.9205C22.0259 4.70952 22.5 4.42337 22.5 4.125C22.5 3.82663 22.0259 3.54048 21.182 3.3295C20.3381 3.11853 19.1935 3 18 3C16.8065 3 15.6619 3.11853 14.818 3.3295C13.9741 3.54048 13.5 3.82663 13.5 4.125Z" fill="#FFF48C"/>
<path opacity="0.15" d="M6 34.125C6 34.4234 7.26428 34.7095 9.51472 34.9205C11.7652 35.1315 14.8174 35.25 18 35.25C21.1826 35.25 24.2348 35.1315 26.4853 34.9205C28.7357 34.7095 30 34.4234 30 34.125C30 33.8266 28.7357 33.5405 26.4853 33.3295C24.2348 33.1185 21.1826 33 18 33C14.8174 33 11.7652 33.1185 9.51472 33.3295C7.26428 33.5405 6 33.8266 6 34.125Z" fill="#45413C"/>
<path d="M3 16.125C3 20.1032 4.58035 23.9186 7.3934 26.7316C10.2064 29.5446 14.0218 31.125 18 31.125C21.9782 31.125 25.7936 29.5446 28.6066 26.7316C31.4196 23.9186 33 20.1032 33 16.125C33 12.1468 31.4196 8.33144 28.6066 5.5184C25.7936 2.70535 21.9782 1.125 18 1.125C14.0218 1.125 10.2064 2.70535 7.3934 5.5184C4.58035 8.33144 3 12.1468 3 16.125V16.125Z" stroke="#45413C" stroke-width="0.5" stroke-linecap="round" stroke-linejoin="round"/>
<path d="M28.875 19.875C28.875 20.4975 28.035 21 27 21C25.965 21 25.125 20.4975 25.125 19.875C25.125 19.2525 25.965 18.75 27 18.75C28.035 18.75 28.875 19.2525 28.875 19.875Z" fill="#FFAA54"/>
<path d="M7.125 19.875C7.125 20.4975 7.965 21 9 21C10.035 21 10.875 20.4975 10.875 19.875C10.875 19.2525 10.035 18.75 9 18.75C7.965 18.75 7.125 19.2525 7.125 19.875Z" fill="#FFAA54"/>
<path d="M11.7222 32.085C12.7897 33.1517 14.2369 33.7509 15.746 33.7509C17.255 33.7509 18.7023 33.1517 19.7697 32.085L24.3672 27.4875C24.6129 27.2399 24.7501 26.9048 24.7487 26.556C24.7473 26.2071 24.6074 25.8732 24.3597 25.6275C24.1121 25.3819 23.777 25.2446 23.4282 25.246C23.0794 25.2475 22.7454 25.3874 22.4997 25.635L24.0897 24.045C24.3364 23.7994 24.4753 23.4658 24.476 23.1177C24.4767 22.7695 24.3391 22.4354 24.0935 22.1888C23.8478 21.9421 23.5142 21.8031 23.1661 21.8024C22.818 21.8017 22.4839 21.9394 22.2372 22.185L22.7697 21.6525C23.0154 21.4059 23.153 21.0717 23.1523 20.7236C23.1516 20.3755 23.0126 20.0419 22.766 19.7963C22.5193 19.5506 22.1852 19.413 21.8371 19.4137C21.489 19.4144 21.1554 19.5534 20.9097 19.8L19.8522 20.8575C19.9867 20.7389 20.0955 20.5941 20.1718 20.4318C20.2481 20.2696 20.2904 20.0934 20.296 19.9142C20.3017 19.735 20.2705 19.5566 20.2045 19.3899C20.1385 19.2232 20.0391 19.0717 19.9123 18.945C19.7855 18.8182 19.6341 18.7187 19.4674 18.6527C19.3007 18.5867 19.1222 18.5556 18.943 18.5612C18.7638 18.5668 18.5876 18.6091 18.4254 18.6854C18.2632 18.7618 18.1183 18.8705 17.9997 19.005L13.6272 23.3775L13.2897 20.625C13.1788 20.4104 13.0068 20.2335 12.7955 20.1166C12.5841 19.9996 12.3429 19.9479 12.1022 19.968C11.8615 19.9881 11.6321 20.079 11.443 20.2293C11.2539 20.3796 11.1136 20.5825 11.0397 20.8125L9.92973 24.15C9.44836 25.5069 9.36126 26.9724 9.6785 28.3767C9.99574 29.7811 10.7043 31.0668 11.7222 32.085Z" fill="#FFE500"/>
<path d="M24.1352 25.4475L19.7702 29.805C19.2426 30.335 18.6156 30.7555 17.9251 31.0424C17.2346 31.3294 16.4942 31.4771 15.7464 31.4771C14.9987 31.4771 14.2583 31.3294 13.5677 31.0424C12.8772 30.7555 12.2502 30.335 11.7227 29.805C10.5739 28.6545 9.82246 27.1673 9.57767 25.56C9.39826 26.7396 9.49894 27.9449 9.87157 29.0785C10.2442 30.212 10.8783 31.2419 11.7227 32.085C12.7901 33.1517 14.2374 33.7509 15.7464 33.7509C17.2554 33.7509 18.7027 33.1517 19.7702 32.085L24.3677 27.4875C24.6127 27.2415 24.7503 26.9085 24.7503 26.5613C24.7503 26.2141 24.6127 25.881 24.3677 25.635C24.2974 25.5641 24.2194 25.5012 24.1352 25.4475Z" fill="#EBCB00"/>
<path d="M19.9876 20.73L16.8076 23.91" stroke="#45413C" stroke-width="0.5" stroke-linecap="round" stroke-linejoin="round"/>
<path d="M22.3805 22.05L18.668 25.7625" stroke="#45413C" stroke-width="0.5" stroke-linecap="round" stroke-linejoin="round"/>
<path d="M22.642 25.5L20.5195 27.6225" stroke="#45413C" stroke-width="0.5" stroke-linecap="round" stroke-linejoin="round"/>
<path d="M24.375 14.625C24.375 14.625 24.5025 13.125 25.875 13.125C27.2475 13.125 27.375 14.625 27.375 14.625" stroke="#45413C" stroke-width="0.5" stroke-linecap="round" stroke-linejoin="round"/>
<path d="M8.625 14.625C8.625 14.625 8.7525 13.125 10.125 13.125C11.4975 13.125 11.625 14.625 11.625 14.625" stroke="#45413C" stroke-width="0.5" stroke-linecap="round" stroke-linejoin="round"/>
<path d="M11.7222 32.085C12.7897 33.1517 14.2369 33.7509 15.746 33.7509C17.255 33.7509 18.7023 33.1517 19.7697 32.085L24.3672 27.4875C24.6129 27.2399 24.7501 26.9048 24.7487 26.556C24.7473 26.2071 24.6074 25.8732 24.3597 25.6275C24.1121 25.3819 23.777 25.2446 23.4282 25.246C23.0794 25.2475 22.7454 25.3874 22.4997 25.635L24.0897 24.045C24.3364 23.7994 24.4753 23.4658 24.476 23.1177C24.4767 22.7695 24.3391 22.4354 24.0935 22.1888C23.8478 21.9421 23.5142 21.8031 23.1661 21.8024C22.818 21.8017 22.4839 21.9394 22.2372 22.185L22.7697 21.6525C23.0154 21.4059 23.153 21.0717 23.1523 20.7236C23.1516 20.3755 23.0126 20.0419 22.766 19.7963C22.5193 19.5506 22.1852 19.413 21.8371 19.4137C21.489 19.4144 21.1554 19.5534 20.9097 19.8L19.8522 20.8575C19.9867 20.7389 20.0955 20.5941 20.1718 20.4318C20.2481 20.2696 20.2904 20.0934 20.296 19.9142C20.3017 19.735 20.2705 19.5566 20.2045 19.3899C20.1385 19.2232 20.0391 19.0717 19.9123 18.945C19.7855 18.8182 19.6341 18.7187 19.4674 18.6527C19.3007 18.5867 19.1222 18.5556 18.943 18.5612C18.7638 18.5668 18.5876 18.6091 18.4254 18.6854C18.2632 18.7618 18.1183 18.8705 17.9997 19.005L13.6272 23.3775L13.2897 20.625C13.1788 20.4104 13.0068 20.2335 12.7955 20.1166C12.5841 19.9996 12.3429 19.9479 12.1022 19.968C11.8615 19.9881 11.6321 20.079 11.443 20.2293C11.2539 20.3796 11.1136 20.5825 11.0397 20.8125L9.92973 24.15C9.44836 25.5069 9.36126 26.9724 9.6785 28.3767C9.99574 29.7811 10.7043 31.0668 11.7222 32.085V32.085Z" stroke="#45413C" stroke-width="0.5" stroke-linecap="round" stroke-linejoin="round"/>
</svg>
