<svg width="28" height="36" viewBox="0 0 28 36" fill="none" xmlns="http://www.w3.org/2000/svg">
<path opacity="0.15" d="M2.375 33.735C2.375 34.1368 3.59977 34.5222 5.77988 34.8063C7.95999 35.0904 10.9169 35.25 14 35.25C17.0831 35.25 20.04 35.0904 22.2201 34.8063C24.4002 34.5222 25.625 34.1368 25.625 33.735C25.625 33.3332 24.4002 32.9479 22.2201 32.6637C20.04 32.3796 17.0831 32.22 14 32.22C10.9169 32.22 7.95999 32.3796 5.77988 32.6637C3.59977 32.9479 2.375 33.3332 2.375 33.735Z" fill="#45413C"/>
<path d="M27.1255 25.77C23.4805 21.2175 19.213 18.8025 18.1255 13.9125H9.87545C8.78796 18.8025 4.52046 21.2175 0.875455 25.77C0.532685 26.2523 0.346758 26.8284 0.342955 27.42C0.337419 27.9009 0.458305 28.3747 0.693508 28.7942C0.928711 29.2136 1.26998 29.5639 1.68314 29.81C2.0963 30.0561 2.56686 30.1893 3.0477 30.1963C3.52854 30.2033 4.00279 30.0839 4.42296 29.85C4.56609 30.6878 5.00047 31.4482 5.64949 31.9971C6.2985 32.5459 7.12048 32.848 7.97046 32.85C8.45454 32.8505 8.93364 32.7523 9.37851 32.5615C9.82339 32.3706 10.2247 32.0911 10.558 31.74C10.8483 32.412 11.3289 32.9844 11.9406 33.3865C12.5524 33.7886 13.2684 34.0028 14.0005 34.0028C14.7325 34.0028 15.4485 33.7886 16.0603 33.3865C16.672 32.9844 17.1526 32.412 17.443 31.74C17.7721 32.0888 18.1683 32.3676 18.6077 32.5596C19.0472 32.7517 19.5209 32.853 20.0005 32.8575C20.8504 32.8555 21.6724 32.5534 22.3214 32.0046C22.9704 31.4557 23.4048 30.6953 23.548 29.8575C23.9681 30.0914 24.4424 30.2108 24.9232 30.2038C25.4041 30.1968 25.8746 30.0636 26.2878 29.8175C26.7009 29.5714 27.0422 29.2211 27.2774 28.8017C27.5126 28.3822 27.6335 27.9084 27.628 27.4275C27.636 26.8363 27.4604 26.2572 27.1255 25.77Z" fill="#1A3079"/>
<path d="M9.875 11.2875H18.125V13.9125H9.875V11.2875Z" fill="#FFB0CA" stroke="#45413C" stroke-width="0.5" stroke-linecap="round" stroke-linejoin="round"/>
<path d="M19.1229 7.215C19.7086 5.8569 19.8656 4.35228 19.5729 2.9025L19.3329 1.5975C19.3099 1.46506 19.2408 1.34501 19.1379 1.25855C19.0349 1.17209 18.9048 1.12479 18.7704 1.125H17.0979V2.145C17.0979 2.96651 16.7715 3.75437 16.1906 4.33526C15.6097 4.91616 14.8219 5.2425 14.0004 5.2425C13.1788 5.2425 12.391 4.91616 11.8101 4.33526C11.2292 3.75437 10.9029 2.96651 10.9029 2.145V1.125H9.23035C9.09593 1.12479 8.96576 1.17209 8.86283 1.25855C8.7599 1.34501 8.69084 1.46506 8.66785 1.5975L8.42785 2.9025C8.13507 4.35228 8.29207 5.8569 8.87785 7.215C9.41674 8.51347 9.75316 9.88696 9.87535 11.2875H18.1254C18.2475 9.88696 18.584 8.51347 19.1229 7.215Z" fill="#1A3079"/>
<path d="M8.36801 5.49C8.41301 5.19 8.608 4.11 8.668 3.81C8.691 3.67756 8.76006 3.55751 8.86298 3.47105C8.96591 3.38459 9.09608 3.33729 9.2305 3.3375H9.88301C10.0176 3.3375 10.1508 3.36413 10.2751 3.41585C10.3993 3.46758 10.5121 3.54339 10.6069 3.6389C10.7017 3.73441 10.7767 3.84774 10.8275 3.97236C10.8783 4.09698 10.904 4.23042 10.903 4.365C10.903 5.18651 11.2293 5.97437 11.8102 6.55526C12.3911 7.13616 13.179 7.4625 14.0005 7.4625C14.822 7.4625 15.6099 7.13616 16.1908 6.55526C16.7717 5.97437 17.098 5.18651 17.098 4.365C17.097 4.23042 17.1227 4.09698 17.1735 3.97236C17.2243 3.84774 17.2993 3.73441 17.3941 3.6389C17.4889 3.54339 17.6017 3.46758 17.7259 3.41585C17.8502 3.36413 17.9834 3.3375 18.118 3.3375H18.7705C18.9049 3.33729 19.0351 3.38459 19.138 3.47105C19.241 3.55751 19.31 3.67756 19.333 3.81C19.393 4.11 19.588 5.19 19.633 5.49C19.7556 4.63008 19.7353 3.75582 19.573 2.9025L19.333 1.5975C19.31 1.46506 19.241 1.34501 19.138 1.25855C19.0351 1.17209 18.9049 1.12479 18.7705 1.125H17.098V2.145C17.098 2.96651 16.7717 3.75437 16.1908 4.33526C15.6099 4.91616 14.822 5.2425 14.0005 5.2425C13.179 5.2425 12.3911 4.91616 11.8102 4.33526C11.2293 3.75437 10.903 2.96651 10.903 2.145V1.125H9.2305C9.09608 1.12479 8.96591 1.17209 8.86298 1.25855C8.76006 1.34501 8.691 1.46506 8.668 1.5975L8.42801 2.9025C8.26571 3.75582 8.24544 4.63008 8.36801 5.49Z" fill="#4484D1"/>
<path d="M19.1229 7.215C19.7086 5.8569 19.8656 4.35228 19.5729 2.9025L19.3329 1.5975C19.3099 1.46506 19.2408 1.34501 19.1379 1.25855C19.0349 1.17209 18.9048 1.12479 18.7704 1.125H17.0979V2.145C17.0979 2.96651 16.7715 3.75437 16.1906 4.33526C15.6097 4.91616 14.8219 5.2425 14.0004 5.2425C13.1788 5.2425 12.391 4.91616 11.8101 4.33526C11.2292 3.75437 10.9029 2.96651 10.9029 2.145V1.125H9.23035C9.09593 1.12479 8.96576 1.17209 8.86283 1.25855C8.7599 1.34501 8.69084 1.46506 8.66785 1.5975L8.42785 2.9025C8.13507 4.35228 8.29207 5.8569 8.87785 7.215C9.41674 8.51347 9.75316 9.88696 9.87535 11.2875H18.1254C18.2475 9.88696 18.584 8.51347 19.1229 7.215V7.215Z" stroke="#45413C" stroke-width="0.5" stroke-linecap="round" stroke-linejoin="round"/>
<path d="M20.2182 18.255C19.2108 16.9784 18.4965 15.4959 18.1257 13.9125H9.8757C9.50495 15.4959 8.79059 16.9784 7.7832 18.255C11.8302 19.5299 16.1712 19.5299 20.2182 18.255Z" fill="#4964BF"/>
<path d="M27.1255 25.77C23.4805 21.2175 19.213 18.8025 18.1255 13.9125H9.87546C8.78796 18.8025 4.52046 21.2175 0.875455 25.77C0.532685 26.2523 0.346758 26.8284 0.342955 27.42C0.337419 27.9009 0.458305 28.3747 0.693508 28.7942C0.928711 29.2136 1.26998 29.5639 1.68314 29.81C2.0963 30.0561 2.56686 30.1893 3.0477 30.1963C3.52854 30.2033 4.00279 30.0839 4.42296 29.85C4.56609 30.6878 5.00047 31.4482 5.64948 31.9971C6.2985 32.5459 7.12048 32.848 7.97046 32.85C8.45454 32.8505 8.93364 32.7523 9.37851 32.5615C9.82339 32.3706 10.2247 32.0911 10.558 31.74C10.8483 32.412 11.3289 32.9844 11.9407 33.3865C12.5524 33.7886 13.2684 34.0028 14.0005 34.0028C14.7325 34.0028 15.4485 33.7886 16.0603 33.3865C16.672 32.9844 17.1526 32.412 17.443 31.74C17.7721 32.0888 18.1683 32.3676 18.6077 32.5596C19.0472 32.7517 19.5209 32.853 20.0005 32.8575C20.8504 32.8555 21.6724 32.5534 22.3214 32.0046C22.9704 31.4557 23.4048 30.6953 23.548 29.8575C23.9681 30.0914 24.4424 30.2108 24.9232 30.2038C25.4041 30.1968 25.8746 30.0636 26.2878 29.8175C26.7009 29.5714 27.0422 29.2211 27.2774 28.8017C27.5126 28.3822 27.6335 27.9084 27.628 27.4275C27.636 26.8363 27.4604 26.2572 27.1255 25.77V25.77Z" stroke="#45413C" stroke-width="0.5" stroke-linecap="round" stroke-linejoin="round"/>
<path d="M5.11328 28.3125C5.66727 26.6229 6.66444 25.1129 8.00078 23.94" stroke="#45413C" stroke-width="0.5" stroke-linecap="round" stroke-linejoin="round"/>
<path d="M22.8883 28.3275C22.417 26.6187 21.4516 25.0872 20.1133 23.925" stroke="#45413C" stroke-width="0.5" stroke-linecap="round" stroke-linejoin="round"/>
<path d="M10.6553 30.3C10.6831 28.7958 10.9359 27.3043 11.4053 25.875" stroke="#45413C" stroke-width="0.5" stroke-linecap="round" stroke-linejoin="round"/>
<path d="M17.5625 30.3C17.6382 28.8033 17.4478 27.3051 17 25.875" stroke="#45413C" stroke-width="0.5" stroke-linecap="round" stroke-linejoin="round"/>
</svg>
