<svg width="32" height="32" viewBox="0 0 32 32" fill="none" xmlns="http://www.w3.org/2000/svg">
<mask id="mask0_1105_8101" style="mask-type:alpha" maskUnits="userSpaceOnUse" x="0" y="0" width="32" height="32">
<rect width="32" height="32" fill="#D9D9D9"/>
</mask>
<g mask="url(#mask0_1105_8101)">
<path d="M15.9997 29.3334C15.407 29.3334 14.8811 29.1908 14.422 28.9057C13.9627 28.6204 13.6441 28.2296 13.4663 27.7334H13.1553C12.5553 27.7334 12.0349 27.513 11.594 27.0724C11.1533 26.6315 10.933 26.111 10.933 25.511V20.7557C9.51812 19.8297 8.39779 18.6334 7.57201 17.1667C6.74601 15.7 6.33301 14.0889 6.33301 12.3334C6.33301 9.64447 7.2719 7.36113 9.14967 5.48335C11.0275 3.60558 13.3108 2.66669 15.9997 2.66669C18.6886 2.66669 20.9719 3.60558 22.8497 5.48335C24.7275 7.36113 25.6663 9.64447 25.6663 12.3334C25.6663 14.1038 25.2533 15.7186 24.4273 17.1777C23.6016 18.637 22.4812 19.8297 21.0663 20.7557V25.511C21.0663 26.111 20.846 26.6315 20.4053 27.0724C19.9645 27.513 19.444 27.7334 18.844 27.7334H18.533C18.3552 28.2296 18.0367 28.6204 17.5773 28.9057C17.1182 29.1908 16.5923 29.3334 15.9997 29.3334ZM13.1553 25.511H18.844V24.1334H13.1553V25.511ZM13.1553 22.8H18.844V21.489H13.1553V22.8ZM12.8663 19.2667H15.1553V15.0224L12.133 12L13.2887 10.8444L15.9997 13.5557L18.7107 10.8444L19.8663 12L16.844 15.0224V19.2667H19.133C20.4219 18.6594 21.4627 17.7316 22.2553 16.4834C23.0478 15.2351 23.444 13.8518 23.444 12.3334C23.444 10.2445 22.7256 8.48147 21.2887 7.04435C19.8516 5.60747 18.0886 4.88902 15.9997 4.88902C13.9108 4.88902 12.1478 5.60747 10.7107 7.04435C9.27379 8.48147 8.55534 10.2445 8.55534 12.3334C8.55534 13.8518 8.95156 15.2351 9.74401 16.4834C10.5367 17.7316 11.5775 18.6594 12.8663 19.2667Z" fill="#6D3091"/>
</g>
</svg>
