<svg width="36" height="36" viewBox="0 0 36 36" fill="none" xmlns="http://www.w3.org/2000/svg">
<path opacity="0.15" d="M8.49023 34.0124C8.49023 34.1749 8.73622 34.3358 9.21414 34.486C9.69206 34.6361 10.3926 34.7725 11.2756 34.8874C12.1587 35.0024 13.2071 35.0935 14.3609 35.1557C15.5147 35.2179 16.7514 35.2499 18.0002 35.2499C19.2491 35.2499 20.4857 35.2179 21.6396 35.1557C22.7934 35.0935 23.8417 35.0024 24.7248 34.8874C25.6079 34.7725 26.3084 34.6361 26.7863 34.486C27.2643 34.3358 27.5102 34.1749 27.5102 34.0124C27.5102 33.8499 27.2643 33.689 26.7863 33.5388C26.3084 33.3887 25.6079 33.2523 24.7248 33.1374C23.8417 33.0224 22.7934 32.9313 21.6396 32.8691C20.4857 32.8069 19.2491 32.7749 18.0002 32.7749C16.7514 32.7749 15.5147 32.8069 14.3609 32.8691C13.2071 32.9313 12.1587 33.0224 11.2756 33.1374C10.3926 33.2523 9.69206 33.3887 9.21414 33.5388C8.73622 33.689 8.49023 33.8499 8.49023 34.0124Z" fill="#45413C"/>
<path d="M3.9375 18C3.9375 21.7296 5.41908 25.3065 8.05631 27.9437C10.6935 30.5809 14.2704 32.0625 18 32.0625C21.7296 32.0625 25.3065 30.5809 27.9437 27.9437C30.5809 25.3065 32.0625 21.7296 32.0625 18C32.0625 14.2704 30.5809 10.6935 27.9437 8.05631C25.3065 5.41908 21.7296 3.9375 18 3.9375C14.2704 3.9375 10.6935 5.41908 8.05631 8.05631C5.41908 10.6935 3.9375 14.2704 3.9375 18Z" fill="#656769"/>
<path d="M17.9997 3.9375C17.3623 3.94337 16.7259 3.99097 16.0947 4.08C21.3447 5.01 25.3647 10.8825 25.3647 18C25.3647 25.1175 21.3297 30.99 16.0947 31.92C16.7259 32.009 17.3623 32.0566 17.9997 32.0625C21.7293 32.0625 25.3062 30.5809 27.9434 27.9437C30.5806 25.3065 32.0622 21.7296 32.0622 18C32.0622 14.2704 30.5806 10.6935 27.9434 8.05631C25.3062 5.41908 21.7293 3.9375 17.9997 3.9375Z" fill="#FFE500"/>
<path d="M18 7.245C21.443 7.24529 24.7661 8.50935 27.3389 10.7973C29.9117 13.0853 31.5551 16.2381 31.9575 19.6575C32.0265 19.1077 32.0616 18.5541 32.0625 18C32.0625 14.2704 30.5809 10.6935 27.9437 8.05631C25.3065 5.41908 21.7296 3.9375 18 3.9375C14.2704 3.9375 10.6935 5.41908 8.05631 8.05631C5.41908 10.6935 3.9375 14.2704 3.9375 18C3.94212 18.554 3.97717 19.1073 4.0425 19.6575C4.44486 16.2381 6.08832 13.0853 8.66111 10.7973C11.2339 8.50935 14.557 7.24529 18 7.245Z" fill="#87898C"/>
<path d="M18 3.9375C17.625 3.9375 17.25 3.9375 16.8975 3.99C16.545 4.0425 16.365 4.0425 16.1025 4.08C18.4796 4.55915 20.5983 5.89339 22.0575 7.83C24.679 8.62287 27.0122 10.1636 28.7707 12.2632C30.5293 14.3628 31.6368 16.9301 31.9575 19.65C31.9575 19.485 31.9575 19.3125 32.0025 19.1475C32.0025 18.765 32.0625 18.3975 32.0625 18C32.0635 16.153 31.7005 14.3239 30.9941 12.6174C30.2877 10.9108 29.2519 9.36013 27.9459 8.05411C26.6399 6.74809 25.0893 5.7123 23.3827 5.00594C21.6761 4.29958 19.847 3.93652 18 3.9375Z" fill="#FFF48C"/>
<path d="M3.9375 18C3.9375 21.7296 5.41908 25.3065 8.05631 27.9437C10.6935 30.5809 14.2704 32.0625 18 32.0625C21.7296 32.0625 25.3065 30.5809 27.9437 27.9437C30.5809 25.3065 32.0625 21.7296 32.0625 18C32.0625 14.2704 30.5809 10.6935 27.9437 8.05631C25.3065 5.41908 21.7296 3.9375 18 3.9375C14.2704 3.9375 10.6935 5.41908 8.05631 8.05631C5.41908 10.6935 3.9375 14.2704 3.9375 18V18Z" stroke="#45413C" stroke-width="0.5" stroke-linecap="round" stroke-linejoin="round"/>
<path d="M28.402 14.0549C27.4795 14.7299 25.9645 14.2274 25.027 12.9374C24.0895 11.6474 24.067 10.0574 25.027 9.38239C25.987 8.70739 27.457 9.20989 28.402 10.4999C29.347 11.7899 29.3245 13.3799 28.402 14.0549Z" fill="#FFF48C"/>
<path d="M24.9902 11.1151C25.9127 10.4401 27.4202 10.9426 28.3652 12.2326C28.6198 12.5767 28.8126 12.9625 28.9352 13.3726C29.078 12.8869 29.1007 12.3738 29.0014 11.8774C28.9021 11.3809 28.6838 10.916 28.3652 10.5226C27.4202 9.23259 25.9127 8.73009 24.9902 9.40509C24.6602 9.70152 24.4314 10.0939 24.3359 10.527C24.2404 10.9602 24.283 11.4124 24.4577 11.8201C24.5604 11.537 24.746 11.2913 24.9902 11.1151Z" fill="#EBCB00"/>
<path d="M28.402 14.0851C27.4795 14.7526 25.9645 14.2576 25.027 12.9601C24.0895 11.6626 24.067 10.0801 25.027 9.40509C25.987 8.73009 27.457 9.23259 28.402 10.5226C29.347 11.8126 29.3245 13.4101 28.402 14.0851Z" stroke="#45413C" stroke-width="0.5" stroke-linecap="round" stroke-linejoin="round"/>
<path d="M7.07214 15.6676C7.71714 15.9151 8.57214 15.3301 8.90214 14.3701C9.23214 13.4101 9.04464 12.4351 8.39964 12.1876C7.75464 11.9401 6.94464 12.5251 6.57714 13.5001C6.20964 14.4751 6.43464 15.4201 7.07214 15.6676Z" fill="#87898C"/>
<path d="M6.57778 14.7226C6.94528 13.7626 7.76278 13.1851 8.40028 13.4251C8.5417 13.4872 8.66756 13.58 8.76873 13.6967C8.8699 13.8135 8.94387 13.9512 8.98528 14.1001C9.21778 13.2376 8.98528 12.4126 8.40028 12.1876C7.81528 11.9626 6.94528 12.5251 6.57778 13.5001C6.38726 13.9776 6.35828 14.5045 6.49528 15.0001C6.52528 14.9026 6.54778 14.8126 6.57778 14.7226Z" fill="#525252"/>
<path d="M7.07214 15.6676C7.71714 15.9151 8.57214 15.3301 8.90214 14.3701C9.23214 13.4101 9.04464 12.4351 8.39964 12.1876C7.75464 11.9401 6.94464 12.5251 6.57714 13.5001C6.20964 14.4751 6.43464 15.4201 7.07214 15.6676Z" stroke="#45413C" stroke-width="0.5" stroke-linecap="round" stroke-linejoin="round"/>
<path d="M17.9103 28.8676C17.6478 29.8576 16.1853 30.3676 14.6328 29.9326C13.0803 29.4976 12.0453 28.4326 12.3003 27.4051C12.5553 26.3776 14.0253 25.9051 15.5778 26.3326C17.1303 26.7601 18.1653 27.8701 17.9103 28.8676Z" fill="#87898C"/>
<path d="M15.5777 27.525C16.039 27.6207 16.4748 27.8133 16.8562 28.09C17.2376 28.3667 17.5559 28.7211 17.7902 29.13C17.8384 29.0475 17.8762 28.9593 17.9027 28.8675C18.1652 27.87 17.1527 26.7375 15.5777 26.3325C14.0027 25.9275 12.5777 26.4075 12.3002 27.405C12.2322 27.7171 12.2746 28.0431 12.4202 28.3275C12.8552 27.5175 14.1752 27.1575 15.5777 27.525Z" fill="#525252"/>
<path d="M17.9103 28.8676C17.6478 29.8576 16.1853 30.3676 14.6328 29.9326C13.0803 29.4976 12.0453 28.4326 12.3003 27.4051C12.5553 26.3776 14.0253 25.9051 15.5778 26.3326C17.1303 26.7601 18.1653 27.8701 17.9103 28.8676Z" stroke="#45413C" stroke-width="0.5" stroke-linecap="round" stroke-linejoin="round"/>
<path d="M26.6846 20.2725C26.6846 20.6564 26.8371 21.0245 27.1085 21.296C27.38 21.5674 27.7482 21.72 28.1321 21.72C28.516 21.72 28.8841 21.5674 29.1556 21.296C29.4271 21.0245 29.5796 20.6564 29.5796 20.2725C29.5796 19.8886 29.4271 19.5204 29.1556 19.2489C28.8841 18.9775 28.516 18.825 28.1321 18.825C27.7482 18.825 27.38 18.9775 27.1085 19.2489C26.8371 19.5204 26.6846 19.8886 26.6846 20.2725Z" fill="#FFF48C"/>
<path d="M28.1321 19.9125C28.4208 19.9126 28.703 19.999 28.9422 20.1607C29.1814 20.3225 29.3668 20.552 29.4746 20.82C29.5435 20.6456 29.5791 20.4599 29.5796 20.2725C29.5796 19.8886 29.4271 19.5204 29.1556 19.2489C28.8841 18.9775 28.516 18.825 28.1321 18.825C27.7482 18.825 27.38 18.9775 27.1085 19.2489C26.8371 19.5204 26.6846 19.8886 26.6846 20.2725C26.6851 20.4599 26.7207 20.6456 26.7896 20.82C26.8973 20.552 27.0827 20.3225 27.3219 20.1607C27.5612 19.999 27.8433 19.9126 28.1321 19.9125Z" fill="#EBCB00"/>
<path d="M26.6846 20.2725C26.6846 20.6564 26.8371 21.0245 27.1085 21.296C27.38 21.5674 27.7482 21.72 28.1321 21.72C28.516 21.72 28.8841 21.5674 29.1556 21.296C29.4271 21.0245 29.5796 20.6564 29.5796 20.2725C29.5796 19.8886 29.4271 19.5204 29.1556 19.2489C28.8841 18.9775 28.516 18.825 28.1321 18.825C27.7482 18.825 27.38 18.9775 27.1085 19.2489C26.8371 19.5204 26.6846 19.8886 26.6846 20.2725V20.2725Z" stroke="#45413C" stroke-width="0.5" stroke-linecap="round" stroke-linejoin="round"/>
<path d="M10.5527 19.0349C10.5527 19.4188 10.7052 19.787 10.9767 20.0584C11.2482 20.3299 11.6163 20.4824 12.0002 20.4824C12.3841 20.4824 12.7523 20.3299 13.0238 20.0584C13.2952 19.787 13.4477 19.4188 13.4477 19.0349C13.4477 18.651 13.2952 18.2828 13.0238 18.0114C12.7523 17.7399 12.3841 17.5874 12.0002 17.5874C11.6163 17.5874 11.2482 17.7399 10.9767 18.0114C10.7052 18.2828 10.5527 18.651 10.5527 19.0349Z" fill="#87898C"/>
<path d="M12.0002 18.6224C12.2934 18.6207 12.58 18.7089 12.8214 18.8752C13.0628 19.0415 13.2474 19.2779 13.3502 19.5524C13.413 19.387 13.446 19.2118 13.4477 19.0349C13.4477 18.651 13.2952 18.2828 13.0238 18.0114C12.7523 17.7399 12.3841 17.5874 12.0002 17.5874C11.6163 17.5874 11.2482 17.7399 10.9767 18.0114C10.7052 18.2828 10.5527 18.651 10.5527 19.0349C10.5535 19.2126 10.5892 19.3884 10.6577 19.5524C10.7592 19.2785 10.9424 19.0423 11.1825 18.876C11.4227 18.7097 11.7081 18.6211 12.0002 18.6224Z" fill="#525252"/>
<path d="M10.5527 19.0349C10.5527 19.4188 10.7052 19.787 10.9767 20.0584C11.2482 20.3299 11.6163 20.4824 12.0002 20.4824C12.3841 20.4824 12.7523 20.3299 13.0238 20.0584C13.2952 19.787 13.4477 19.4188 13.4477 19.0349C13.4477 18.651 13.2952 18.2828 13.0238 18.0114C12.7523 17.7399 12.3841 17.5874 12.0002 17.5874C11.6163 17.5874 11.2482 17.7399 10.9767 18.0114C10.7052 18.2828 10.5527 18.651 10.5527 19.0349V19.0349Z" stroke="#45413C" stroke-width="0.5" stroke-linecap="round" stroke-linejoin="round"/>
<path d="M11.7979 10.9649C11.7979 11.6233 12.0594 12.2548 12.525 12.7203C12.9905 13.1859 13.622 13.4474 14.2804 13.4474C14.9388 13.4474 15.5702 13.1859 16.0357 12.7203C16.5013 12.2548 16.7629 11.6233 16.7629 10.9649C16.7629 10.3065 16.5013 9.67509 16.0357 9.20953C15.5702 8.74397 14.9388 8.48242 14.2804 8.48242C13.622 8.48242 12.9905 8.74397 12.525 9.20953C12.0594 9.67509 11.7979 10.3065 11.7979 10.9649Z" fill="#87898C"/>
<path d="M14.2501 10.035C14.7706 10.0367 15.2773 10.2031 15.6976 10.5102C16.1179 10.8173 16.4303 11.2495 16.5901 11.745C16.6767 11.504 16.7248 11.2509 16.7326 10.995C16.7326 10.3366 16.471 9.70512 16.0055 9.23956C15.5399 8.774 14.9085 8.51245 14.2501 8.51245C13.5917 8.51245 12.9602 8.774 12.4947 9.23956C12.0291 9.70512 11.7676 10.3366 11.7676 10.995C11.7729 11.2505 11.8184 11.5036 11.9026 11.745C12.0638 11.2489 12.3776 10.8165 12.7991 10.5094C13.2207 10.2023 13.7285 10.0363 14.2501 10.035Z" fill="#525252"/>
<path d="M11.8203 10.9649C11.8203 11.6233 12.0819 12.2548 12.5474 12.7203C13.013 13.1859 13.6444 13.4474 14.3028 13.4474C14.9612 13.4474 15.5926 13.1859 16.0582 12.7203C16.5238 12.2548 16.7853 11.6233 16.7853 10.9649C16.7853 10.3065 16.5238 9.67509 16.0582 9.20953C15.5926 8.74397 14.9612 8.48242 14.3028 8.48242C13.6444 8.48242 13.013 8.74397 12.5474 9.20953C12.0819 9.67509 11.8203 10.3065 11.8203 10.9649V10.9649Z" stroke="#45413C" stroke-width="0.5" stroke-linecap="round" stroke-linejoin="round"/>
<path d="M18.4121 22.5524C18.4121 23.1014 18.6302 23.6279 19.0184 24.0161C19.4066 24.4043 19.9331 24.6224 20.4821 24.6224C21.0311 24.6224 21.5576 24.4043 21.9458 24.0161C22.334 23.6279 22.5521 23.1014 22.5521 22.5524C22.5521 22.0034 22.334 21.4769 21.9458 21.0887C21.5576 20.7005 21.0311 20.4824 20.4821 20.4824C19.9331 20.4824 19.4066 20.7005 19.0184 21.0887C18.6302 21.4769 18.4121 22.0034 18.4121 22.5524Z" fill="#87898C"/>
<path d="M20.4821 21.75C20.9205 21.7531 21.3466 21.8948 21.6996 22.1547C22.0525 22.4147 22.3142 22.7797 22.4471 23.1975C22.5501 22.8864 22.5779 22.5554 22.528 22.2315C22.4781 21.9077 22.3521 21.6003 22.1602 21.3346C21.9684 21.069 21.7162 20.8527 21.4245 20.7035C21.1328 20.5543 20.8098 20.4766 20.4821 20.4766C20.1544 20.4766 19.8315 20.5543 19.5397 20.7035C19.248 20.8527 18.9958 21.069 18.804 21.3346C18.6121 21.6003 18.4861 21.9077 18.4362 22.2315C18.3864 22.5554 18.4141 22.8864 18.5171 23.1975C18.649 22.7791 18.9104 22.4135 19.2636 22.1533C19.6168 21.8932 20.0435 21.7519 20.4821 21.75Z" fill="#525252"/>
<path d="M18.4121 22.5524C18.4121 23.1014 18.6302 23.6279 19.0184 24.0161C19.4066 24.4043 19.9331 24.6224 20.4821 24.6224C21.0311 24.6224 21.5576 24.4043 21.9458 24.0161C22.334 23.6279 22.5521 23.1014 22.5521 22.5524C22.5521 22.0034 22.334 21.4769 21.9458 21.0887C21.5576 20.7005 21.0311 20.4824 20.4821 20.4824C19.9331 20.4824 19.4066 20.7005 19.0184 21.0887C18.6302 21.4769 18.4121 22.0034 18.4121 22.5524V22.5524Z" stroke="#45413C" stroke-width="0.5" stroke-linecap="round" stroke-linejoin="round"/>
</svg>
