<svg width="32" height="32" viewBox="0 0 32 32" fill="none" xmlns="http://www.w3.org/2000/svg">
<mask id="mask0_1105_8078" style="mask-type:alpha" maskUnits="userSpaceOnUse" x="0" y="0" width="32" height="32">
<rect width="32" height="32" fill="#D9D9D9"/>
</mask>
<g mask="url(#mask0_1105_8078)">
<path d="M7.77799 28C6.35577 28 5.14844 27.5037 4.15599 26.511C3.16333 25.5186 2.66699 24.3112 2.66699 22.889C2.66699 21.4668 3.16333 20.2593 4.15599 19.2667C5.14844 18.274 6.35577 17.7777 7.77799 17.7777C9.20022 17.7777 10.4077 18.274 11.4003 19.2667C12.393 20.2593 12.8893 21.4668 12.8893 22.889C12.8893 24.3112 12.393 25.5186 11.4003 26.511C10.4077 27.5037 9.20022 28 7.77799 28ZM24.2447 28C22.8224 28 21.6151 27.5037 20.6227 26.511C19.63 25.5186 19.1337 24.3112 19.1337 22.889C19.1337 21.4668 19.63 20.2593 20.6227 19.2667C21.6151 18.274 22.8224 17.7777 24.2447 17.7777C25.6669 17.7777 26.8743 18.274 27.867 19.2667C28.8597 20.2593 29.356 21.4668 29.356 22.889C29.356 24.3112 28.8597 25.5186 27.867 26.511C26.8743 27.5037 25.6669 28 24.2447 28ZM7.77599 25.7777C8.56999 25.7777 9.25033 25.495 9.81699 24.9297C10.3837 24.3643 10.667 23.6848 10.667 22.891C10.667 22.097 10.3843 21.4167 9.81899 20.85C9.25366 20.2833 8.57399 20 7.77999 20C6.98621 20 6.30599 20.2827 5.73933 20.848C5.17266 21.4133 4.88933 22.093 4.88933 22.887C4.88933 23.6808 5.17199 24.361 5.73733 24.9277C6.30266 25.4943 6.98221 25.7777 7.77599 25.7777ZM24.2427 25.7777C25.0367 25.7777 25.717 25.495 26.2837 24.9297C26.8503 24.3643 27.1337 23.6848 27.1337 22.891C27.1337 22.097 26.851 21.4167 26.2857 20.85C25.7203 20.2833 25.0407 20 24.2467 20C23.4529 20 22.7727 20.2827 22.206 20.848C21.6393 21.4133 21.356 22.093 21.356 22.887C21.356 23.6808 21.6387 24.361 22.204 24.9277C22.7693 25.4943 23.4489 25.7777 24.2427 25.7777ZM16.0227 14.2C14.6004 14.2 13.393 13.7037 12.4003 12.711C11.4077 11.7186 10.9113 10.5112 10.9113 9.08899C10.9113 7.66677 11.4077 6.45933 12.4003 5.46666C13.393 4.47399 14.6004 3.97766 16.0227 3.97766C17.4449 3.97766 18.6522 4.47399 19.6447 5.46666C20.6373 6.45933 21.1337 7.66677 21.1337 9.08899C21.1337 10.5112 20.6373 11.7186 19.6447 12.711C18.6522 13.7037 17.4449 14.2 16.0227 14.2ZM16.0207 11.9777C16.8144 11.9777 17.4947 11.695 18.0613 11.1297C18.628 10.5643 18.9113 9.88477 18.9113 9.09099C18.9113 8.29699 18.6287 7.61666 18.0633 7.04999C17.498 6.48333 16.8184 6.19999 16.0247 6.19999C15.2307 6.19999 14.5503 6.48266 13.9837 7.04799C13.417 7.61333 13.1337 8.29299 13.1337 9.08699C13.1337 9.88077 13.4163 10.561 13.9817 11.1277C14.547 11.6943 15.2267 11.9777 16.0207 11.9777Z" fill="#6D3091"/>
</g>
</svg>
