<svg width="24" height="19" viewBox="0 0 24 19" fill="none" xmlns="http://www.w3.org/2000/svg">
<path d="M13.2688 1.11873C13.5689 0.818773 13.9758 0.650269 14.4 0.650269C14.8243 0.650269 15.2312 0.818773 15.5312 1.11873L22.7312 8.31873C23.0312 8.61877 23.1997 9.02566 23.1997 9.44993C23.1997 9.87419 23.0312 10.2811 22.7312 10.5811L15.5312 17.7811C15.2295 18.0726 14.8253 18.2338 14.4058 18.2302C13.9863 18.2266 13.585 18.0583 13.2883 17.7616C12.9917 17.465 12.8234 17.0637 12.8198 16.6442C12.8161 16.2247 12.9774 15.8205 13.2688 15.5187L17.6 11.0499H2.40005C1.9757 11.0499 1.56874 10.8814 1.26868 10.5813C0.96862 10.2812 0.800049 9.87427 0.800049 9.44993C0.800049 9.02558 0.96862 8.61861 1.26868 8.31856C1.56874 8.0185 1.9757 7.84993 2.40005 7.84993H17.6L13.2688 3.38113C12.9689 3.08108 12.8004 2.67419 12.8004 2.24993C12.8004 1.82566 12.9689 1.41877 13.2688 1.11873Z" fill="#C2B5F5"/>
</svg>
