<svg width="36" height="35" viewBox="0 0 36 35" fill="none" xmlns="http://www.w3.org/2000/svg">
<g filter="url(#filter0_d_173_5875)">
<rect x="2" y="0.773438" width="32" height="32" rx="5.81818" fill="#EA4C89"/>
<path fill-rule="evenodd" clip-rule="evenodd" d="M18 8.04639C13.182 8.04639 9.27271 11.9557 9.27271 16.7737C9.27271 21.5917 13.182 25.5009 18 25.5009C22.8085 25.5009 26.7272 21.5917 26.7272 16.7737C26.7272 11.9557 22.8085 8.04639 18 8.04639ZM23.7645 12.0693C24.8057 13.3376 25.4305 14.9563 25.4494 16.7074C25.2033 16.6601 22.7422 16.1584 20.2622 16.4708C20.2055 16.3477 20.1581 16.2152 20.1013 16.0827C19.9499 15.723 19.7795 15.3538 19.6091 15.0036C22.3541 13.8867 23.6036 12.2775 23.7645 12.0693ZM18 9.33371C19.8931 9.33371 21.6253 10.0436 22.941 11.2079C22.8085 11.3972 21.6821 12.9022 19.0317 13.8961C17.8107 11.6528 16.4571 9.81645 16.2489 9.53248C16.8073 9.39996 17.3942 9.33371 18 9.33371ZM14.829 10.0342C15.0278 10.2992 16.353 12.145 17.593 14.341C14.1096 15.2686 11.0333 15.2497 10.702 15.2497C11.1848 12.9401 12.7466 11.0186 14.829 10.0342ZM10.5411 16.7832C10.5411 16.7074 10.5411 16.6317 10.5411 16.556C10.8629 16.5654 14.4788 16.6127 18.1987 15.4958C18.4165 15.9123 18.6152 16.3382 18.8046 16.7642C18.7099 16.7926 18.6058 16.821 18.5111 16.8494C14.6681 18.0893 12.6235 21.478 12.4531 21.762C11.2699 20.4463 10.5411 18.6952 10.5411 16.7832ZM18 24.2325C16.2772 24.2325 14.687 23.6457 13.4281 22.6612C13.5606 22.3868 15.0751 19.4714 19.2778 18.0042C19.2967 17.9947 19.3062 17.9947 19.3252 17.9853C20.3758 20.7019 20.8018 22.9831 20.9154 23.6362C20.0161 24.0243 19.0317 24.2325 18 24.2325ZM22.1554 22.9547C22.0796 22.5003 21.6821 20.3233 20.7071 17.6445C23.0452 17.2753 25.0897 17.8811 25.3453 17.9663C25.0235 20.0393 23.8308 21.8283 22.1554 22.9547Z" fill="white"/>
</g>
<defs>
<filter id="filter0_d_173_5875" x="0.545455" y="0.0461648" width="34.9091" height="34.9091" filterUnits="userSpaceOnUse" color-interpolation-filters="sRGB">
<feFlood flood-opacity="0" result="BackgroundImageFix"/>
<feColorMatrix in="SourceAlpha" type="matrix" values="0 0 0 0 0 0 0 0 0 0 0 0 0 0 0 0 0 0 127 0" result="hardAlpha"/>
<feOffset dy="0.727273"/>
<feGaussianBlur stdDeviation="0.727273"/>
<feColorMatrix type="matrix" values="0 0 0 0 0.0627451 0 0 0 0 0.0941176 0 0 0 0 0.156863 0 0 0 0.05 0"/>
<feBlend mode="normal" in2="BackgroundImageFix" result="effect1_dropShadow_173_5875"/>
<feBlend mode="normal" in="SourceGraphic" in2="effect1_dropShadow_173_5875" result="shape"/>
</filter>
</defs>
</svg>
