<svg width="32" height="32" viewBox="0 0 32 32" fill="none" xmlns="http://www.w3.org/2000/svg">
<mask id="mask0_1105_8048" style="mask-type:alpha" maskUnits="userSpaceOnUse" x="0" y="0" width="32" height="32">
<rect width="32" height="32" fill="#D9D9D9"/>
</mask>
<g mask="url(#mask0_1105_8048)">
<path d="M6.22233 28C5.61122 28 5.088 27.7824 4.65267 27.3473C4.21756 26.912 4 26.3888 4 25.7777V8.33333C4 8.08444 4.04256 7.84889 4.12767 7.62667C4.213 7.40444 4.34078 7.19556 4.511 7L6.4 4.6C6.56222 4.4 6.74711 4.25 6.95467 4.15C7.162 4.05 7.39189 4 7.64433 4H24.3777C24.6303 4 24.8603 4.05 25.0677 4.15C25.275 4.25 25.4599 4.4 25.6223 4.6L27.511 7C27.6519 7.2 27.7686 7.41044 27.861 7.63133C27.9537 7.852 28 8.086 28 8.33333V25.7777C28 26.3888 27.7824 26.912 27.3473 27.3473C26.912 27.7824 26.3888 28 25.7777 28H6.22233ZM6.8 7.66667H25.2223L24.0353 6.22233H7.97767L6.8 7.66667ZM6.22233 25.7777H25.7777V9.889H6.22233V25.7777ZM19.5777 22.311L24.0443 17.8443L19.5777 13.3777L18.0443 14.911L20.9777 17.8443L18.0443 20.7777L19.5777 22.311ZM12.4443 22.4L13.9777 20.8667L11.0443 17.9333L13.9777 15L12.4443 13.4667L7.97767 17.9333L12.4443 22.4Z" fill="#6D3091"/>
</g>
</svg>
