<svg width="32" height="32" viewBox="0 0 32 32" fill="none" xmlns="http://www.w3.org/2000/svg">
<mask id="mask0_1105_8057" style="mask-type:alpha" maskUnits="userSpaceOnUse" x="0" y="0" width="32" height="32">
<rect width="32" height="32" fill="#D9D9D9"/>
</mask>
<g mask="url(#mask0_1105_8057)">
<path d="M11.8447 14.8L14.8003 11.8334L12.5113 9.53335L10.956 11.089L9.40033 9.53335L10.9447 7.97769L8.77799 5.83335L5.81133 8.80002L11.8447 14.8ZM23.178 26.189L26.1447 23.2L23.978 21.0334L22.4227 22.5777L20.867 21.0224L22.4113 19.4667L20.1337 17.2L17.178 20.1557L23.178 26.189ZM9.35599 28H4.00033V22.6444L10.256 16.389L2.66699 8.80002L8.75599 2.66669L16.4003 10.289L22.0337 4.64435C22.2559 4.42213 22.504 4.25924 22.778 4.15569C23.0522 4.05191 23.33 4.00002 23.6113 4.00002C23.8929 4.00002 24.1707 4.05191 24.4447 4.15569C24.7189 4.25924 24.9671 4.42213 25.1893 4.64435L27.356 6.82235C27.5782 7.04458 27.7411 7.29269 27.8447 7.56669C27.9484 7.84069 28.0003 8.11847 28.0003 8.40002C28.0003 8.68158 27.9484 8.95747 27.8447 9.22769C27.7411 9.49813 27.5782 9.74447 27.356 9.96669L21.7227 15.611L29.3337 23.2224L23.2227 29.311L15.6337 21.7224L9.35599 28ZM6.22266 25.7777H8.40033L21.4893 12.6777L19.3003 10.489L6.22266 23.6V25.7777Z" fill="#6D3091"/>
</g>
</svg>
