<svg width="129" height="40" viewBox="0 0 129 40" fill="none" xmlns="http://www.w3.org/2000/svg">
<g clip-path="url(#clip0_1122_17706)">
<path opacity="0.826" fill-rule="evenodd" clip-rule="evenodd" d="M15.6063 -0.212769C18.7268 -0.212769 21.8474 -0.212769 24.968 -0.212769C38.0293 4.63153 42.7811 13.8514 39.2233 27.4468C36.3475 33.8023 31.5957 37.9158 24.968 39.7872C21.8474 39.7872 18.7268 39.7872 15.6063 39.7872C7.80485 37.3759 2.69846 32.2695 0.287109 24.4681C0.287109 21.3475 0.287109 18.2269 0.287109 15.1064C2.69846 7.30498 7.80485 2.19858 15.6063 -0.212769ZM35.6063 24.4681C33.7298 13.7366 27.3468 8.98481 16.4573 10.2128C9.22013 12.417 5.39034 17.3106 4.96796 24.8936C2.48544 14.2491 6.45707 7.22787 16.8829 3.82978C26.781 2.71441 33.2349 6.89881 36.2446 16.383C36.5283 18.6525 36.5283 20.922 36.2446 23.1915C36.1458 23.7181 35.933 24.1436 35.6063 24.4681ZM29.6488 30.4255C28.5268 23.6895 24.5552 20.7817 17.7339 21.7021C13.4727 23.0638 11.2032 25.9716 10.9254 30.4255C7.77502 24.3338 9.05162 19.2983 14.7552 15.3191C22.5408 12.226 28.0017 14.5664 31.1382 22.3404C31.7365 25.2964 31.2401 27.9914 29.6488 30.4255ZM21.1382 35.9574C20.5708 35.9574 20.0034 35.9574 19.436 35.9574C15.2312 34.6227 14.0255 31.9277 15.819 27.8723C18.7816 24.5196 21.7603 24.5196 24.7552 27.8723C26.5486 31.9012 25.3429 34.5963 21.1382 35.9574Z" fill="#8BC440"/>
<path opacity="0.847" fill-rule="evenodd" clip-rule="evenodd" d="M127.947 27.4468C127.947 28.8652 127.947 30.2837 127.947 31.7021C126.326 31.8454 124.766 31.6327 123.266 31.0638C121.827 28.8256 120.551 26.4851 119.436 24.0426C118.29 23.2893 117.014 23.0056 115.606 23.1915C115.606 26.0284 115.606 28.8652 115.606 31.7021C114.046 31.7021 112.486 31.7021 110.925 31.7021C110.925 25.1773 110.925 18.6525 110.925 12.1277C109.894 11.9968 108.901 12.1386 107.947 12.5532C108.564 15.0334 107.996 17.232 106.245 19.1489C110.059 22.6978 110.201 26.3857 106.67 30.2128C104.042 31.4331 101.276 31.9296 98.3723 31.7021C96.8829 31.6312 95.3936 31.5603 93.9042 31.4894C93.5144 31.3301 93.1595 31.1174 92.8404 30.8511C92.6276 24.6115 92.5566 18.3704 92.6276 12.1277C91.3174 12.0256 90.0408 12.1674 88.7978 12.5532C86.7991 15.4748 84.8842 18.4535 83.0532 21.4894C82.8404 24.8907 82.7697 28.2949 82.8404 31.7021C81.28 31.7021 79.72 31.7021 78.1595 31.7021C78.2302 28.2949 78.1595 24.8907 77.9468 21.4894C76.2578 18.5959 74.4851 15.759 72.6276 12.9787C71.3646 12.0588 70.0174 11.9169 68.5851 12.5532C68.3723 18.9346 68.3012 25.3176 68.3723 31.7021C66.6702 31.7021 64.968 31.7021 63.2659 31.7021C63.2659 28.4397 63.2659 25.1773 63.2659 21.9149C60.1455 21.9149 57.0246 21.9149 53.9042 21.9149C53.9042 25.1773 53.9042 28.4397 53.9042 31.7021C52.3438 31.7021 50.7838 31.7021 49.2234 31.7021C49.2944 25.3176 49.2234 18.9346 49.0106 12.5532C48.4336 12.1786 47.7953 12.0368 47.0957 12.1277C47.0957 10.7092 47.0957 9.29077 47.0957 7.87234C49.0868 7.80179 51.0723 7.87268 53.0532 8.08511C53.2659 8.29787 53.4787 8.51064 53.6914 8.7234C53.9042 11.6988 53.9749 14.6775 53.9042 17.6596C57.0246 17.6596 60.1455 17.6596 63.2659 17.6596C63.1953 14.9608 63.2659 12.2658 63.4787 9.57447C63.6766 8.96562 64.0314 8.46915 64.5425 8.08511C68.2744 7.68511 71.9621 7.82694 75.6063 8.51064C77.3983 11.1714 79.0297 13.9374 80.5 16.8085C81.9506 13.5412 83.8655 10.6334 86.2446 8.08511C97.8685 8.27911 109.5 8.27911 121.138 8.08511C126.058 9.48132 127.831 12.6728 126.457 17.6596C125.795 19.1053 124.873 20.3819 123.691 21.4894C124.722 23.1235 125.644 24.8257 126.457 26.5957C126.805 27.1586 127.301 27.4423 127.947 27.4468ZM97.734 12.1277C99.3395 12.0269 100.9 12.2397 102.415 12.766C103.593 14.3008 103.451 15.7192 101.989 17.0213C100.578 17.2333 99.1595 17.3043 97.734 17.234C97.734 15.5319 97.734 13.8298 97.734 12.1277ZM115.606 12.1277C118.596 11.4249 120.723 12.4179 121.989 15.1064C121.699 16.3257 121.131 17.3896 120.287 18.2979C118.733 18.51 117.173 18.581 115.606 18.5106C115.606 16.383 115.606 14.2553 115.606 12.1277ZM97.734 21.4894C99.3008 21.419 100.861 21.49 102.415 21.7021C104.444 23.279 104.585 24.9811 102.84 26.8085C101.183 27.3473 99.4808 27.5601 97.734 27.4468C97.734 25.461 97.734 23.4752 97.734 21.4894Z" fill="#0068BB"/>
<path opacity="0.811" fill-rule="evenodd" clip-rule="evenodd" d="M35.6061 24.4681C34.3775 30.3777 30.8314 34.0656 24.9678 35.532C26.3572 34.6451 27.7048 33.6522 29.0103 32.5532C29.4395 31.9043 29.6523 31.1951 29.6486 30.4256C31.2399 27.9915 31.7363 25.2965 31.138 22.3405C28.0016 14.5664 22.5406 12.226 14.755 15.3192C9.05143 19.2983 7.77484 24.3338 10.9252 30.4256C11.3394 32.6156 12.616 34.105 14.755 34.8937C14.5021 35.0912 14.2184 35.1622 13.9039 35.1064C9.10714 33.2886 6.12841 29.8843 4.96777 24.8937C5.39016 17.3106 9.21994 12.417 16.4571 10.2128C27.3466 8.98485 33.7296 13.7366 35.6061 24.4681ZM29.6486 30.4256C28.5266 23.6895 24.555 20.7817 17.7337 21.7022C13.4725 23.0639 11.203 25.9717 10.9252 30.4256C7.77484 24.3338 9.05143 19.2983 14.755 15.3192C22.5406 12.226 28.0016 14.5664 31.138 22.3405C31.7363 25.2965 31.2399 27.9915 29.6486 30.4256Z" fill="#3EC2FC"/>
<path opacity="0.794" fill-rule="evenodd" clip-rule="evenodd" d="M29.6492 30.4255C29.6528 31.1951 29.4401 31.9043 29.0109 32.5532C27.7053 33.6522 26.3578 34.6451 24.9683 35.5319C24.353 36.1448 23.5728 36.4284 22.6279 36.383C22.0387 36.3769 21.5422 36.2351 21.1385 35.9574C25.3433 34.5962 26.549 31.9012 24.7556 27.8723C21.7607 24.5196 18.782 24.5196 15.8194 27.8723C14.0259 31.9277 15.2315 34.6227 19.4364 35.9574C17.5119 36.437 15.668 36.1533 13.9045 35.1064C14.2189 35.1621 14.5026 35.0912 14.7556 34.8936C12.6166 34.1049 11.34 32.6156 10.9258 30.4255C11.2036 25.9716 13.4731 23.0638 17.7343 21.7021C24.5556 20.7817 28.5272 23.6895 29.6492 30.4255ZM21.1385 35.9574C20.5712 35.9574 20.0038 35.9574 19.4364 35.9574C15.2315 34.6227 14.0259 31.9277 15.8194 27.8723C18.782 24.5196 21.7607 24.5196 24.7556 27.8723C26.549 31.9012 25.3433 34.5962 21.1385 35.9574Z" fill="#B8BDBE"/>
</g>
<defs>
<clipPath id="clip0_1122_17706">
<rect width="127.66" height="40" fill="white" transform="translate(0.5)"/>
</clipPath>
</defs>
</svg>
