<svg width="32" height="33" viewBox="0 0 32 33" fill="none" xmlns="http://www.w3.org/2000/svg">
<rect x="2" y="2.77344" width="28" height="28" rx="6" fill="url(#paint0_radial_274_5975)"/>
<rect x="2" y="2.77344" width="28" height="28" rx="6" fill="url(#paint1_radial_274_5975)"/>
<rect x="2" y="2.77344" width="28" height="28" rx="6" fill="url(#paint2_radial_274_5975)"/>
<path d="M23 11.2734C23 12.1019 22.3284 12.7734 21.5 12.7734C20.6716 12.7734 20 12.1019 20 11.2734C20 10.445 20.6716 9.77344 21.5 9.77344C22.3284 9.77344 23 10.445 23 11.2734Z" fill="white"/>
<path fill-rule="evenodd" clip-rule="evenodd" d="M16 21.7734C18.7614 21.7734 21 19.5349 21 16.7734C21 14.012 18.7614 11.7734 16 11.7734C13.2386 11.7734 11 14.012 11 16.7734C11 19.5349 13.2386 21.7734 16 21.7734ZM16 19.7734C17.6569 19.7734 19 18.4303 19 16.7734C19 15.1166 17.6569 13.7734 16 13.7734C14.3431 13.7734 13 15.1166 13 16.7734C13 18.4303 14.3431 19.7734 16 19.7734Z" fill="white"/>
<path fill-rule="evenodd" clip-rule="evenodd" d="M6 16.3734C6 13.0131 6 11.333 6.65396 10.0495C7.2292 8.92052 8.14708 8.00264 9.27606 7.4274C10.5595 6.77344 12.2397 6.77344 15.6 6.77344H16.4C19.7603 6.77344 21.4405 6.77344 22.7239 7.4274C23.8529 8.00264 24.7708 8.92052 25.346 10.0495C26 11.333 26 13.0131 26 16.3734V17.1734C26 20.5338 26 22.2139 25.346 23.4974C24.7708 24.6264 23.8529 25.5442 22.7239 26.1195C21.4405 26.7734 19.7603 26.7734 16.4 26.7734H15.6C12.2397 26.7734 10.5595 26.7734 9.27606 26.1195C8.14708 25.5442 7.2292 24.6264 6.65396 23.4974C6 22.2139 6 20.5338 6 17.1734V16.3734ZM15.6 8.77344H16.4C18.1132 8.77344 19.2777 8.77499 20.1779 8.84854C21.0548 8.92018 21.5032 9.05003 21.816 9.20941C22.5686 9.5929 23.1805 10.2048 23.564 10.9575C23.7234 11.2703 23.8533 11.7187 23.9249 12.5955C23.9984 13.4957 24 14.6603 24 16.3734V17.1734C24 18.8866 23.9984 20.0512 23.9249 20.9514C23.8533 21.8282 23.7234 22.2766 23.564 22.5894C23.1805 23.342 22.5686 23.954 21.816 24.3375C21.5032 24.4968 21.0548 24.6267 20.1779 24.6983C19.2777 24.7719 18.1132 24.7734 16.4 24.7734H15.6C13.8868 24.7734 12.7223 24.7719 11.8221 24.6983C10.9452 24.6267 10.4968 24.4968 10.184 24.3375C9.43139 23.954 8.81947 23.342 8.43597 22.5894C8.27659 22.2766 8.14674 21.8282 8.0751 20.9514C8.00156 20.0512 8 18.8866 8 17.1734V16.3734C8 14.6603 8.00156 13.4957 8.0751 12.5955C8.14674 11.7187 8.27659 11.2703 8.43597 10.9575C8.81947 10.2048 9.43139 9.5929 10.184 9.20941C10.4968 9.05003 10.9452 8.92018 11.8221 8.84854C12.7223 8.77499 13.8868 8.77344 15.6 8.77344Z" fill="white"/>
<defs>
<radialGradient id="paint0_radial_274_5975" cx="0" cy="0" r="1" gradientUnits="userSpaceOnUse" gradientTransform="translate(12 23.7734) rotate(-55.3758) scale(25.5196)">
<stop stop-color="#B13589"/>
<stop offset="0.79309" stop-color="#C62F94"/>
<stop offset="1" stop-color="#8A3AC8"/>
</radialGradient>
<radialGradient id="paint1_radial_274_5975" cx="0" cy="0" r="1" gradientUnits="userSpaceOnUse" gradientTransform="translate(11 31.7734) rotate(-65.1363) scale(22.5942)">
<stop stop-color="#E0E8B7"/>
<stop offset="0.444662" stop-color="#FB8A2E"/>
<stop offset="0.71474" stop-color="#E2425C"/>
<stop offset="1" stop-color="#E2425C" stop-opacity="0"/>
</radialGradient>
<radialGradient id="paint2_radial_274_5975" cx="0" cy="0" r="1" gradientUnits="userSpaceOnUse" gradientTransform="translate(0.500002 3.77344) rotate(-8.1301) scale(38.8909 8.31836)">
<stop offset="0.156701" stop-color="#406ADC"/>
<stop offset="0.467799" stop-color="#6A45BE"/>
<stop offset="1" stop-color="#6A45BE" stop-opacity="0"/>
</radialGradient>
</defs>
</svg>
