<svg width="28" height="36" viewBox="0 0 28 36" fill="none" xmlns="http://www.w3.org/2000/svg">
<path opacity="0.15" d="M6.5 34.875C6.5 35.1734 7.29018 35.4595 8.6967 35.6705C10.1032 35.8815 12.0109 36 14 36C15.9891 36 17.8968 35.8815 19.3033 35.6705C20.7098 35.4595 21.5 35.1734 21.5 34.875C21.5 34.5766 20.7098 34.2905 19.3033 34.0795C17.8968 33.8685 15.9891 33.75 14 33.75C12.0109 33.75 10.1032 33.8685 8.6967 34.0795C7.29018 34.2905 6.5 34.5766 6.5 34.875Z" fill="#45413C"/>
<path d="M20.1806 28.5825C20.1806 28.5825 18.3581 32.715 17.4356 33.4425C16.992 33.7906 16.4283 33.9482 15.8685 33.8807C15.3087 33.8132 14.7987 33.5261 14.4506 33.0825C14.1025 32.6389 13.9449 32.0753 14.0124 31.5155C14.0799 30.9557 14.367 30.4456 14.8106 30.0975C15.7406 29.37 20.1806 28.5825 20.1806 28.5825Z" fill="#6DD627" stroke="#45413C" stroke-width="0.5" stroke-linecap="round" stroke-linejoin="round"/>
<path d="M7.82031 27.3675C7.82031 27.3675 9.64281 31.5 10.5653 32.25C10.7849 32.4224 11.0364 32.5498 11.3053 32.625C11.5741 32.7001 11.8552 32.7216 12.1324 32.6882C12.4096 32.6548 12.6774 32.5671 12.9207 32.4301C13.164 32.2932 13.378 32.1096 13.5503 31.89C13.7227 31.6704 13.8501 31.4189 13.9253 31.15C14.0005 30.8812 14.022 30.6001 13.9885 30.3229C13.9551 30.0457 13.8674 29.7779 13.7304 29.5346C13.5935 29.2913 13.4099 29.0774 13.1903 28.905C12.2603 28.1625 7.82031 27.3675 7.82031 27.3675Z" fill="#6DD627" stroke="#45413C" stroke-width="0.5" stroke-linecap="round" stroke-linejoin="round"/>
<path d="M13.0928 21.7575H14.9153V34.875H13.0928V21.7575Z" fill="#6DD627" stroke="#45413C" stroke-width="0.5" stroke-linecap="round" stroke-linejoin="round"/>
<path d="M13.1754 6.62999C13.2894 6.88886 13.3505 7.16791 13.3551 7.45073C13.3597 7.73355 13.3077 8.01444 13.2022 8.27689C13.0967 8.53934 12.9399 8.77806 12.7408 8.97902C12.5417 9.17997 12.3045 9.33911 12.0431 9.44709C11.7816 9.55506 11.5013 9.60969 11.2184 9.60777C10.9356 9.60584 10.6559 9.5474 10.396 9.43587C10.1361 9.32434 9.90103 9.16199 9.70473 8.95834C9.50842 8.75469 9.3548 8.51385 9.2529 8.24999C8.8029 7.16999 9.0054 2.11499 9.0054 2.11499C9.0054 2.11499 12.7254 5.54249 13.1754 6.62999Z" fill="#FFE500"/>
<path d="M8.08258 9.41997C8.34013 9.52684 8.57412 9.68338 8.77117 9.88067C8.96823 10.078 9.12449 10.3121 9.23105 10.5698C9.3376 10.8275 9.39236 11.1036 9.3922 11.3825C9.39203 11.6613 9.33694 11.9374 9.23008 12.195C9.12321 12.4525 8.96667 12.6865 8.76938 12.8836C8.57209 13.0806 8.33791 13.2369 8.08023 13.3434C7.82255 13.45 7.5464 13.5048 7.26756 13.5046C6.98871 13.5044 6.71263 13.4493 6.45508 13.3425C5.37508 12.8925 1.95508 9.17247 1.95508 9.17247C1.95508 9.17247 7.00258 8.99997 8.08258 9.41997Z" fill="#FFE500"/>
<path d="M6.45477 15C6.97492 14.7842 7.55951 14.7838 8.07992 14.999C8.60033 15.2142 9.01395 15.6274 9.22976 16.1475C9.44558 16.6677 9.44593 17.2522 9.23074 17.7727C9.01554 18.2931 8.60242 18.7067 8.08227 18.9225C7.00227 19.3725 1.94727 19.17 1.94727 19.17C1.94727 19.17 5.37477 15.4425 6.45477 15Z" fill="#FFE500"/>
<path d="M9.2529 20.085C9.47369 19.5648 9.89207 19.1537 10.416 18.942C10.9399 18.7303 11.5265 18.7354 12.0466 18.9562C12.5668 19.177 12.9779 19.5954 13.1896 20.1193C13.4013 20.6433 13.3962 21.2298 13.1754 21.75C12.7254 22.83 9.0054 26.25 9.0054 26.25C9.0054 26.25 8.8029 21.165 9.2529 20.085Z" fill="#FFE500"/>
<path d="M14.8252 21.75C14.6094 21.2298 14.609 20.6452 14.8242 20.1248C15.0394 19.6044 15.4525 19.1908 15.9727 18.975C16.4929 18.7592 17.0774 18.7588 17.5979 18.974C18.1183 19.1892 18.5319 19.6023 18.7477 20.1225C19.1977 21.2025 18.9952 26.2575 18.9952 26.2575C18.9952 26.2575 15.2752 22.7925 14.8252 21.75Z" fill="#FFE500"/>
<path d="M19.9174 18.915C19.6467 18.8179 19.3986 18.6668 19.1881 18.4709C18.9776 18.2749 18.8091 18.0383 18.6929 17.7752C18.5766 17.5122 18.515 17.2283 18.5118 16.9408C18.5087 16.6532 18.5639 16.368 18.6743 16.1025C18.7847 15.837 18.9479 15.5966 19.154 15.3961C19.3601 15.1955 19.6048 15.0389 19.8732 14.9358C20.1417 14.8327 20.4283 14.7853 20.7156 14.7963C21.003 14.8073 21.2851 14.8766 21.5449 15C22.6249 15.45 26.0449 19.17 26.0449 19.17C26.0449 19.17 20.9974 19.365 19.9174 18.915Z" fill="#FFE500"/>
<path d="M21.5455 13.3425C21.0254 13.5583 20.4408 13.5587 19.9204 13.3435C19.3999 13.1283 18.9863 12.7152 18.7705 12.195C18.5547 11.6749 18.5543 11.0903 18.7695 10.5699C18.9847 10.0494 19.3979 9.63583 19.918 9.42001C20.998 8.97001 26.053 9.17251 26.053 9.17251C26.053 9.17251 22.6255 12.8925 21.5455 13.3425Z" fill="#FFE500"/>
<path d="M18.748 8.25C18.6461 8.51387 18.4925 8.7547 18.2961 8.95835C18.0998 9.162 17.8648 9.32436 17.6049 9.43588C17.3449 9.54741 17.0653 9.60585 16.7825 9.60778C16.4996 9.60971 16.2192 9.55508 15.9578 9.4471C15.6964 9.33913 15.4591 9.17999 15.2601 8.97903C15.061 8.77807 14.9041 8.53936 14.7986 8.27691C14.6931 8.01445 14.6412 7.73357 14.6458 7.45075C14.6504 7.16792 14.7115 6.88888 14.8255 6.63C15.2755 5.5425 18.9955 2.13 18.9955 2.13C18.9955 2.13 19.198 7.17 18.748 8.25Z" fill="#FFE500"/>
<path d="M12.0279 9.405C12.5469 9.18778 12.9589 8.77403 13.1739 8.25412C13.3889 7.7342 13.3894 7.15033 13.1754 6.63C11.7392 6.7811 10.3772 7.34363 9.25293 8.25C9.46874 8.77035 9.88188 9.18401 10.402 9.40047C10.922 9.61694 11.5067 9.61856 12.0279 9.405Z" fill="#EBCB00"/>
<path d="M9.2375 12.195C9.4515 11.6747 9.45094 11.0908 9.23595 10.5709C9.02095 10.051 8.60899 9.63721 8.09 9.41998C7.19441 10.5477 6.64242 11.9094 6.5 13.3425C7.01591 13.5449 7.59042 13.5383 8.10154 13.3241C8.61267 13.1098 9.02016 12.7048 9.2375 12.195Z" fill="#EBCB00"/>
<path d="M9.2375 16.14C9.01877 15.6315 8.61069 15.2282 8.09971 15.0154C7.58873 14.8026 7.01498 14.7971 6.5 15C6.65327 16.437 7.21843 17.7991 8.1275 18.9225C8.64159 18.6982 9.0465 18.2803 9.25432 17.7593C9.46213 17.2384 9.45609 16.6565 9.2375 16.14Z" fill="#EBCB00"/>
<path d="M12.0279 18.9375C11.5087 18.721 10.9248 18.7194 10.4045 18.9332C9.88418 19.147 9.46999 19.5585 9.25293 20.0775C10.3763 20.9866 11.7384 21.5517 13.1754 21.705C13.2823 21.448 13.3373 21.1724 13.3375 20.8941C13.3376 20.6157 13.2828 20.3401 13.1762 20.083C13.0696 19.8259 12.9133 19.5924 12.7162 19.3958C12.5192 19.1992 12.2853 19.0435 12.0279 18.9375Z" fill="#EBCB00"/>
<path d="M15.9726 18.9375C15.7153 19.0435 15.4814 19.1992 15.2843 19.3958C15.0873 19.5924 14.931 19.8259 14.8244 20.083C14.7178 20.3401 14.663 20.6157 14.6631 20.8941C14.6632 21.1724 14.7183 21.448 14.8251 21.705C16.2621 21.5517 17.6242 20.9866 18.7476 20.0775C18.5306 19.5585 18.1164 19.147 17.596 18.9332C17.0757 18.7194 16.4918 18.721 15.9726 18.9375Z" fill="#EBCB00"/>
<path d="M18.7626 16.14C18.5486 16.6603 18.5492 17.2442 18.7642 17.7641C18.9792 18.284 19.3911 18.6978 19.9101 18.915C20.8179 17.7937 21.383 16.4344 21.5376 15C21.0182 14.7856 20.4352 14.7851 19.9154 14.9986C19.3956 15.2121 18.9813 15.6224 18.7626 16.14Z" fill="#EBCB00"/>
<path d="M18.7626 12.195C18.9799 12.714 19.3936 13.1259 19.9135 13.3409C20.4334 13.5559 21.0173 13.5565 21.5376 13.3425C21.3844 11.9055 20.8192 10.5434 19.9101 9.41998C19.3911 9.63721 18.9792 10.051 18.7642 10.5709C18.5492 11.0908 18.5486 11.6747 18.7626 12.195Z" fill="#EBCB00"/>
<path d="M15.9726 9.405C16.4939 9.61856 17.0785 9.61694 17.5986 9.40047C18.1187 9.18401 18.5318 8.77035 18.7476 8.25C17.6234 7.34363 16.2613 6.7811 14.8251 6.63C14.6111 7.15033 14.6117 7.7342 14.8267 8.25412C15.0417 8.77403 15.4536 9.18778 15.9726 9.405Z" fill="#EBCB00"/>
<path d="M13.1754 6.62999C13.2894 6.88886 13.3505 7.16791 13.3551 7.45073C13.3597 7.73355 13.3077 8.01444 13.2022 8.27689C13.0967 8.53934 12.9399 8.77806 12.7408 8.97902C12.5417 9.17997 12.3045 9.33911 12.0431 9.44709C11.7816 9.55506 11.5013 9.60969 11.2184 9.60777C10.9356 9.60584 10.6559 9.5474 10.396 9.43587C10.1361 9.32434 9.90103 9.16199 9.70473 8.95834C9.50842 8.75469 9.3548 8.51385 9.2529 8.24999C8.8029 7.16999 9.0054 2.11499 9.0054 2.11499C9.0054 2.11499 12.7254 5.54249 13.1754 6.62999Z" stroke="#45413C" stroke-width="0.5" stroke-linecap="round" stroke-linejoin="round"/>
<path d="M8.08258 9.41997C8.34013 9.52684 8.57412 9.68338 8.77117 9.88067C8.96823 10.078 9.12449 10.3121 9.23105 10.5698C9.3376 10.8275 9.39236 11.1036 9.3922 11.3825C9.39203 11.6613 9.33694 11.9374 9.23008 12.195C9.12321 12.4525 8.96667 12.6865 8.76938 12.8836C8.57209 13.0806 8.33791 13.2369 8.08023 13.3434C7.82255 13.45 7.5464 13.5048 7.26756 13.5046C6.98871 13.5044 6.71263 13.4493 6.45508 13.3425C5.37508 12.8925 1.95508 9.17247 1.95508 9.17247C1.95508 9.17247 7.00258 8.99997 8.08258 9.41997Z" stroke="#45413C" stroke-width="0.5" stroke-linecap="round" stroke-linejoin="round"/>
<path d="M6.45477 15C6.97492 14.7842 7.55951 14.7838 8.07992 14.999C8.60033 15.2142 9.01395 15.6274 9.22976 16.1475C9.44558 16.6677 9.44593 17.2522 9.23074 17.7727C9.01554 18.2931 8.60242 18.7067 8.08227 18.9225C7.00227 19.3725 1.94727 19.17 1.94727 19.17C1.94727 19.17 5.37477 15.4425 6.45477 15Z" stroke="#45413C" stroke-width="0.5" stroke-linecap="round" stroke-linejoin="round"/>
<path d="M9.2529 20.085C9.47369 19.5648 9.89207 19.1537 10.416 18.942C10.9399 18.7303 11.5265 18.7354 12.0466 18.9562C12.5668 19.177 12.9779 19.5954 13.1896 20.1193C13.4013 20.6433 13.3962 21.2298 13.1754 21.75C12.7254 22.83 9.0054 26.25 9.0054 26.25C9.0054 26.25 8.8029 21.165 9.2529 20.085Z" stroke="#45413C" stroke-width="0.5" stroke-linecap="round" stroke-linejoin="round"/>
<path d="M14.8252 21.75C14.6094 21.2298 14.609 20.6452 14.8242 20.1248C15.0394 19.6044 15.4525 19.1908 15.9727 18.975C16.4929 18.7592 17.0774 18.7588 17.5979 18.974C18.1183 19.1892 18.5319 19.6023 18.7477 20.1225C19.1977 21.2025 18.9952 26.2575 18.9952 26.2575C18.9952 26.2575 15.2752 22.7925 14.8252 21.75Z" stroke="#45413C" stroke-width="0.5" stroke-linecap="round" stroke-linejoin="round"/>
<path d="M19.9174 18.915C19.6467 18.8179 19.3986 18.6668 19.1881 18.4709C18.9776 18.2749 18.8091 18.0383 18.6929 17.7752C18.5766 17.5122 18.515 17.2283 18.5118 16.9408C18.5087 16.6532 18.5639 16.368 18.6743 16.1025C18.7847 15.837 18.9479 15.5966 19.154 15.3961C19.3601 15.1955 19.6048 15.0389 19.8732 14.9358C20.1417 14.8327 20.4283 14.7853 20.7156 14.7963C21.003 14.8073 21.2851 14.8766 21.5449 15C22.6249 15.45 26.0449 19.17 26.0449 19.17C26.0449 19.17 20.9974 19.365 19.9174 18.915Z" stroke="#45413C" stroke-width="0.5" stroke-linecap="round" stroke-linejoin="round"/>
<path d="M21.5455 13.3425C21.0254 13.5583 20.4408 13.5587 19.9204 13.3435C19.3999 13.1283 18.9863 12.7152 18.7705 12.195C18.5547 11.6749 18.5543 11.0903 18.7695 10.5699C18.9847 10.0494 19.3979 9.63583 19.918 9.42001C20.998 8.97001 26.053 9.17251 26.053 9.17251C26.053 9.17251 22.6255 12.8925 21.5455 13.3425Z" stroke="#45413C" stroke-width="0.5" stroke-linecap="round" stroke-linejoin="round"/>
<path d="M18.748 8.25C18.6461 8.51387 18.4925 8.7547 18.2961 8.95835C18.0998 9.162 17.8648 9.32436 17.6049 9.43588C17.3449 9.54741 17.0653 9.60585 16.7825 9.60778C16.4996 9.60971 16.2192 9.55508 15.9578 9.4471C15.6964 9.33913 15.4591 9.17999 15.2601 8.97903C15.061 8.77807 14.9041 8.53936 14.7986 8.2769C14.6931 8.01445 14.6412 7.73357 14.6458 7.45075C14.6504 7.16792 14.7115 6.88888 14.8255 6.63C15.2755 5.5425 18.9955 2.13 18.9955 2.13C18.9955 2.13 19.198 7.17 18.748 8.25Z" stroke="#45413C" stroke-width="0.5" stroke-linecap="round" stroke-linejoin="round"/>
<path d="M16.1229 6.88499C16.1229 7.44792 15.8993 7.98778 15.5013 8.38583C15.1032 8.78387 14.5634 9.00749 14.0004 9.00749C13.4375 9.00749 12.8976 8.78387 12.4996 8.38583C12.1015 7.98778 11.8779 7.44792 11.8779 6.88499C11.8779 5.71499 14.0004 1.11749 14.0004 1.11749C14.0004 1.11749 16.1229 5.71499 16.1229 6.88499Z" fill="#FFE500"/>
<path d="M10.3554 7.5C10.6959 7.90831 10.8714 8.4292 10.8474 8.96032C10.8234 9.49143 10.6016 9.99437 10.2257 10.3703C9.84976 10.7462 9.34682 10.968 8.81571 10.992C8.28459 11.016 7.7637 10.8405 7.35539 10.5C6.50039 9.69 4.77539 4.9425 4.77539 4.9425C4.77539 4.9425 9.50039 6.69 10.3554 7.5Z" fill="#FFE500"/>
<path d="M6.7177 12.045C7.28062 12.045 7.82048 12.2686 8.21853 12.6666C8.61658 13.0647 8.8402 13.6046 8.8402 14.1675C8.8402 14.7304 8.61658 15.2703 8.21853 15.6683C7.82048 16.0664 7.28062 16.29 6.7177 16.29C5.5477 16.29 0.950195 14.1675 0.950195 14.1675C0.950195 14.1675 5.5477 12.045 6.7177 12.045Z" fill="#FFE500"/>
<path d="M7.34789 17.8125C7.7562 17.472 8.27709 17.2965 8.8082 17.3205C9.33932 17.3445 9.84226 17.5662 10.2182 17.9422C10.5941 18.3181 10.8159 18.821 10.8399 19.3522C10.8639 19.8833 10.6884 20.4042 10.3479 20.8125C9.50039 21.6525 4.77539 23.3925 4.77539 23.3925C4.77539 23.3925 6.50039 18.645 7.34789 17.8125Z" fill="#FFE500"/>
<path d="M11.8779 21.45C11.8779 20.8871 12.1015 20.3472 12.4996 19.9492C12.8976 19.5511 13.4375 19.3275 14.0004 19.3275C14.5634 19.3275 15.1032 19.5511 15.5013 19.9492C15.8993 20.3472 16.1229 20.8871 16.1229 21.45C16.1229 22.6275 14.0004 27.2175 14.0004 27.2175C14.0004 27.2175 11.8779 22.6275 11.8779 21.45Z" fill="#FFE500"/>
<path d="M17.6455 20.82C17.305 20.4117 17.1295 19.8908 17.1535 19.3597C17.1775 18.8285 17.3993 18.3256 17.7752 17.9497C18.1512 17.5737 18.6541 17.352 19.1852 17.328C19.7163 17.304 20.2372 17.4795 20.6455 17.82C21.478 18.6525 23.218 23.4 23.218 23.4C23.218 23.4 18.5005 21.6525 17.6455 20.82Z" fill="#FFE500"/>
<path d="M21.2827 16.29C20.7197 16.29 20.1799 16.0664 19.7818 15.6683C19.3838 15.2703 19.1602 14.7304 19.1602 14.1675C19.1602 13.6046 19.3838 13.0647 19.7818 12.6666C20.1799 12.2686 20.7197 12.045 21.2827 12.045C22.4527 12.045 27.0502 14.1675 27.0502 14.1675C27.0502 14.1675 22.4527 16.29 21.2827 16.29Z" fill="#FFE500"/>
<path d="M20.6524 10.5C20.2441 10.8405 19.7232 11.016 19.1921 10.992C18.6609 10.968 18.158 10.7462 17.7821 10.3703C17.4061 9.99437 17.1844 9.49143 17.1604 8.96032C17.1364 8.4292 17.3119 7.90831 17.6524 7.5C18.4999 6.69 23.2249 4.9425 23.2249 4.9425C23.2249 4.9425 21.4999 9.69 20.6524 10.5Z" fill="#FFE500"/>
<path d="M14.0004 8.99997C14.5621 8.99997 15.1008 8.77738 15.4986 8.38096C15.8964 7.98453 16.1209 7.44659 16.1229 6.88497C14.7375 6.47617 13.2634 6.47617 11.8779 6.88497C11.8799 7.44659 12.1044 7.98453 12.5022 8.38096C12.9001 8.77738 13.4388 8.99997 14.0004 8.99997Z" fill="#EBCB00"/>
<path d="M10.3555 10.5C10.7494 10.1001 10.9702 9.56132 10.9702 9C10.9702 8.43868 10.7494 7.89989 10.3555 7.5C9.09213 8.1965 8.05197 9.23666 7.35547 10.5C7.75536 10.8939 8.29415 11.1147 8.85547 11.1147C9.41678 11.1147 9.95558 10.8939 10.3555 10.5Z" fill="#EBCB00"/>
<path d="M8.84023 14.1675C8.84023 13.6046 8.61661 13.0647 8.21857 12.6666C7.82052 12.2686 7.28066 12.045 6.71773 12.045C6.30893 13.4305 6.30893 14.9045 6.71773 16.29C6.99646 16.29 7.27247 16.2351 7.52998 16.1284C7.78749 16.0218 8.02148 15.8654 8.21857 15.6683C8.41566 15.4712 8.572 15.2372 8.67867 14.9797C8.78533 14.7222 8.84023 14.4462 8.84023 14.1675Z" fill="#EBCB00"/>
<path d="M10.3555 17.8125C9.95558 17.4186 9.41678 17.1978 8.85547 17.1978C8.29415 17.1978 7.75536 17.4186 7.35547 17.8125C8.05197 19.0759 9.09213 20.116 10.3555 20.8125C10.7494 20.4126 10.9702 19.8738 10.9702 19.3125C10.9702 18.7512 10.7494 18.2124 10.3555 17.8125Z" fill="#EBCB00"/>
<path d="M14.0004 19.3275C13.4375 19.3275 12.8976 19.5511 12.4996 19.9492C12.1015 20.3472 11.8779 20.8871 11.8779 21.45C13.2634 21.8588 14.7375 21.8588 16.1229 21.45C16.1229 20.8871 15.8993 20.3472 15.5013 19.9492C15.1032 19.5511 14.5634 19.3275 14.0004 19.3275Z" fill="#EBCB00"/>
<path d="M20.6524 17.8125C20.2441 17.472 19.7232 17.2965 19.1921 17.3205C18.6609 17.3445 18.158 17.5662 17.7821 17.9422C17.4061 18.3181 17.1844 18.821 17.1604 19.3522C17.1364 19.8833 17.3119 20.4042 17.6524 20.8125C18.9157 20.116 19.9559 19.0758 20.6524 17.8125Z" fill="#EBCB00"/>
<path d="M19.1602 14.1675C19.1602 14.4462 19.2151 14.7222 19.3217 14.9797C19.4284 15.2372 19.5847 15.4712 19.7818 15.6683C19.9789 15.8654 20.2129 16.0218 20.4704 16.1284C20.7279 16.2351 21.0039 16.29 21.2827 16.29C21.6915 14.9045 21.6915 13.4305 21.2827 12.045C21.0039 12.045 20.7279 12.0999 20.4704 12.2065C20.2129 12.3132 19.9789 12.4696 19.7818 12.6666C19.5847 12.8637 19.4284 13.0977 19.3217 13.3552C19.2151 13.6128 19.1602 13.8888 19.1602 14.1675Z" fill="#EBCB00"/>
<path d="M17.645 10.5C18.0449 10.8939 18.5837 11.1147 19.145 11.1147C19.7063 11.1147 20.2451 10.8939 20.645 10.5C19.9485 9.23666 18.9083 8.1965 17.645 7.5C17.2511 7.89989 17.0303 8.43868 17.0303 9C17.0303 9.56132 17.2511 10.1001 17.645 10.5Z" fill="#EBCB00"/>
<path d="M16.1229 6.88499C16.1229 7.44792 15.8993 7.98778 15.5013 8.38583C15.1032 8.78387 14.5634 9.00749 14.0004 9.00749C13.4375 9.00749 12.8976 8.78387 12.4996 8.38583C12.1015 7.98778 11.8779 7.44792 11.8779 6.88499C11.8779 5.71499 14.0004 1.11749 14.0004 1.11749C14.0004 1.11749 16.1229 5.71499 16.1229 6.88499Z" stroke="#45413C" stroke-width="0.5" stroke-linecap="round" stroke-linejoin="round"/>
<path d="M10.3554 7.5C10.6959 7.90831 10.8714 8.4292 10.8474 8.96032C10.8234 9.49143 10.6016 9.99437 10.2257 10.3703C9.84976 10.7462 9.34682 10.968 8.81571 10.992C8.28459 11.016 7.7637 10.8405 7.35539 10.5C6.50039 9.69 4.77539 4.9425 4.77539 4.9425C4.77539 4.9425 9.50039 6.69 10.3554 7.5Z" stroke="#45413C" stroke-width="0.5" stroke-linecap="round" stroke-linejoin="round"/>
<path d="M6.7177 12.045C7.28062 12.045 7.82048 12.2686 8.21853 12.6666C8.61658 13.0647 8.8402 13.6046 8.8402 14.1675C8.8402 14.7304 8.61658 15.2703 8.21853 15.6683C7.82048 16.0664 7.28062 16.29 6.7177 16.29C5.5477 16.29 0.950195 14.1675 0.950195 14.1675C0.950195 14.1675 5.5477 12.045 6.7177 12.045Z" stroke="#45413C" stroke-width="0.5" stroke-linecap="round" stroke-linejoin="round"/>
<path d="M7.34789 17.8125C7.7562 17.472 8.27709 17.2965 8.8082 17.3205C9.33932 17.3445 9.84226 17.5662 10.2182 17.9422C10.5941 18.3181 10.8159 18.821 10.8399 19.3522C10.8639 19.8833 10.6884 20.4042 10.3479 20.8125C9.50039 21.6525 4.77539 23.3925 4.77539 23.3925C4.77539 23.3925 6.50039 18.645 7.34789 17.8125Z" stroke="#45413C" stroke-width="0.5" stroke-linecap="round" stroke-linejoin="round"/>
<path d="M11.8779 21.45C11.8779 20.8871 12.1015 20.3472 12.4996 19.9492C12.8976 19.5511 13.4375 19.3275 14.0004 19.3275C14.5634 19.3275 15.1032 19.5511 15.5013 19.9492C15.8993 20.3472 16.1229 20.8871 16.1229 21.45C16.1229 22.6275 14.0004 27.2175 14.0004 27.2175C14.0004 27.2175 11.8779 22.6275 11.8779 21.45Z" stroke="#45413C" stroke-width="0.5" stroke-linecap="round" stroke-linejoin="round"/>
<path d="M17.6455 20.82C17.305 20.4117 17.1295 19.8908 17.1535 19.3597C17.1775 18.8285 17.3993 18.3256 17.7752 17.9497C18.1512 17.5737 18.6541 17.352 19.1852 17.328C19.7163 17.304 20.2372 17.4795 20.6455 17.82C21.478 18.6525 23.218 23.4 23.218 23.4C23.218 23.4 18.5005 21.6525 17.6455 20.82Z" stroke="#45413C" stroke-width="0.5" stroke-linecap="round" stroke-linejoin="round"/>
<path d="M21.2827 16.29C20.7197 16.29 20.1799 16.0664 19.7818 15.6683C19.3838 15.2703 19.1602 14.7304 19.1602 14.1675C19.1602 13.6046 19.3838 13.0647 19.7818 12.6666C20.1799 12.2686 20.7197 12.045 21.2827 12.045C22.4527 12.045 27.0502 14.1675 27.0502 14.1675C27.0502 14.1675 22.4527 16.29 21.2827 16.29Z" stroke="#45413C" stroke-width="0.5" stroke-linecap="round" stroke-linejoin="round"/>
<path d="M20.6524 10.5C20.2441 10.8405 19.7232 11.016 19.1921 10.992C18.6609 10.968 18.158 10.7462 17.7821 10.3703C17.4061 9.99437 17.1844 9.49143 17.1604 8.96032C17.1364 8.4292 17.3119 7.90831 17.6524 7.5C18.4999 6.69 23.2249 4.9425 23.2249 4.9425C23.2249 4.9425 21.4999 9.69 20.6524 10.5Z" stroke="#45413C" stroke-width="0.5" stroke-linecap="round" stroke-linejoin="round"/>
<path d="M7.625 14.1675C7.625 15.0047 7.78989 15.8336 8.11027 16.6071C8.43064 17.3805 8.90022 18.0833 9.49219 18.6753C10.0842 19.2673 10.7869 19.7368 11.5604 20.0572C12.3338 20.3776 13.1628 20.5425 14 20.5425C14.8372 20.5425 15.6662 20.3776 16.4396 20.0572C17.2131 19.7368 17.9158 19.2673 18.5078 18.6753C19.0998 18.0833 19.5694 17.3805 19.8897 16.6071C20.2101 15.8336 20.375 15.0047 20.375 14.1675C20.375 13.3303 20.2101 12.5013 19.8897 11.7279C19.5694 10.9544 19.0998 10.2516 18.5078 9.65967C17.9158 9.0677 17.2131 8.59812 16.4396 8.27775C15.6662 7.95737 14.8372 7.79248 14 7.79248C13.1628 7.79248 12.3338 7.95737 11.5604 8.27775C10.7869 8.59812 10.0842 9.0677 9.49219 9.65967C8.90022 10.2516 8.43064 10.9544 8.11027 11.7279C7.78989 12.5013 7.625 13.3303 7.625 14.1675Z" fill="#FFAA54"/>
<path d="M14 7.79248C12.7391 7.79248 11.5066 8.16637 10.4582 8.86686C9.40988 9.56736 8.59278 10.563 8.11027 11.7279C7.62776 12.8928 7.50152 14.1746 7.7475 15.4112C7.99348 16.6478 8.60064 17.7837 9.4922 18.6753C10.3838 19.5668 11.5197 20.174 12.7563 20.42C13.9929 20.666 15.2747 20.5397 16.4396 20.0572C17.6045 19.5747 18.6001 18.7576 19.3006 17.7092C20.0011 16.6609 20.375 15.4283 20.375 14.1675C20.373 12.4773 19.7007 10.857 18.5056 9.66187C17.3105 8.46675 15.6901 7.79447 14 7.79248ZM14 19.6275C12.859 19.6275 11.7436 19.289 10.795 18.655C9.84635 18.0209 9.10712 17.1197 8.67081 16.0654C8.23451 15.0111 8.12073 13.851 8.34388 12.732C8.56703 11.613 9.11707 10.5854 9.92442 9.77909C10.7318 8.97279 11.7601 8.42408 12.8794 8.20239C13.9987 7.9807 15.1586 8.09598 16.2123 8.53366C17.2661 8.97134 18.1663 9.71174 18.7992 10.6612C19.432 11.6106 19.769 12.7265 19.7675 13.8675C19.7675 14.6245 19.6183 15.3741 19.3283 16.0735C19.0384 16.7728 18.6134 17.4081 18.0778 17.9431C17.5421 18.478 16.9063 18.9022 16.2066 19.1912C15.5069 19.4802 14.757 19.6285 14 19.6275Z" fill="#FF8A14"/>
<path d="M7.625 14.1675C7.625 15.0047 7.78989 15.8336 8.11027 16.6071C8.43064 17.3805 8.90022 18.0833 9.49219 18.6753C10.0842 19.2673 10.7869 19.7368 11.5604 20.0572C12.3338 20.3776 13.1628 20.5425 14 20.5425C14.8372 20.5425 15.6662 20.3776 16.4396 20.0572C17.2131 19.7368 17.9158 19.2673 18.5078 18.6753C19.0998 18.0833 19.5694 17.3805 19.8897 16.6071C20.2101 15.8336 20.375 15.0047 20.375 14.1675C20.375 13.3303 20.2101 12.5013 19.8897 11.7279C19.5694 10.9544 19.0998 10.2516 18.5078 9.65967C17.9158 9.0677 17.2131 8.59812 16.4396 8.27775C15.6662 7.95737 14.8372 7.79248 14 7.79248C13.1628 7.79248 12.3338 7.95737 11.5604 8.27775C10.7869 8.59812 10.0842 9.0677 9.49219 9.65967C8.90022 10.2516 8.43064 10.9544 8.11027 11.7279C7.78989 12.5013 7.625 13.3303 7.625 14.1675V14.1675Z" stroke="#45413C" stroke-width="0.5" stroke-linecap="round" stroke-linejoin="round"/>
</svg>
