<svg width="116" height="118" viewBox="0 0 116 118" fill="none" xmlns="http://www.w3.org/2000/svg">
<path d="M26.1022 81.0501C24.5122 81.1049 23.3334 81.1598 22.5657 81.2146C21.853 81.2146 21.2772 81.2146 20.8386 81.2146C20.5096 81.2146 20.3451 81.1049 20.3451 80.8856C20.3451 80.6115 20.5096 80.4744 20.8386 80.4744H22.319C24.1284 80.4744 25.2524 80.0906 25.691 79.323C26.1845 78.5005 26.486 76.8831 26.5957 74.4706C26.6505 73.5385 26.6779 72.4145 26.6779 71.0986C26.7328 69.7278 26.7602 67.9185 26.7602 65.6705V24.6306C26.3764 24.6306 25.9378 24.6306 25.4443 24.6306C25.0057 24.6306 24.2929 24.658 23.3059 24.7129C22.3738 24.7129 21.6885 24.7129 21.2498 24.7129C20.8112 24.7129 20.4 24.7129 20.0162 24.7129C15.6298 24.7129 12.4771 25.7546 10.5581 27.8382C8.6939 29.8668 7.32316 33.842 6.44589 39.7636L5.78794 44.4515C5.73311 44.7256 5.56862 44.8627 5.29447 44.8627C5.02033 44.8627 4.91067 44.7256 4.9655 44.4515L5.62345 39.7636C5.8976 37.8994 6.0895 36.0077 6.19916 34.0887C6.30882 32.1697 6.36365 29.8668 6.36365 27.1802C6.36365 26.0288 6.36365 25.316 6.36365 25.0419C6.41848 24.7129 6.47331 24.521 6.52813 24.4661C6.74745 24.3017 7.73438 24.192 9.48892 24.1372C11.2435 24.0275 13.6011 23.9727 16.5619 23.9727C16.8909 23.9727 17.3569 23.9727 17.9601 23.9727C18.5632 23.9727 19.6598 23.9727 21.2498 23.9727C23.5527 24.0275 25.2524 24.0549 26.349 24.0549C27.4456 24.0549 28.3502 24.0549 29.063 24.0549C29.5565 24.0549 30.05 24.0549 30.5434 24.0549C31.0369 24.0549 31.7223 24.0549 32.5995 24.0549C34.1896 24.0001 35.6426 23.9727 36.9585 23.9727C38.2744 23.9727 39.8096 23.9727 41.5641 23.9727C44.6346 23.9727 47.0197 24.0275 48.7194 24.1372C50.4191 24.192 51.3786 24.3017 51.5979 24.4661C51.6528 24.521 51.7076 24.7129 51.7624 25.0419C51.8172 25.3708 51.8447 26.1659 51.8447 27.4269C51.8447 30.1136 51.8995 32.389 52.0091 34.2532C52.1736 36.1174 52.3655 37.9542 52.5849 39.7636L53.1606 44.4515C53.2154 44.7256 53.1331 44.8627 52.9138 44.8627C52.6945 44.8627 52.53 44.7256 52.4204 44.4515L51.6802 39.7636C50.7481 33.8968 49.3225 29.9217 47.4035 27.8382C45.5393 25.7546 42.414 24.6855 38.0276 24.6306H31.4481V65.6705C31.4481 67.9185 31.4481 69.7278 31.4481 71.0986C31.5029 72.4145 31.5578 73.5385 31.6126 74.4706C31.7223 76.8831 31.9964 78.5005 32.435 79.323C32.9285 80.0906 34.0799 80.4744 35.8893 80.4744H37.3697C37.6987 80.4744 37.8632 80.6115 37.8632 80.8856C37.8632 81.1049 37.6987 81.2146 37.3697 81.2146C36.8762 81.2146 36.2457 81.2146 35.4781 81.2146C34.7653 81.1598 33.6139 81.1049 32.0238 81.0501C30.9821 80.9953 30.2693 80.9679 29.8855 80.9679C29.5565 80.9679 29.3098 80.9679 29.1453 80.9679C28.9808 80.9679 28.7066 80.9679 28.3228 80.9679C27.939 80.9679 27.1988 80.9953 26.1022 81.0501Z" fill="#392D57"/>
<path d="M95.88 60.8181L85.9285 60.9825C84.1191 60.9825 81.3502 60.9551 77.6218 60.9003C73.9483 60.8455 71.3439 60.7906 69.8087 60.7358L67.7525 65.7527C66.7108 68.2749 65.9432 70.4406 65.4497 72.25C64.9562 74.0594 64.7095 75.5398 64.7095 76.6912C64.7095 78.0071 65.1207 78.994 65.9432 79.652C66.7656 80.2551 68.0267 80.5566 69.7264 80.5566C69.9457 80.5566 70.165 80.5566 70.3844 80.5566C70.6585 80.5018 71.0423 80.447 71.5358 80.3922C71.8099 80.3373 71.9744 80.3099 72.0292 80.3099C72.1389 80.3099 72.2211 80.3099 72.276 80.3099C72.4405 80.3099 72.5775 80.3647 72.6872 80.4744C72.7969 80.5292 72.8517 80.6115 72.8517 80.7211C72.8517 80.8856 72.7694 81.0227 72.605 81.1324C72.4405 81.1872 72.1937 81.2146 71.8648 81.2146C71.4261 81.2146 70.823 81.2146 70.0554 81.2146C69.2878 81.2146 67.9445 81.1872 66.0254 81.1324C64.6547 81.0775 63.6952 81.0501 63.1469 81.0501C62.6534 81.0501 62.297 81.0501 62.0777 81.0501C61.9132 81.0501 61.6665 81.0501 61.3375 81.0501C61.0634 81.0501 60.5699 81.0775 59.8571 81.1324C58.6509 81.1872 57.7462 81.2146 57.1431 81.2146C56.5948 81.2146 56.1013 81.2146 55.6627 81.2146C55.4982 81.2146 55.3885 81.1872 55.3337 81.1324C55.224 81.0227 55.1692 80.913 55.1692 80.8034C55.1692 80.7485 55.224 80.6937 55.3337 80.6389C55.4433 80.5292 55.553 80.4744 55.6627 80.4744H55.9916C56.9786 80.4744 57.8833 80.1728 58.7057 79.5697C59.583 78.9666 60.4602 77.9797 61.3375 76.6089C62.1599 75.2382 63.0098 73.6207 63.8871 71.7565C64.8192 69.8923 65.7787 67.754 66.7656 65.3415L83.5434 24.2194C83.5983 24.1098 83.6531 24.0549 83.7079 24.0549C83.8176 24.0001 83.9546 23.9727 84.1191 23.9727H84.7771C84.9964 23.9727 85.1609 24.0001 85.2705 24.0549C85.3802 24.0549 85.4625 24.1098 85.5173 24.2194L102.377 64.4368C103.364 66.7396 104.187 68.6587 104.845 70.1939C105.503 71.6743 106.078 72.9354 106.572 73.9771C107.833 76.4993 108.929 78.2264 109.862 79.1585C110.794 80.0358 112.082 80.4744 113.727 80.4744H114.385C114.549 80.4744 114.687 80.5018 114.796 80.5566C114.906 80.6115 114.961 80.6937 114.961 80.8034C114.961 80.913 114.906 81.0227 114.796 81.1324C114.741 81.1872 114.632 81.2146 114.467 81.2146C113.974 81.2146 113.343 81.2146 112.576 81.2146C111.863 81.1598 110.739 81.1049 109.204 81.0501C108.217 80.9953 107.531 80.9679 107.147 80.9679C106.764 80.9679 106.49 80.9679 106.325 80.9679C106.161 80.9679 105.859 80.9679 105.42 80.9679C104.982 80.9679 104.187 80.9953 103.035 81.0501C101.171 81.1049 99.8278 81.1598 99.0053 81.2146C98.1829 81.2146 97.5249 81.2146 97.0315 81.2146C96.7025 81.2146 96.5106 81.1049 96.4558 80.8856C96.4558 80.6115 96.6202 80.4744 96.9492 80.4744H99.4988C101.144 80.4744 102.021 79.9535 102.131 78.9118C102.295 77.87 101.884 75.951 100.897 73.1547C100.513 72.1129 100.047 70.8793 99.4988 69.4537C98.9505 68.0281 98.2651 66.3558 97.4427 64.4368L95.88 60.8181ZM70.0554 60.0779L85.435 59.9956H95.5511L82.5565 29.1541L70.0554 60.0779Z" fill="#392D57"/>
<line y1="33.2362" x2="115.142" y2="33.2362" stroke="white" stroke-width="0.257013"/>
<line x1="0.128506" y1="33.3647" x2="0.128508" y2="73.2017" stroke="white" stroke-width="0.257013"/>
<line x1="115.27" y1="33.1077" x2="115.27" y2="72.9447" stroke="white" stroke-width="0.257013"/>
<line y1="73.0732" x2="29.8135" y2="73.0732" stroke="white" stroke-width="0.257013"/>
<line x1="85.585" y1="73.0732" x2="115.398" y2="73.0732" stroke="white" stroke-width="0.257013"/>
<path d="M32.2197 38.5933L31.7725 39.7499C38.3726 39.3798 42.6596 39.1947 45.5433 39.1947C47.8255 39.1947 49.2288 39.3181 50.2312 39.5648C51.2644 39.8424 51.8658 40.2742 51.8658 40.9218C51.8658 41.0144 51.8658 41.1069 51.8349 41.2148V41.2303C51.8349 41.3845 51.727 41.4461 51.5882 41.4461C51.3877 41.4461 51.141 41.3382 51.0176 41.1532C51.0331 41.1069 51.0331 41.076 51.0331 41.0298C51.0331 40.6597 50.6784 40.1971 49.9536 39.9966C49.198 39.7961 48.2111 39.719 46.7769 39.719C43.9549 39.719 39.4366 40.0429 31.6029 40.4746L24.9257 57.0674C24.0004 63.3128 20.1607 68.047 20.1452 68.0624C20.0681 68.1704 19.9139 68.232 19.7751 68.232C19.6364 68.232 19.513 68.1704 19.513 68.0161C19.513 67.9545 19.5438 67.8774 19.6055 67.7694L24.0159 56.8207C24.1701 55.7104 24.2626 54.5846 24.2626 53.4744C24.2626 48.8944 22.813 44.4686 18.8653 41.6158C18.1251 41.662 17.4312 41.6929 16.7989 41.6929C14.9947 41.6929 13.761 41.5078 13.5143 41.2148C13.4218 41.1223 13.3909 41.0298 13.3909 40.9218C13.3909 40.7985 13.4681 40.6597 13.6223 40.5209C14.0232 40.1816 14.4858 39.9349 14.9947 39.8115C15.2877 39.7499 15.5807 39.7036 15.8891 39.7036C16.4905 39.7036 17.1228 39.8424 17.7859 40.12C18.1714 40.2742 18.5569 40.4901 18.9424 40.7522C22.921 40.4592 26.8841 40.0737 30.8627 39.8115L31.4024 38.4391C31.4641 38.2078 31.6337 38.0998 31.8034 38.0998C32.0192 38.0998 32.2197 38.2695 32.2197 38.5316V38.5933ZM21.9032 63.7292C22.2733 62.9273 22.6434 62.0175 22.9827 61.046L21.9032 63.7292ZM27.4393 49.1257L30.508 40.6288C26.9304 40.891 23.3836 41.2919 19.7751 41.5541C23.5224 44.7616 24.8177 49.1874 24.8177 53.8599C24.8177 54.1837 24.8177 54.5075 24.8023 54.8314L27.4393 49.1257ZM17.863 40.8293C17.755 40.7831 17.6471 40.7368 17.5546 40.6905C16.9686 40.4438 16.398 40.3204 15.8737 40.3204C15.627 40.3204 15.3648 40.3513 15.1335 40.413C14.7788 40.5055 14.4396 40.6597 14.162 40.891C14.347 40.9373 14.6555 40.9527 15.0872 40.9527C15.7657 40.9527 16.7064 40.9064 17.863 40.8293ZM34.5334 52.4412C34.5334 52.4412 33.5465 54.23 33.5465 55.3094C33.5465 55.6333 33.639 55.8954 33.8549 56.0342C33.932 56.0959 34.0554 56.1113 34.2096 56.1113C36.0138 56.1113 42.8452 53.1659 42.8452 53.1659C42.9686 53.0734 43.0765 53.0426 43.1845 53.0426C43.4621 53.0426 43.6625 53.2585 43.6625 53.4127C43.6625 53.4435 43.6625 53.4744 43.6317 53.5052C43.6163 53.5052 36.5073 56.6048 33.932 56.6048C33.5465 56.6048 33.2535 56.5431 33.1147 56.3735C32.6829 56.0959 32.5287 55.5716 32.5287 54.9856C32.5287 53.9061 33.053 52.5954 33.3306 52.1173C33.454 51.8552 33.6699 51.7472 33.9012 51.7472C34.225 51.7472 34.5489 51.9785 34.5489 52.3024C34.5489 52.3486 34.5489 52.3949 34.5334 52.4412ZM35.0886 48.8327C35.2891 48.9098 35.4124 49.1257 35.4124 49.3878C35.4124 49.4958 35.397 49.6037 35.3507 49.7117C35.2428 50.0355 34.9806 50.2514 34.7339 50.2514C34.6876 50.2514 34.6414 50.2514 34.5951 50.236C34.3946 50.1589 34.2713 49.943 34.2713 49.6808C34.2713 49.5729 34.2867 49.4649 34.333 49.357C34.4563 49.0332 34.7185 48.8173 34.9652 48.8173C35.0115 48.8173 35.0423 48.8173 35.0886 48.8327ZM47.2638 44.9467C48.0348 44.006 49.7774 40.8293 50.1629 39.7499C50.2554 39.4723 50.3017 39.3027 50.3017 39.241C50.3017 39.2256 50.2862 39.2101 50.2862 39.2101C50.0549 39.2101 47.31 44.8079 47.2638 44.9467ZM35.5594 47.0901C36.0374 47.1364 36.7314 47.1518 37.5949 47.1518C39.3992 47.1518 42.0361 47.0439 45.475 46.7663C47.4797 42.0784 49.5769 38.4854 50.5484 38.4854H50.5792C50.8722 38.5933 50.9956 38.8555 50.9956 39.2256C50.9956 40.9835 47.9731 45.178 46.8628 46.7046C48.2199 46.6121 57.3798 45.7948 58.9219 45.7948C59.0298 45.7948 59.1069 45.7948 59.1378 45.8102C59.1994 45.9027 59.2303 45.9799 59.2303 46.057C59.2303 46.6121 57.9504 47.0285 57.9504 47.0285C57.8887 47.0593 57.827 47.0747 57.7653 47.0747C57.5494 47.0747 57.3798 46.8897 57.3798 46.6738C57.3798 46.6121 57.3952 46.5504 57.4261 46.4887C57.4261 46.4887 50.2091 46.7972 46.6315 47.0901C45.3824 48.8327 41.4347 58.1006 41.4347 62.403C41.4347 63.6675 41.7894 64.5156 42.653 64.5927C42.838 64.6082 42.9151 64.7315 42.9151 64.8549C42.9151 65.0245 42.7763 65.2096 42.6067 65.2096C42.5759 65.2096 42.545 65.2096 42.5142 65.1941C41.6198 64.8086 41.2497 63.6521 41.2497 62.0329C41.2497 58.3627 43.1618 52.2715 45.2899 47.1981C42.7917 47.2135 39.7384 47.3215 37.487 47.3215C35.729 47.3215 34.4645 47.2444 34.372 47.013C34.3566 46.9822 34.3412 46.9514 34.3412 46.9205C34.3412 46.7201 34.6804 46.6429 34.8809 46.6429H34.9734C35.2047 46.6429 35.5594 46.7355 35.5594 47.0901ZM48.5386 52.4412C48.5386 52.4412 47.5517 54.23 47.5517 55.3094C47.5517 55.6333 47.6442 55.8954 47.8601 56.0342C47.9372 56.0959 48.0606 56.1113 48.2148 56.1113C50.019 56.1113 56.8504 53.1659 56.8504 53.1659C56.9738 53.0734 57.0817 53.0426 57.1897 53.0426C57.4673 53.0426 57.6677 53.2585 57.6677 53.4127C57.6677 53.4435 57.6677 53.4744 57.6369 53.5052C57.6215 53.5052 50.5125 56.6048 47.9372 56.6048C47.5517 56.6048 47.2587 56.5431 47.1199 56.3735C46.6881 56.0959 46.5339 55.5716 46.5339 54.9856C46.5339 53.9061 47.0582 52.5954 47.3358 52.1173C47.4592 51.8552 47.6751 51.7472 47.9064 51.7472C48.2302 51.7472 48.5541 51.9785 48.5541 52.3024C48.5541 52.3486 48.5541 52.3949 48.5386 52.4412ZM49.0938 48.8327C49.2942 48.9098 49.4176 49.1257 49.4176 49.3878C49.4176 49.4958 49.4022 49.6037 49.3559 49.7117C49.248 50.0355 48.9858 50.2514 48.7391 50.2514C48.6928 50.2514 48.6466 50.2514 48.6003 50.236C48.3998 50.1589 48.2765 49.943 48.2765 49.6808C48.2765 49.5729 48.2919 49.4649 48.3382 49.357C48.4615 49.0332 48.7237 48.8173 48.9704 48.8173C49.0167 48.8173 49.0475 48.8173 49.0938 48.8327Z" fill="white"/>
<path d="M64.9177 54.6155C65.0719 54.4767 65.2107 54.415 65.3186 54.415C65.5654 54.415 65.6887 54.6618 65.6887 54.9239C65.6887 54.9856 65.6733 55.0627 65.6579 55.1398C65.5654 55.4636 65.1644 55.7875 64.8714 55.7875C64.7789 55.7875 64.6864 55.7412 64.6247 55.6487C64.5784 55.587 64.563 55.5099 64.563 55.4328C64.563 55.0781 64.9177 54.6155 64.9177 54.6155Z" fill="white"/>
<path d="M91.8357 63.7446C92.0053 63.2665 92.7146 63.1586 92.8689 62.696C94.2876 58.4861 95.3208 54.7234 96.1072 51.7935C92.0516 52.1482 87.7183 53.0426 83.6627 53.4281C82.2594 55.6949 80.9023 58.0081 79.607 60.3212C79.4528 61.0768 79.2523 61.817 79.0364 62.5418C78.1112 65.6413 77.6331 67.754 76.6462 68.4788C76.4611 68.6176 76.2915 68.6947 76.1373 68.6947C75.906 68.6947 75.7518 68.4788 75.7518 68.0007C75.7518 66.9213 76.5845 64.4694 79.0827 60.2132C79.4374 58.9333 79.8537 57.4529 79.8537 56.0805C79.8537 55.294 79.7149 54.5384 79.3603 53.8753C77.3247 54.0449 75.3817 54.122 73.7934 54.122C71.4957 54.122 69.9073 53.937 69.784 53.5515C69.7531 53.4898 69.7377 53.4435 69.7377 53.3664C69.7377 52.5337 72.6831 51.0841 75.3971 51.0841C76.9392 51.0841 78.4042 51.5468 79.206 52.8421C80.6248 52.7187 82.1206 52.5799 83.6318 52.4412C87.009 47.013 90.6637 41.8008 92.8997 39.9041C92.9768 39.827 93.0539 39.7653 93.1464 39.7036C94.2876 38.8092 95.3979 38.1769 96.3231 38.0227C96.4773 37.9919 96.6315 37.9765 96.7703 37.9765C98.4049 37.9765 98.9292 39.6882 98.9292 41.8779C98.9292 45.3322 97.6339 49.9893 97.31 51.2538H97.8189C98.6208 51.2538 99.0988 51.3154 99.1451 51.4697V51.5005C99.1451 51.7781 98.4974 52.0865 96.9862 52.4566C96.1072 55.6178 94.9044 59.4113 93.3161 63.9142C93.3006 64.2226 92.9922 64.3768 92.6684 64.3768C92.2674 64.3768 91.8357 64.1609 91.8357 63.7909V63.7446ZM96.246 51.3154C96.539 50.1743 98.189 44.7616 98.189 41.3536C98.189 39.7036 97.8035 38.5316 96.7086 38.5316C96.6161 38.5316 96.5236 38.547 96.4156 38.5625C95.5829 38.7012 94.5651 39.2872 93.4703 40.1354C93.4086 40.1971 93.3469 40.2433 93.2544 40.3204C91.1109 42.1401 87.6104 47.1056 84.3103 52.3795C88.258 51.994 92.2983 51.5005 96.246 51.3154ZM97.1404 51.8552C98.1428 51.6547 98.6054 51.6547 98.6054 51.593H98.5591C98.4203 51.593 97.9269 51.6239 97.1867 51.6855L97.1404 51.8552ZM82.9841 53.4898C81.6425 53.5823 80.779 53.644 79.7612 53.8444C80.1159 54.6309 80.2238 55.3403 80.2238 56.0188C80.2238 56.9132 80.0233 57.7767 79.9 58.7328C80.8869 56.9594 81.9201 55.2169 82.9841 53.4898ZM78.543 62.2796C76.7541 65.6105 76.1219 67.3376 76.1219 67.7231C76.1219 67.7848 76.1373 67.8003 76.1527 67.8003C76.384 67.8003 77.4789 65.8264 78.5121 62.3876L78.543 62.2796ZM78.7588 52.8884C78.0186 51.9323 76.8775 51.6084 75.6901 51.6084C73.2382 51.6084 70.555 52.9655 70.555 53.0271C70.6013 53.1814 71.2181 53.2585 72.2513 53.2585C73.7163 53.2585 76.0294 53.1197 78.7588 52.8884Z" fill="white"/>
<path d="M44.3233 74.8155C44.2667 74.8155 44.1725 74.8174 44.0406 74.8211C43.9086 74.8211 43.7371 74.8249 43.526 74.8325C43.4959 74.8325 43.4808 74.8268 43.4808 74.8155C43.4808 74.8004 43.4959 74.7929 43.526 74.7929C43.6617 74.7929 43.7522 74.7759 43.7974 74.742C43.8464 74.7081 43.8804 74.644 43.8992 74.5497C43.9143 74.497 43.9256 74.431 43.9331 74.3518C43.9407 74.2727 43.9463 74.169 43.9501 74.0409C43.9539 73.9956 43.9557 73.8543 43.9557 73.6168C43.9557 73.3793 43.9557 73.0438 43.9557 72.6103C43.9557 72.5651 43.9539 72.5085 43.9501 72.4407C43.9501 72.3728 43.9501 72.256 43.9501 72.0901C43.9463 71.9054 43.9425 71.7716 43.9388 71.6887C43.9388 71.6057 43.9388 71.536 43.9388 71.4795C43.9388 71.2307 43.9218 71.0837 43.8879 71.0384C43.8577 70.9894 43.7503 70.9649 43.5656 70.9649C43.543 70.9649 43.5317 70.9574 43.5317 70.9423C43.5317 70.9235 43.543 70.914 43.5656 70.914C43.5731 70.914 43.592 70.914 43.6221 70.914C43.6561 70.914 43.7239 70.9159 43.8257 70.9197C43.9765 70.9235 44.0801 70.9253 44.1367 70.9253C44.197 70.9253 44.2366 70.9253 44.2554 70.9253C44.2667 70.9253 44.2931 70.9253 44.3346 70.9253C44.3798 70.9253 44.4646 70.9235 44.589 70.9197C44.785 70.9159 44.9226 70.914 45.0018 70.914C45.0847 70.914 45.1431 70.914 45.1771 70.914C45.7877 70.914 46.3004 71.1006 46.715 71.4738C47.1297 71.8432 47.337 72.3106 47.337 72.8761C47.337 73.4453 47.1353 73.9146 46.732 74.284C46.3287 74.6496 45.8179 74.8325 45.1997 74.8325C45.1733 74.8325 45.1318 74.8325 45.0753 74.8325C45.0225 74.8287 44.9283 74.8268 44.7926 74.8268C44.6418 74.823 44.5344 74.8211 44.4703 74.8211C44.4062 74.8174 44.3572 74.8155 44.3233 74.8155ZM45.211 74.7759C45.7161 74.7759 46.1119 74.6063 46.3984 74.267C46.6886 73.9278 46.8338 73.4641 46.8338 72.8761C46.8338 72.2956 46.683 71.8319 46.3814 71.4851C46.0799 71.1383 45.6746 70.9649 45.1658 70.9649H44.7926C44.6493 70.9649 44.557 70.9857 44.5155 71.0271C44.4741 71.0686 44.4458 71.1477 44.4307 71.2646C44.4232 71.3249 44.4175 71.3984 44.4137 71.4851C44.41 71.5718 44.4062 71.6849 44.4024 71.8244C44.4024 71.8847 44.4024 71.9544 44.4024 72.0336C44.4024 72.109 44.4024 72.2239 44.4024 72.3785V73.9221C44.4024 74.1144 44.3968 74.2878 44.3855 74.4423C44.3779 74.5931 44.3685 74.6968 44.3572 74.7533C44.376 74.7533 44.4043 74.7552 44.442 74.759C44.4835 74.759 44.557 74.7608 44.6625 74.7646C44.8246 74.7684 44.9434 74.7721 45.0187 74.7759C45.0941 74.7759 45.1582 74.7759 45.211 74.7759ZM49.8271 74.8155L49.0299 74.8325C48.9997 74.8325 48.9847 74.8268 48.9847 74.8155C48.9847 74.8004 48.9997 74.7929 49.0299 74.7929C49.1656 74.7929 49.2542 74.7759 49.2956 74.742C49.3409 74.7081 49.3748 74.6421 49.3974 74.5441C49.4087 74.4951 49.4181 74.4329 49.4257 74.3575C49.437 74.2783 49.4464 74.1728 49.454 74.0409C49.4615 73.9353 49.4672 73.7977 49.4709 73.6281C49.4747 73.4547 49.4766 73.0382 49.4766 72.3785C49.4766 72.2692 49.4766 72.1712 49.4766 72.0845C49.4766 71.994 49.4747 71.913 49.4709 71.8413C49.4709 71.7207 49.4672 71.6189 49.4596 71.536C49.4558 71.4493 49.4502 71.3758 49.4427 71.3155C49.4276 71.1836 49.4031 71.0931 49.3691 71.0441C49.3352 70.9913 49.2617 70.9649 49.1486 70.9649H49.0469C49.0242 70.9649 49.0129 70.9574 49.0129 70.9423C49.0129 70.9235 49.0242 70.914 49.0469 70.914C49.077 70.914 49.1204 70.9159 49.1769 70.9197C49.2334 70.9197 49.3239 70.9216 49.4483 70.9253C49.5275 70.9291 49.5821 70.931 49.6123 70.931C49.6424 70.931 49.6632 70.931 49.6745 70.931C49.6858 70.931 49.7291 70.931 49.8045 70.931C49.8837 70.931 50.0514 70.9291 50.3078 70.9253C50.794 70.9216 51.1314 70.9197 51.3199 70.9197C51.5083 70.9159 51.6233 70.914 51.6648 70.914C51.7326 70.914 51.7892 70.9159 51.8344 70.9197C51.8834 70.9235 51.9155 70.9291 51.9305 70.9367C51.9381 70.9404 51.955 71.029 51.9814 71.2024C52.0078 71.3758 52.0455 71.634 52.0945 71.977L52.1171 72.1806C52.1209 72.1994 52.1134 72.2089 52.0945 72.2089C52.0794 72.2089 52.0681 72.1994 52.0606 72.1806L52.0323 71.977C51.9795 71.6642 51.8476 71.421 51.6365 71.2476C51.4292 71.0742 51.1634 70.9857 50.8393 70.9819H50.1212C50.0232 70.9819 49.9628 71.0064 49.9402 71.0554C49.9214 71.1006 49.9101 71.1986 49.9063 71.3494C49.9063 71.3909 49.9044 71.4437 49.9006 71.5077C49.9006 71.5718 49.9025 71.6906 49.9063 71.864C49.9063 71.9846 49.9063 72.0826 49.9063 72.158C49.9063 72.2334 49.9063 72.3069 49.9063 72.3785V72.7686H50.3756C50.6772 72.7686 50.8958 72.7196 51.0315 72.6216C51.1672 72.5236 51.2351 72.3559 51.2351 72.1184V71.9997C51.2351 71.977 51.2445 71.9657 51.2633 71.9657C51.2822 71.9657 51.2916 71.977 51.2916 71.9997C51.2916 72.0336 51.2897 72.0864 51.2859 72.158C51.2859 72.2258 51.2822 72.3446 51.2746 72.5142C51.2709 72.6197 51.2671 72.6914 51.2633 72.7291C51.2633 72.7668 51.2633 72.7913 51.2633 72.8026C51.2633 72.8176 51.2633 72.8497 51.2633 72.8987C51.2671 72.9477 51.2709 73.0419 51.2746 73.1814C51.2822 73.3246 51.2859 73.4227 51.2859 73.4754C51.2897 73.5282 51.2916 73.5621 51.2916 73.5772C51.2916 73.5998 51.2822 73.6111 51.2633 73.6111C51.2445 73.6111 51.2351 73.5998 51.2351 73.5772V73.4924C51.2351 73.2549 51.1672 73.0872 51.0315 72.9892C50.8958 72.8874 50.6772 72.8365 50.3756 72.8365H49.9063V73.9221C49.9063 74.1144 49.9006 74.2878 49.8893 74.4423C49.8818 74.5931 49.8724 74.6968 49.8611 74.7533C49.8912 74.7533 49.9402 74.7552 50.0081 74.759C50.0759 74.759 50.2003 74.759 50.3813 74.759C50.5697 74.7627 50.6998 74.7665 50.7714 74.7703C50.8468 74.7703 50.8996 74.7703 50.9297 74.7703C51.2313 74.7703 51.4952 74.6591 51.7213 74.4367C51.9475 74.2143 52.0813 73.9447 52.1228 73.6281L52.1567 73.3284C52.1605 73.3096 52.1718 73.302 52.1906 73.3058C52.2132 73.3058 52.2227 73.3152 52.2189 73.3341L52.185 73.6394C52.136 74.0842 52.0983 74.3858 52.0719 74.5441C52.0493 74.7024 52.0285 74.791 52.0097 74.8098C52.0022 74.8174 51.9513 74.823 51.857 74.8268C51.7628 74.8306 51.563 74.8325 51.2577 74.8325C51.1257 74.8325 50.9392 74.8306 50.6979 74.8268C50.4604 74.823 50.1702 74.8193 49.8271 74.8155ZM56.6692 71.3268C56.6579 71.5379 56.6504 71.7283 56.6466 71.8979C56.6428 72.0675 56.641 72.2447 56.641 72.4294V72.4464C56.641 72.484 56.6315 72.5029 56.6127 72.5029C56.5938 72.5029 56.5844 72.484 56.5844 72.4464V72.4294C56.5844 71.8602 56.4902 71.4663 56.3017 71.2476C56.1132 71.0252 55.806 70.914 55.38 70.914C55.0672 70.914 54.8278 70.98 54.662 71.1119C54.4961 71.2401 54.4132 71.4248 54.4132 71.6661C54.4132 71.798 54.4471 71.9186 54.5149 72.0279C54.5828 72.1335 54.6902 72.2353 54.8372 72.3333C54.9089 72.3785 54.9937 72.4256 55.0917 72.4746C55.1897 72.5236 55.3518 72.5952 55.5779 72.6895C55.8041 72.7837 55.97 72.8591 56.0755 72.9157C56.1811 72.9722 56.2734 73.0287 56.3526 73.0853C56.4921 73.1833 56.5938 73.2926 56.6579 73.4132C56.7258 73.5301 56.7597 73.6601 56.7597 73.8034C56.7597 74.1162 56.641 74.3763 56.4035 74.5837C56.1698 74.7872 55.8776 74.889 55.5271 74.889C55.2745 74.889 55.054 74.8777 54.8655 74.8551C54.6808 74.8325 54.4622 74.7872 54.2096 74.7194C54.187 74.7156 54.1719 74.7099 54.1644 74.7024C54.1568 74.6949 54.1531 74.6817 54.1531 74.6628C54.1531 74.6176 54.1531 74.5497 54.1531 74.4593C54.1531 74.365 54.1531 74.1992 54.1531 73.9617C54.1493 73.7129 54.1474 73.5395 54.1474 73.4415C54.1474 73.3397 54.1474 73.2643 54.1474 73.2153C54.1474 73.1776 54.1568 73.1588 54.1757 73.1588C54.1983 73.1588 54.2096 73.1776 54.2096 73.2153C54.2096 73.7657 54.317 74.1728 54.5319 74.4367C54.7468 74.7005 55.0785 74.8325 55.5271 74.8325C55.8135 74.8325 56.0341 74.7665 56.1886 74.6346C56.3432 74.5026 56.4204 74.3141 56.4204 74.0691C56.4204 73.9372 56.3865 73.8166 56.3187 73.7073C56.2546 73.5979 56.1528 73.4962 56.0133 73.4019C55.9455 73.3567 55.8644 73.3115 55.7702 73.2662C55.676 73.2172 55.512 73.1437 55.2783 73.0457C55.0559 72.9552 54.8881 72.8817 54.775 72.8252C54.6657 72.7686 54.5696 72.7121 54.4867 72.6556C54.3397 72.5538 54.2303 72.4445 54.1587 72.3276C54.0909 72.207 54.0569 72.0751 54.0569 71.9318C54.0569 71.6152 54.1813 71.357 54.4301 71.1572C54.6827 70.9574 54.9993 70.8575 55.38 70.8575C55.5874 70.8575 55.7796 70.8688 55.9568 70.8914C56.1377 70.9103 56.3564 70.948 56.6127 71.0045C56.6391 71.012 56.6541 71.0196 56.6579 71.0271C56.6655 71.0347 56.6711 71.0479 56.6749 71.0667C56.6749 71.0818 56.6749 71.1044 56.6749 71.1346C56.6749 71.1647 56.673 71.2288 56.6692 71.3268ZM58.9171 73.368V72.3785C58.9171 72.2616 58.9171 72.1618 58.9171 72.0788C58.9171 71.9921 58.9171 71.9148 58.9171 71.847C58.9133 71.7226 58.9095 71.6189 58.9058 71.536C58.902 71.4493 58.8982 71.3758 58.8944 71.3155C58.8794 71.1798 58.8568 71.0874 58.8266 71.0384C58.7964 70.9894 58.7248 70.9649 58.6117 70.9649H58.493C58.4704 70.9649 58.4591 70.9574 58.4591 70.9423C58.4591 70.9235 58.4704 70.914 58.493 70.914C58.5269 70.914 58.5722 70.9159 58.6287 70.9197C58.6852 70.9197 58.7795 70.9216 58.9114 70.9253C58.9943 70.9291 59.049 70.931 59.0754 70.931C59.1055 70.931 59.1263 70.931 59.1376 70.931C59.1489 70.931 59.1696 70.931 59.1998 70.931C59.2299 70.931 59.2865 70.9291 59.3694 70.9253C59.4976 70.9216 59.5899 70.9197 59.6465 70.9197C59.703 70.9159 59.7464 70.914 59.7765 70.914C59.7991 70.914 59.8104 70.9235 59.8104 70.9423C59.8104 70.9574 59.7991 70.9649 59.7765 70.9649H59.6578C59.5447 70.9649 59.4731 70.9894 59.4429 71.0384C59.4128 71.0874 59.3901 71.1798 59.3751 71.3155C59.3713 71.3758 59.3675 71.4493 59.3638 71.536C59.36 71.6189 59.3562 71.7226 59.3524 71.847C59.3524 71.9148 59.3524 71.9921 59.3524 72.0788C59.3524 72.1618 59.3524 72.2616 59.3524 72.3785V73.368C59.3524 73.4849 59.3524 73.5866 59.3524 73.6733C59.3524 73.7563 59.3524 73.8317 59.3524 73.8995C59.3562 74.0239 59.36 74.1294 59.3638 74.2161C59.3675 74.2991 59.3713 74.3707 59.3751 74.431C59.3901 74.5667 59.4128 74.6591 59.4429 74.7081C59.4731 74.7571 59.5447 74.7816 59.6578 74.7816H59.7765C59.7991 74.7816 59.8104 74.791 59.8104 74.8098C59.8104 74.8249 59.7991 74.8325 59.7765 74.8325C59.7464 74.8325 59.703 74.8325 59.6465 74.8325C59.5899 74.8287 59.4976 74.8249 59.3694 74.8211C59.2865 74.8174 59.2299 74.8155 59.1998 74.8155C59.1696 74.8155 59.1489 74.8155 59.1376 74.8155C59.1263 74.8155 59.1055 74.8155 59.0754 74.8155C59.049 74.8155 58.9943 74.8174 58.9114 74.8211C58.7795 74.8249 58.6852 74.8287 58.6287 74.8325C58.5722 74.8325 58.5269 74.8325 58.493 74.8325C58.4704 74.8325 58.4591 74.8249 58.4591 74.8098C58.4591 74.791 58.4704 74.7816 58.493 74.7816H58.6117C58.7248 74.7816 58.7964 74.7571 58.8266 74.7081C58.8568 74.6591 58.8794 74.5667 58.8944 74.431C58.8982 74.3707 58.902 74.2991 58.9058 74.2161C58.9095 74.1294 58.9133 74.0239 58.9171 73.8995C58.9171 73.8317 58.9171 73.7563 58.9171 73.6733C58.9171 73.5866 58.9171 73.4849 58.9171 73.368ZM64.4823 74.7533C64.2863 74.8061 64.1298 74.8419 64.013 74.8607C63.8961 74.8796 63.783 74.889 63.6737 74.889C63.0631 74.889 62.5523 74.6986 62.1414 74.3179C61.7343 73.9334 61.5308 73.4528 61.5308 72.8761C61.5308 72.3031 61.74 71.8244 62.1584 71.4399C62.5806 71.0516 63.0932 70.8575 63.6963 70.8575C63.9301 70.8575 64.1845 70.882 64.4597 70.931C64.7349 70.98 64.9497 71.0384 65.1043 71.1063L65.1721 72.3106C65.1759 72.3333 65.1683 72.3465 65.1495 72.3502C65.1344 72.354 65.125 72.3427 65.1212 72.3163C65.1024 72.1241 65.0666 71.9525 65.0138 71.8018C64.9648 71.6472 64.8988 71.5134 64.8159 71.4003C64.6953 71.2382 64.5426 71.1176 64.3579 71.0384C64.1732 70.9555 63.9564 70.914 63.7077 70.914C63.1988 70.914 62.7935 71.0912 62.492 71.4455C62.1904 71.7999 62.0396 72.2767 62.0396 72.8761C62.0396 73.4754 62.1848 73.9523 62.475 74.3066C62.7653 74.6572 63.1611 74.8325 63.6624 74.8325C63.866 74.8325 64.0545 74.8098 64.2279 74.7646C64.405 74.7156 64.5954 74.6327 64.7989 74.5158C64.8065 74.5007 64.8102 74.4612 64.8102 74.3971C64.814 74.333 64.8159 74.1276 64.8159 73.7808C64.8159 73.6451 64.814 73.5131 64.8102 73.385C64.8102 73.2568 64.8084 73.1776 64.8046 73.1475C64.7594 73.1362 64.7009 73.1267 64.6293 73.1192C64.5615 73.1117 64.4729 73.106 64.3636 73.1022C64.2279 73.0947 64.0394 73.0891 63.7981 73.0853C63.5569 73.0815 63.3364 73.0796 63.1366 73.0796C63.1177 73.0796 63.1083 73.074 63.1083 73.0627C63.1121 73.0476 63.1234 73.0401 63.1422 73.0401C63.5983 73.0401 63.9885 73.0363 64.3127 73.0287C64.6368 73.0174 64.9365 73.0005 65.2117 72.9779C65.2192 72.9779 65.2268 72.9835 65.2343 72.9948C65.2419 73.0024 65.2456 73.0118 65.2456 73.0231C65.2419 73.2153 65.24 73.434 65.24 73.679C65.24 73.9202 65.24 74.3085 65.24 74.8438C65.24 74.8588 65.2362 74.8664 65.2287 74.8664C65.2211 74.8702 65.2098 74.8645 65.1947 74.8494C65.142 74.808 65.0798 74.7703 65.0081 74.7363C64.9365 74.6986 64.8819 74.6798 64.8442 74.6798C64.8102 74.6798 64.7688 74.6854 64.7198 74.6968C64.6745 74.7043 64.5954 74.7231 64.4823 74.7533ZM70.4901 74.8494C70.4751 74.8494 70.4543 74.8381 70.428 74.8155C70.4016 74.7891 70.3752 74.759 70.3488 74.725L67.6234 71.3211L67.6178 73.368C67.6178 73.5489 67.6234 73.711 67.6347 73.8543C67.646 73.9975 67.6611 74.1219 67.68 74.2275C67.7177 74.4197 67.7742 74.5611 67.8496 74.6515C67.925 74.7382 68.0456 74.7816 68.2115 74.7816H68.2906C68.3095 74.7816 68.3189 74.791 68.3189 74.8098C68.3189 74.8249 68.3095 74.8325 68.2906 74.8325C68.2529 74.8325 68.1945 74.8325 68.1154 74.8325C68.04 74.8325 67.9156 74.8287 67.7422 74.8211C67.6705 74.8174 67.6215 74.8155 67.5952 74.8155C67.5725 74.8155 67.5556 74.8155 67.5443 74.8155C67.533 74.8155 67.516 74.8155 67.4934 74.8155C67.4708 74.8155 67.4331 74.8174 67.3803 74.8211C67.3011 74.8249 67.2389 74.8287 67.1937 74.8325C67.1522 74.8325 67.1164 74.8325 67.0863 74.8325C67.0637 74.8325 67.0523 74.8249 67.0523 74.8098C67.0523 74.791 67.0655 74.7816 67.0919 74.7816H67.1259C67.2578 74.7778 67.3483 74.7307 67.3973 74.6402C67.45 74.5497 67.4877 74.3952 67.5103 74.1766C67.5217 74.0748 67.5292 73.9579 67.533 73.826C67.5405 73.6903 67.5443 73.5376 67.5443 73.368L67.5499 71.3381C67.5499 71.3117 67.5424 71.2835 67.5273 71.2533C67.5122 71.2231 67.4896 71.193 67.4595 71.1628C67.3841 71.0874 67.3124 71.0347 67.2446 71.0045C67.1767 70.9744 67.0995 70.9593 67.0128 70.9593H66.9901C66.9713 70.9593 66.9619 70.9517 66.9619 70.9367C66.9619 70.9216 66.9713 70.914 66.9901 70.914C67.1447 70.914 67.2861 70.9122 67.4142 70.9084C67.5462 70.9046 67.6687 70.899 67.7817 70.8914C67.8006 70.8914 67.8119 70.8914 67.8157 70.8914C67.8232 70.8914 67.8289 70.8914 67.8326 70.8914C67.8477 70.8914 67.859 70.8952 67.8666 70.9027C67.8741 70.9065 67.8816 70.914 67.8892 70.9253C67.908 70.9593 67.9363 71.0026 67.974 71.0554C68.0117 71.1082 68.0569 71.1647 68.1097 71.225L70.4619 74.1483V72.3785C70.4619 72.1976 70.4543 72.0355 70.4393 71.8922C70.428 71.7452 70.4091 71.6171 70.3827 71.5077C70.3413 71.3193 70.2791 71.1817 70.1961 71.095C70.1132 71.0083 69.9869 70.9649 69.8173 70.9649H69.7381C69.7155 70.9649 69.7042 70.9574 69.7042 70.9423C69.7042 70.9235 69.7155 70.914 69.7381 70.914C69.7721 70.914 69.8211 70.9159 69.8851 70.9197C69.953 70.9197 70.0661 70.9216 70.2244 70.9253C70.3224 70.9291 70.3884 70.931 70.4223 70.931C70.46 70.931 70.4845 70.931 70.4958 70.931C70.5071 70.931 70.5222 70.931 70.541 70.931C70.5599 70.931 70.5938 70.9291 70.6428 70.9253C70.722 70.9216 70.7823 70.9197 70.8238 70.9197C70.8652 70.9159 70.9029 70.914 70.9368 70.914C70.9595 70.914 70.9708 70.9235 70.9708 70.9423C70.9708 70.9574 70.9595 70.9649 70.9368 70.9649H70.8973C70.7804 70.9649 70.7031 70.9894 70.6654 71.0384C70.6277 71.0874 70.5995 71.1741 70.5806 71.2985C70.5693 71.3626 70.5599 71.4399 70.5523 71.5304C70.5486 71.6171 70.5448 71.7207 70.541 71.8413C70.541 71.9167 70.5392 71.9997 70.5354 72.0901C70.5354 72.1768 70.5354 72.273 70.5354 72.3785V74.7929C70.5354 74.8155 70.5316 74.8306 70.5241 74.8381C70.5165 74.8457 70.5052 74.8494 70.4901 74.8494Z" fill="white"/>
</svg>
