<svg width="36" height="36" viewBox="0 0 36 36" fill="none" xmlns="http://www.w3.org/2000/svg">
<path opacity="0.15" d="M11.625 34.125C11.625 34.2727 11.8093 34.419 12.1674 34.5555C12.5254 34.692 13.0502 34.816 13.7119 34.9205C14.3735 35.025 15.1589 35.1078 16.0234 35.1644C16.8878 35.2209 17.8143 35.25 18.75 35.25C19.6857 35.25 20.6122 35.2209 21.4766 35.1644C22.3411 35.1078 23.1265 35.025 23.7881 34.9205C24.4498 34.816 24.9746 34.692 25.3326 34.5555C25.6907 34.419 25.875 34.2727 25.875 34.125C25.875 33.9773 25.6907 33.831 25.3326 33.6945C24.9746 33.558 24.4498 33.434 23.7881 33.3295C23.1265 33.225 22.3411 33.1422 21.4766 33.0856C20.6122 33.0291 19.6857 33 18.75 33C17.8143 33 16.8878 33.0291 16.0234 33.0856C15.1589 33.1422 14.3735 33.225 13.7119 33.3295C13.0502 33.434 12.5254 33.558 12.1674 33.6945C11.8093 33.831 11.625 33.9773 11.625 34.125Z" fill="#45413C"/>
<path d="M25.8721 9.83798L31.1986 4.64363L32.9318 6.42094L27.6053 11.6153L25.8721 9.83798Z" fill="#BF8256" stroke="#45413C" stroke-width="0.5" stroke-linecap="round" stroke-linejoin="round"/>
<path d="M30.862 2.94751C30.852 2.83056 30.8092 2.71881 30.7384 2.62515C30.6677 2.53149 30.5719 2.45975 30.4621 2.41819C30.3524 2.37663 30.2331 2.36696 30.118 2.39028C30.003 2.41361 29.8969 2.46898 29.812 2.55001L27.922 4.38751C27.4083 4.86088 27.0944 5.51229 27.0442 6.20903C26.994 6.90578 27.2114 7.59544 27.652 8.13751L31.207 4.65001C31.0347 4.09564 30.9191 3.52522 30.862 2.94751Z" fill="#00B8F0" stroke="#45413C" stroke-width="0.5" stroke-linecap="round" stroke-linejoin="round"/>
<path d="M34.6273 6.81C34.7454 6.82141 34.8578 6.86634 34.9512 6.93949C35.0446 7.01263 35.1152 7.11095 35.1546 7.22286C35.194 7.33477 35.2006 7.45561 35.1736 7.57115C35.1466 7.68669 35.0872 7.79211 35.0023 7.875L33.1123 9.75C32.6288 10.2545 31.9698 10.5538 31.2718 10.5859C30.5737 10.618 29.8901 10.3805 29.3623 9.9225L32.9098 6.465C33.4697 6.63557 34.0449 6.75112 34.6273 6.81Z" fill="#00B8F0" stroke="#45413C" stroke-width="0.5" stroke-linecap="round" stroke-linejoin="round"/>
<path d="M15.8923 13.5C15.7239 12.7037 15.4 11.9484 14.9393 11.2774C14.4785 10.6064 13.8899 10.033 13.2071 9.58988C12.5243 9.14678 11.7608 8.84274 10.9604 8.69519C10.1599 8.54764 9.3382 8.55947 8.54232 8.73C4.30482 9.6075 3.38232 14.25 4.08732 17.5725C5.99982 26.3925 15.5548 30.2925 18.7498 31.3575C19.0618 31.4624 19.3963 31.4815 19.7182 31.4129C20.0401 31.3443 20.3377 31.1905 20.5798 30.9675C23.0473 28.7175 30.2323 21.2175 28.3573 12.42C27.6373 9.075 24.9148 5.25 20.6698 6.1275C19.8719 6.29765 19.1153 6.62335 18.4434 7.086C17.7714 7.54865 17.1971 8.13918 16.7535 8.82385C16.3098 9.50851 16.0054 10.2739 15.8576 11.0762C15.7099 11.8786 15.7217 12.7022 15.8923 13.5Z" fill="#FF6242"/>
<path d="M21.6221 9.0975C20.3901 9.35884 19.2603 9.97196 18.3697 10.8625C17.4791 11.7531 16.866 12.8829 16.6046 14.115C16.5791 14.2302 16.521 14.3357 16.4371 14.4187C16.3533 14.5018 16.2474 14.559 16.1319 14.5835C16.0165 14.608 15.8964 14.5988 15.7861 14.557C15.6758 14.5151 15.5798 14.4424 15.5096 14.3475C14.7702 13.328 13.7512 12.5447 12.5759 12.0921C11.4006 11.6396 10.1194 11.5373 8.88714 11.7975C5.88714 12.4425 4.43964 14.895 4.07214 17.4975C3.38964 14.16 4.32714 9.6 8.57214 8.7075C10.1783 8.37255 11.8518 8.68927 13.2245 9.588C14.5972 10.4867 15.5568 11.8939 15.8921 13.5C15.5541 11.8921 15.8671 10.2157 16.7626 8.83809C17.658 7.46047 19.063 6.49387 20.6696 6.15C24.8846 5.25 27.5921 9 28.3271 12.3525C26.9396 10.1175 24.6521 8.4525 21.6221 9.0975Z" fill="#FF866E"/>
<path d="M15.8923 13.5C15.7239 12.7037 15.4 11.9484 14.9393 11.2774C14.4785 10.6064 13.8899 10.033 13.2071 9.58988C12.5243 9.14678 11.7608 8.84274 10.9604 8.69519C10.1599 8.54764 9.3382 8.55947 8.54232 8.73C4.30482 9.6075 3.38232 14.25 4.08732 17.5725C5.99982 26.3925 15.5548 30.2925 18.7498 31.3575C19.0618 31.4624 19.3963 31.4815 19.7182 31.4129C20.0401 31.3443 20.3377 31.1905 20.5798 30.9675C23.0473 28.7175 30.2323 21.2175 28.3573 12.42C27.6373 9.075 24.9148 5.25 20.6698 6.1275C19.8719 6.29765 19.1153 6.62335 18.4434 7.086C17.7714 7.54865 17.1971 8.13918 16.7535 8.82385C16.3098 9.50851 16.0054 10.2739 15.8576 11.0762C15.7099 11.8786 15.7217 12.7022 15.8923 13.5V13.5Z" stroke="#45413C" stroke-width="0.5" stroke-linecap="round" stroke-linejoin="round"/>
<path d="M6.27692 31.38L9.53192 30.3375C9.67769 30.2883 9.80883 30.2034 9.91341 30.0905C10.018 29.9777 10.0927 29.8405 10.1307 29.6914C10.1687 29.5423 10.1688 29.3861 10.1311 29.237C10.0933 29.0878 10.0188 28.9505 9.91442 28.8375L8.54942 27.4125C8.44002 27.2985 8.30317 27.2145 8.152 27.1686C8.00082 27.1227 7.84038 27.1163 7.68606 27.1502C7.53173 27.1841 7.38869 27.257 7.27065 27.3621C7.15261 27.4671 7.06352 27.6007 7.01192 27.75L5.88692 30.9825C5.86954 31.0371 5.86737 31.0953 5.88064 31.1511C5.89391 31.2068 5.92211 31.2578 5.96222 31.2987C6.00233 31.3396 6.05283 31.3687 6.10828 31.3831C6.16373 31.3974 6.22203 31.3963 6.27692 31.38Z" fill="#C0DCEB" stroke="#45413C" stroke-width="0.5" stroke-linecap="round" stroke-linejoin="round"/>
<path d="M16.2752 21.1125C15.7691 21.1684 15.257 21.112 14.7752 20.9475L8.34766 27.2175L10.0802 28.995L16.6577 22.575C16.4052 22.1291 16.2734 21.625 16.2752 21.1125Z" fill="#BF8256" stroke="#45413C" stroke-width="0.5" stroke-linecap="round" stroke-linejoin="round"/>
<path d="M13.792 19.9275C13.792 20.6775 14.9545 21.2325 16.2745 21.1125C16.2745 22.7025 17.9545 24.4725 18.907 23.91" stroke="#45413C" stroke-width="0.5" stroke-linecap="round" stroke-linejoin="round"/>
<path d="M4.83733 7.7775C3.54867 8.04457 2.41876 8.81234 1.6959 9.91209C0.973047 11.0118 0.716389 12.3536 0.982332 13.6425" stroke="#45413C" stroke-width="0.5" stroke-linecap="round" stroke-linejoin="round"/>
<path d="M5.41516 5.63251C5.07489 5.49587 4.71103 5.42764 4.34438 5.43172C3.97773 5.43581 3.61548 5.51213 3.27835 5.65631C2.94121 5.8005 2.63581 6.00973 2.37959 6.27204C2.12338 6.53434 1.92138 6.84458 1.78516 7.18501" stroke="#45413C" stroke-width="0.5" stroke-linecap="round" stroke-linejoin="round"/>
</svg>
