<svg width="180" height="43" viewBox="0 0 180 43" fill="none" xmlns="http://www.w3.org/2000/svg">
<g clip-path="url(#clip0_1149_8665)">
<path d="M18.9523 12.5081C18.5586 9.50909 18.1429 6.34261 18.1429 2.66577H21.8571C21.8571 6.30131 21.4434 9.46376 21.0502 12.4661C20.7299 14.9129 20.4235 17.2533 20.3666 19.6569C22.2316 17.9277 23.863 16.0942 25.572 14.1736C27.6791 11.8056 29.9043 9.30528 32.829 6.70545L35.4554 9.04003C32.5633 11.6107 29.7547 13.5867 27.0884 15.4627L27.0859 15.4644C24.9141 16.9927 22.8365 18.4546 20.885 20.1177C23.579 20.0671 26.1911 19.7962 28.9272 19.5123C32.3011 19.1623 35.8636 18.7928 40 18.7928V22.0943C35.9102 22.0943 32.3524 21.7264 28.9749 21.3771L28.9724 21.3769C26.2204 21.0923 23.5882 20.8201 20.885 20.7694C22.829 22.4259 24.8906 23.8755 27.0499 25.3935L27.0533 25.3961C29.7174 27.2692 32.5304 29.247 35.4554 31.8471L32.829 34.1817C29.9369 31.611 27.714 29.1147 25.6038 26.7448L25.5988 26.7387L25.5946 26.7338C23.8775 24.8063 22.2349 22.9625 20.3666 21.2302C20.4235 23.6338 20.7299 25.9742 21.0502 28.421C21.4434 31.4234 21.8571 34.5858 21.8571 38.2213H18.1429C18.1429 34.5445 18.5586 31.378 18.9523 28.379L18.9531 28.3741C19.272 25.9437 19.5765 23.6233 19.6334 21.2302C17.7651 22.9625 16.1225 24.8063 14.4054 26.7338L14.4012 26.7387L14.3962 26.7448C12.286 29.1147 10.0631 31.611 7.17104 34.1817L4.54464 31.8471C7.46959 29.247 10.2826 27.2692 12.9467 25.3961L12.9501 25.3935C15.1094 23.8755 17.171 22.4259 19.115 20.7694C16.411 20.8202 13.7779 21.0924 11.0251 21.3771C7.6476 21.7264 4.08984 22.0943 0 22.0943V18.7928C4.13644 18.7928 7.69894 19.1623 11.0728 19.5123C13.8089 19.7962 16.421 20.0671 19.115 20.1177C17.1627 18.4539 15.0843 16.9916 12.9116 15.4627C10.2453 13.5867 7.43666 11.6107 4.54464 9.04003L7.17104 6.70545C10.0957 9.30528 12.3209 11.8056 14.428 14.1736C16.137 16.0941 17.7684 17.9276 19.6334 19.6567C19.5765 17.2637 19.272 14.9434 18.9531 12.513L18.9523 12.5081Z" fill="url(#paint0_linear_1149_8665)"/>
</g>
<path d="M53.952 9.12H57.76V28.768H69.184V32H53.952V9.12ZM81.8833 15.648H85.2433V32H81.8833V29.888H81.8193C80.9553 31.168 79.2593 32.448 76.4433 32.448C73.4033 32.448 71.0033 30.688 71.0033 26.944V15.648H74.3953V25.984C74.3953 28.192 75.3233 29.6 77.6273 29.6C80.2193 29.6 81.8833 28.032 81.8833 25.6V15.648ZM99.7078 21.632C99.5798 19.968 98.5238 17.952 95.6438 17.952C92.3478 17.952 90.9398 20.768 90.9398 23.84C90.9398 26.912 92.3158 29.728 95.6438 29.728C98.5238 29.728 99.5798 27.744 99.7078 25.92H103.068C102.812 29.696 99.8998 32.48 95.6438 32.48C90.7478 32.48 87.5798 28.96 87.5798 23.84C87.5798 18.72 90.7478 15.2 95.6118 15.2C99.8678 15.2 102.652 17.92 103.068 21.632H99.7078ZM107.176 12.896C106.248 12.896 105.288 12.256 105.288 11.104C105.288 9.952 106.248 9.344 107.176 9.344C108.168 9.344 109.096 9.952 109.096 11.104C109.096 12.256 108.168 12.896 107.176 12.896ZM105.512 15.648H108.872V32H105.512V15.648ZM123.776 9.12H127.135V32H123.776V30.112H123.712C122.848 31.232 121.248 32.48 118.72 32.48C114.528 32.48 111.424 29.216 111.424 23.84C111.424 18.464 114.528 15.2 118.72 15.2C121.248 15.2 122.848 16.384 123.712 17.632H123.776V9.12ZM119.296 29.728C122.048 29.728 123.744 27.456 123.744 23.84C123.744 20.192 122.048 17.952 119.296 17.952C116.352 17.952 114.784 20.64 114.784 23.84C114.784 27.04 116.352 29.728 119.296 29.728Z" fill="#CE2C31"/>
<path d="M133.916 11.1404C133.916 10.8464 133.891 10.5945 133.842 10.3845C133.793 10.1746 133.706 10.0031 133.58 9.87012C133.461 9.73714 133.293 9.63916 133.076 9.57617C132.859 9.51318 132.583 9.48169 132.247 9.48169C131.785 9.48169 131.193 9.53418 130.472 9.63916L130.346 8.70483C130.997 8.58586 131.708 8.46338 132.478 8.3374C133.254 8.21143 134.049 8.09595 134.861 7.99097C135.679 7.88599 136.498 7.802 137.317 7.73901C138.143 7.66903 138.934 7.63403 139.69 7.63403C140.705 7.63403 141.646 7.72502 142.514 7.90698C143.382 8.08195 144.134 8.37939 144.771 8.79932C145.408 9.21224 145.908 9.75814 146.272 10.437C146.636 11.1159 146.818 11.9592 146.818 12.967C146.818 13.8979 146.664 14.7517 146.356 15.5286C146.055 16.2984 145.625 16.9878 145.065 17.5967C144.512 18.2056 143.84 18.727 143.049 19.1609C142.258 19.5948 141.376 19.9377 140.404 20.1897C141.131 21.4355 141.793 22.5308 142.388 23.4756C142.983 24.4204 143.528 25.2498 144.025 25.9636C144.522 26.6705 144.977 27.2794 145.39 27.7903C145.803 28.2942 146.191 28.7316 146.555 29.1025C146.842 29.4035 147.112 29.6589 147.364 29.8689C147.616 30.0719 147.857 30.2363 148.088 30.3623C148.326 30.4883 148.564 30.5793 148.802 30.6353C149.04 30.6912 149.288 30.7192 149.547 30.7192C149.827 30.7192 150.093 30.6912 150.345 30.6353C150.597 30.5793 150.874 30.4953 151.175 30.3833L151.469 31.2441C150.58 31.6501 149.792 31.951 149.106 32.147C148.421 32.3499 147.847 32.4514 147.385 32.4514C147.154 32.4514 146.933 32.4234 146.723 32.3674C146.513 32.3184 146.307 32.2415 146.104 32.1365C145.901 32.0315 145.698 31.8985 145.495 31.7375C145.292 31.5696 145.075 31.3736 144.844 31.1497C144.466 30.7927 144.029 30.3098 143.532 29.7009C143.035 29.085 142.472 28.3187 141.842 27.4019C141.219 26.478 140.526 25.3862 139.763 24.1265C139 22.8667 138.16 21.411 137.244 19.7593L137.265 19.6228C138.503 19.5738 139.55 19.4023 140.404 19.1084C141.257 18.8145 141.947 18.4155 142.472 17.9116C143.004 17.4077 143.389 16.8093 143.626 16.1165C143.864 15.4166 143.983 14.6362 143.983 13.7754C143.983 12.1237 143.549 10.8884 142.682 10.0696C141.814 9.25073 140.53 8.84131 138.829 8.84131C138.465 8.84131 138.118 8.85531 137.79 8.8833C137.461 8.9113 137.097 8.94979 136.698 8.99878C136.684 9.53768 136.663 10.2585 136.635 11.1614C136.614 12.0642 136.586 13.1035 136.551 14.2793C136.523 15.4481 136.488 16.7323 136.446 18.1321C136.404 19.5248 136.362 20.984 136.32 22.5098C136.278 24.0285 136.232 25.5927 136.183 27.2024C136.134 28.8051 136.085 30.4043 136.036 32L133.548 32.3149L133.359 32.2939C133.443 30.2853 133.52 28.3817 133.59 26.583C133.66 24.7843 133.716 23.0347 133.758 21.334C133.807 19.6263 133.846 17.9396 133.874 16.2739C133.902 14.6012 133.916 12.8901 133.916 11.1404ZM160.392 21.208C160.392 20.6551 160.301 20.1757 160.119 19.7698C159.937 19.3639 159.699 19.0314 159.405 18.7725C159.111 18.5135 158.779 18.321 158.408 18.1951C158.037 18.0691 157.666 18.0061 157.295 18.0061C156.798 18.0061 156.378 18.0586 156.035 18.1636C155.692 18.2686 155.412 18.412 155.195 18.594C154.985 18.776 154.831 18.9929 154.733 19.2449C154.642 19.4898 154.597 19.7558 154.597 20.0427C154.597 20.3787 154.656 20.7181 154.775 21.061C154.901 21.397 155.083 21.7259 155.321 22.0479L155.279 22.1633C154.88 22.3593 154.478 22.4573 154.072 22.4573C153.834 22.4573 153.61 22.4223 153.4 22.3523C153.197 22.2753 153.019 22.1668 152.865 22.0269C152.718 21.8869 152.599 21.7154 152.508 21.5125C152.424 21.3095 152.382 21.082 152.382 20.8301C152.382 20.4172 152.48 20.0287 152.676 19.6648C152.879 19.3009 153.145 18.9684 153.474 18.6675C153.803 18.3665 154.184 18.0971 154.618 17.8591C155.052 17.6212 155.5 17.4217 155.962 17.2607C156.424 17.0928 156.885 16.9668 157.347 16.8828C157.816 16.7918 158.25 16.7463 158.649 16.7463C159.384 16.7463 160.01 16.8443 160.528 17.0403C161.053 17.2362 161.477 17.5232 161.799 17.9011C162.128 18.2721 162.365 18.7235 162.512 19.2554C162.666 19.7873 162.743 20.3892 162.743 21.061C162.743 21.5229 162.722 22.0304 162.68 22.5833C162.645 23.1361 162.603 23.717 162.554 24.3259C162.505 24.9278 162.46 25.5507 162.418 26.1946C162.383 26.8385 162.365 27.4788 162.365 28.1157C162.365 29.1235 162.551 29.8829 162.922 30.3938C163.3 30.8977 163.793 31.1497 164.402 31.1497C164.941 31.1497 165.543 30.9502 166.208 30.5513L166.512 31.0027C166.043 31.4716 165.532 31.8285 164.979 32.0735C164.427 32.3184 163.846 32.4409 163.237 32.4409C162.782 32.4409 162.362 32.3639 161.977 32.21C161.592 32.056 161.26 31.8285 160.98 31.5276C160.7 31.2196 160.483 30.8347 160.329 30.3728C160.175 29.9109 160.098 29.3755 160.098 28.7666C160.098 28.5846 160.101 28.4027 160.108 28.2207C160.122 28.0387 160.147 27.8463 160.182 27.6433H160.119C159.818 28.2452 159.468 28.8401 159.069 29.428C158.677 30.0089 158.243 30.5303 157.767 30.9922C157.298 31.4471 156.795 31.8145 156.256 32.0945C155.724 32.3814 155.164 32.5249 154.576 32.5249C154.093 32.5249 153.652 32.4409 153.253 32.2729C152.854 32.105 152.511 31.874 152.224 31.5801C151.944 31.2861 151.724 30.9397 151.563 30.5408C151.409 30.1348 151.332 29.6939 151.332 29.218C151.332 28.6021 151.444 28.0422 151.668 27.5383C151.899 27.0344 152.214 26.583 152.613 26.1841C153.019 25.7852 153.502 25.4422 154.062 25.1553C154.621 24.8613 155.23 24.6199 155.888 24.4309C156.546 24.2349 157.242 24.0915 157.977 24.0005C158.712 23.9025 159.461 23.8535 160.224 23.8535C160.273 23.4126 160.311 22.9857 160.339 22.5728C160.374 22.1598 160.392 21.7049 160.392 21.208ZM153.946 28.4202C153.946 28.6931 153.974 28.9556 154.03 29.2075C154.093 29.4525 154.188 29.6694 154.313 29.8584C154.446 30.0474 154.611 30.1978 154.807 30.3098C155.01 30.4148 155.251 30.4673 155.531 30.4673C155.846 30.4673 156.172 30.3938 156.508 30.2468C156.844 30.0999 157.172 29.8969 157.494 29.6379C157.823 29.379 158.135 29.071 158.429 28.7141C158.73 28.3502 158.999 27.9548 159.237 27.5278C159.475 27.1009 159.671 26.653 159.825 26.1841C159.986 25.7082 160.091 25.2218 160.14 24.7249C159.622 24.7389 159.108 24.7738 158.597 24.8298C158.086 24.8788 157.599 24.9593 157.137 25.0713C156.683 25.1833 156.259 25.3302 155.867 25.5122C155.475 25.6942 155.136 25.9216 154.849 26.1946C154.569 26.4605 154.348 26.779 154.188 27.1499C154.027 27.5138 153.946 27.9373 153.946 28.4202ZM171.026 32.0945C170.844 31.4296 170.648 30.7332 170.438 30.0054C170.236 29.2775 170.026 28.5461 169.809 27.8113C169.599 27.0764 169.385 26.3521 169.168 25.6382C168.958 24.9243 168.752 24.2454 168.549 23.6016C168.353 22.9577 168.164 22.3628 167.982 21.8169C167.807 21.264 167.649 20.7881 167.51 20.3892C167.363 19.9762 167.219 19.6403 167.079 19.3813C166.946 19.1154 166.806 18.9089 166.659 18.762C166.512 18.615 166.358 18.5135 166.197 18.4575C166.036 18.4015 165.858 18.3735 165.662 18.3735C165.438 18.3735 165.2 18.398 164.948 18.447C164.689 18.496 164.381 18.5625 164.024 18.6465L163.867 17.8906C164.287 17.7367 164.696 17.5967 165.095 17.4707C165.501 17.3447 165.875 17.2362 166.218 17.1453C166.561 17.0543 166.866 16.9843 167.132 16.9353C167.398 16.8863 167.608 16.8618 167.761 16.8618C167.943 16.8618 168.115 16.8933 168.276 16.9563C168.444 17.0193 168.605 17.1313 168.759 17.2922C168.92 17.4462 169.074 17.6632 169.221 17.9431C169.368 18.2161 169.515 18.5625 169.662 18.9824C169.76 19.2484 169.875 19.5913 170.008 20.0112C170.148 20.4242 170.299 20.8966 170.459 21.4285C170.62 21.9534 170.792 22.5273 170.974 23.1501C171.156 23.773 171.338 24.4239 171.52 25.1028C171.709 25.7747 171.894 26.464 172.076 27.1709C172.258 27.8778 172.433 28.5776 172.601 29.2705C172.951 28.3537 173.315 27.3984 173.693 26.4045C174.078 25.4037 174.466 24.3994 174.858 23.3916C175.257 22.3838 175.653 21.3865 176.044 20.3997C176.436 19.4058 176.814 18.4575 177.178 17.5547C177.241 17.4007 177.325 17.2747 177.43 17.1768C177.542 17.0788 177.665 17.0018 177.798 16.9458C177.931 16.8828 178.067 16.8408 178.207 16.8198C178.354 16.7918 178.497 16.7778 178.637 16.7778C178.868 16.7778 179.092 16.8128 179.309 16.8828C179.526 16.9458 179.733 17.0263 179.929 17.1243C179.614 17.6352 179.285 18.2056 178.942 18.8354C178.606 19.4583 178.26 20.1267 177.903 20.8406C177.546 21.5474 177.185 22.2858 176.821 23.0557C176.464 23.8255 176.107 24.6129 175.75 25.4177C175.394 26.2156 175.04 27.0204 174.69 27.8323C174.347 28.6371 174.015 29.4315 173.693 30.2153C173.364 31.0062 173.052 31.7865 172.759 32.5564C172.465 33.3333 172.178 34.0821 171.898 34.803C171.618 35.5308 171.341 36.2272 171.068 36.8921C170.802 37.564 170.529 38.1903 170.25 38.7712C169.984 39.3101 169.7 39.8105 169.399 40.2725C169.098 40.7414 168.766 41.1438 168.402 41.4797C168.038 41.8227 167.635 42.0921 167.195 42.2881C166.761 42.484 166.278 42.582 165.746 42.582C165.417 42.582 165.119 42.5365 164.854 42.4456C164.588 42.3616 164.364 42.2461 164.182 42.0991C163.993 41.9591 163.849 41.7947 163.751 41.6057C163.653 41.4167 163.604 41.2173 163.604 41.0073C163.604 40.7764 163.674 40.5349 163.814 40.283C163.947 40.038 164.126 39.8525 164.35 39.7266C164.644 39.9085 164.941 40.038 165.242 40.115C165.543 40.192 165.812 40.2305 166.05 40.2305C166.624 40.2305 167.132 40.073 167.573 39.7581C168.02 39.4501 168.44 38.9847 168.832 38.3618C169.224 37.7389 169.616 36.9586 170.008 36.0208C170.407 35.0829 170.848 33.9841 171.331 32.7244L171.541 32.168L171.026 32.0945Z" fill="#EF5F00"/>
<defs>
<linearGradient id="paint0_linear_1149_8665" x1="20" y1="2.66577" x2="20" y2="38.2213" gradientUnits="userSpaceOnUse">
<stop stop-color="#DC3E42"/>
<stop offset="0.955" stop-color="#FFBA18"/>
</linearGradient>
<clipPath id="clip0_1149_8665">
<rect width="40" height="35.5556" fill="white" transform="translate(0 2.66577)"/>
</clipPath>
</defs>
</svg>
