<svg width="20" height="20" viewBox="0 0 20 20" fill="none" xmlns="http://www.w3.org/2000/svg">
<path d="M8.94258 3.05737C8.69255 2.80741 8.35347 2.66699 7.99992 2.66699C7.64637 2.66699 7.30729 2.80741 7.05725 3.05737L1.05725 9.05737C0.807291 9.30741 0.66687 9.64649 0.66687 10C0.66687 10.3536 0.807291 10.6927 1.05725 10.9427L7.05725 16.9427C7.30872 17.1856 7.64552 17.32 7.99512 17.3169C8.34472 17.3139 8.67913 17.1737 8.92634 16.9265C9.17355 16.6793 9.31378 16.3448 9.31682 15.9952C9.31985 15.6456 9.18546 15.3088 8.94258 15.0574L5.33325 11.3334H17.9999C18.3535 11.3334 18.6927 11.1929 18.9427 10.9428C19.1928 10.6928 19.3333 10.3537 19.3333 10C19.3333 9.64642 19.1928 9.30728 18.9427 9.05723C18.6927 8.80718 18.3535 8.66671 17.9999 8.66671H5.33325L8.94258 4.94271C9.19255 4.69267 9.33297 4.35359 9.33297 4.00004C9.33297 3.64649 9.19255 3.30741 8.94258 3.05737Z" fill="#C2B5F5"/>
</svg>
