<svg width="25" height="25" viewBox="0 0 25 25" fill="none" xmlns="http://www.w3.org/2000/svg">
<path d="M21.3569 15.8652C21.5609 15.3792 20.9779 14.9652 20.4889 15.1812C19.5115 15.6102 18.4554 15.8309 17.3879 15.8292C13.2029 15.8292 9.81093 12.5052 9.81093 8.40419C9.80939 7.01953 10.2028 5.66316 10.9449 4.49419C11.2289 4.04619 10.8879 3.42619 10.3679 3.55819C6.35893 4.58119 3.39893 8.15319 3.39893 12.4022C3.39893 17.4492 7.57393 21.5402 12.7249 21.5402C16.6249 21.5402 19.9649 19.1952 21.3569 15.8652Z" fill="white"/>
<path d="M16.0099 3.6432C15.4799 3.2892 14.8479 3.9212 15.2009 4.4512L15.8309 5.3962C16.0865 5.77936 16.2229 6.22962 16.2229 6.6902C16.2229 7.15077 16.0865 7.60104 15.8309 7.9842L15.2009 8.9292C14.8479 9.4592 15.4809 10.0912 16.0109 9.7372L16.9549 9.1072C17.3381 8.85163 17.7884 8.71525 18.2489 8.71525C18.7095 8.71525 19.1598 8.85163 19.5429 9.1072L20.4879 9.7372C21.0179 10.0912 21.6499 9.4592 21.2959 8.9292L20.6659 7.9842C20.4104 7.60104 20.274 7.15077 20.274 6.6902C20.274 6.22962 20.4104 5.77936 20.6659 5.3962L21.2959 4.4512C21.6499 3.9212 21.0179 3.2892 20.4869 3.6432L19.5429 4.2732C19.1598 4.52877 18.7095 4.66515 18.2489 4.66515C17.7884 4.66515 17.3381 4.52877 16.9549 4.2732L16.0099 3.6432Z" fill="white"/>
</svg>
