<svg width="165" height="40" viewBox="0 0 165 40" fill="none" xmlns="http://www.w3.org/2000/svg">
<path d="M20 12.0003C24.4183 12.0003 28 15.582 28 20.0003C28 24.4185 24.4183 28.0002 20 28.0002C15.5817 28.0002 12 24.4185 12 20.0003C12 15.582 15.5817 12.0003 20 12.0003Z" fill="#402E7A"/>
<path d="M35.4983 17.2671C37.8166 16.8583 39.4057 14.6189 38.5158 12.4394C37.2733 9.39675 35.2911 6.68582 32.7214 4.56743C29.0469 1.53851 24.4122 -0.0800177 19.6509 0.00304961C14.8895 0.086117 10.3141 1.86544 6.74739 5.0209C4.25325 7.22756 2.36685 10.0061 1.23125 13.0902C0.417919 15.2994 2.08432 17.4821 4.41552 17.8097C6.74659 18.1373 8.83965 16.4405 9.99112 14.3871C10.6153 13.2742 11.4255 12.2645 12.3962 11.4057C14.4426 9.59515 17.0678 8.57435 19.7995 8.52662C22.5314 8.47902 25.1906 9.40755 27.2989 11.1455C28.299 11.9699 29.1439 12.9507 29.8066 14.0413C31.0289 16.0531 33.1799 17.6759 35.4983 17.2671Z" fill="#402E7A"/>
<path d="M0.154661 17.501C0.0525303 18.3198 -1.82244e-06 19.1539 -1.74845e-06 20.0003C-7.82808e-07 31.046 8.95427 40.0002 20 40.0002C31.0457 40.0002 40 31.046 40 20.0003C40 18.9141 39.9134 17.8481 39.7467 16.8087C38.8281 18.0663 37.3943 18.9641 35.8457 19.2371C34.1701 19.5326 32.6472 19.1262 31.3596 18.3666C31.4357 18.9002 31.4751 19.4457 31.4751 20.0003C31.4751 26.3378 26.3375 31.4753 20 31.4753C13.6625 31.4753 8.52493 26.3378 8.52493 20.0003C8.52493 19.5825 8.54733 19.1698 8.5908 18.7635C7.3304 19.5679 5.8224 20.0275 4.1372 19.7906C2.5804 19.5718 1.11666 18.7251 0.154661 17.501Z" fill="#4C3BCF"/>
<path d="M64.32 32.48C57.408 32.48 53.088 27.424 53.088 20.544C53.088 13.664 57.408 8.64 64.32 8.64C71.2 8.64 75.552 13.664 75.552 20.544C75.552 27.424 71.2 32.48 64.32 32.48ZM64.32 29.216C69.568 29.216 71.744 25.184 71.744 20.544C71.744 15.936 69.568 11.904 64.32 11.904C59.072 11.904 56.864 15.936 56.864 20.544C56.864 25.184 59.072 29.216 64.32 29.216ZM87.025 15.2C90.065 15.2 92.465 16.96 92.465 20.704V32H89.073V21.664C89.073 19.456 88.145 18.048 85.841 18.048C83.249 18.048 81.585 19.616 81.585 22.048V32H78.225V15.648H81.585V17.76H81.649C82.513 16.48 84.209 15.2 87.025 15.2ZM103.033 18.4H99.961V27.264C99.961 29.12 100.857 29.344 103.033 29.216V31.968C102.361 32.128 101.625 32.224 100.729 32.224C98.041 32.224 96.569 31.008 96.569 27.552V18.4H94.201V15.648H96.569V10.496H99.961V15.648H103.033V18.4ZM112.551 29.728C115.335 29.728 116.455 28 116.743 27.008H120.103C119.271 30.112 116.839 32.48 112.647 32.48C107.559 32.48 104.455 28.96 104.455 23.84C104.455 18.528 107.559 15.2 112.487 15.2C117.767 15.2 120.359 18.88 120.359 24.704H107.815C107.815 27.456 109.575 29.728 112.551 29.728ZM112.487 17.856C109.767 17.856 107.815 19.68 107.815 22.208H116.999C116.999 19.68 115.207 17.856 112.487 17.856ZM130.439 15.264C131.015 15.264 131.431 15.296 131.911 15.36V18.528H131.847C128.615 17.984 126.023 20.16 126.023 23.648V32H122.663V15.648H126.023V18.72H126.087C126.951 16.672 128.295 15.264 130.439 15.264ZM140.77 29.728C143.554 29.728 144.674 28 144.962 27.008H148.322C147.49 30.112 145.058 32.48 140.866 32.48C135.778 32.48 132.674 28.96 132.674 23.84C132.674 18.528 135.778 15.2 140.706 15.2C145.986 15.2 148.578 18.88 148.578 24.704H136.034C136.034 27.456 137.794 29.728 140.77 29.728ZM140.706 17.856C137.986 17.856 136.034 19.68 136.034 22.208H145.218C145.218 19.68 143.426 17.856 140.706 17.856ZM157.953 22.112C160.961 22.816 164.225 23.488 164.225 27.392C164.225 30.528 161.537 32.48 157.569 32.48C152.289 32.48 150.017 30.016 149.857 26.56H153.121C153.281 28.32 154.049 29.824 157.505 29.824C159.841 29.824 160.833 28.672 160.833 27.648C160.833 25.6 158.881 25.44 156.481 24.864C153.889 24.256 150.369 23.744 150.369 20.032C150.369 17.344 152.737 15.2 156.833 15.2C161.281 15.2 163.393 17.6 163.617 20.448H160.353C160.129 19.168 159.489 17.856 156.865 17.856C154.849 17.856 153.761 18.624 153.761 19.776C153.761 21.44 155.585 21.568 157.953 22.112Z" fill="#402E7A"/>
</svg>
