<svg width="20" height="20" viewBox="0 0 20 20" fill="none" xmlns="http://www.w3.org/2000/svg">
<path d="M11.1039 8.89603L4.53378 15.4662M5.24284 10.6979L2.02467 9.93778C1.67061 9.85414 1.54608 9.41458 1.80257 9.15717L4.36186 6.59787C4.53378 6.42595 4.76704 6.32745 5.01144 6.32559L7.89692 6.3005M11.5314 2.99869C13.679 4.46327 15.5367 6.32094 17.0013 8.46856M9.30109 14.7571L10.0613 17.9753C10.1449 18.3294 10.5845 18.4539 10.8419 18.1974L13.4012 15.6381C13.5731 15.4662 13.6716 15.2329 13.6735 14.9885L13.6985 12.103M17.5523 6.95844L18.3032 3.34532C18.5077 2.36212 17.6378 1.4923 16.6546 1.69674L13.0415 2.44762C11.9775 2.66879 11.0017 3.19571 10.2341 3.96424L7.26964 6.92778C6.13868 8.05873 5.40268 9.52517 5.17035 11.1078L5.16013 11.1756C5.0133 12.1858 5.35157 13.2052 6.0727 13.9273C6.79384 14.6484 7.81421 14.9867 8.82436 14.8389L8.8922 14.8287C10.4748 14.5973 11.9412 13.8604 13.0722 12.7294L16.0357 9.76586C16.8043 8.99826 17.3312 8.02249 17.5523 6.95844Z" stroke="white" stroke-width="1.5" stroke-linecap="round" stroke-linejoin="round"/>
</svg>
