<svg width="149" height="40" viewBox="0 0 149 40" fill="none" xmlns="http://www.w3.org/2000/svg">
<g clip-path="url(#clip0_1122_17679)">
<path d="M19.2204 39.6745L18.4331 38.8881L16.8566 37.3116L15.28 35.7351L13.7035 34.1586L12.127 32.582L10.5505 31.0055L8.97396 29.429L7.39744 27.8525L5.82092 26.276L4.2444 24.6994L3.45707 23.913C3.35332 23.8097 3.271 23.6868 3.21484 23.5515C3.15867 23.4163 3.12976 23.2712 3.12976 23.1248C3.12976 22.9783 3.15867 22.8333 3.21484 22.698C3.271 22.5628 3.35332 22.4399 3.45707 22.3365C3.56045 22.2328 3.6833 22.1505 3.81857 22.0943C3.95384 22.0381 4.09886 22.0092 4.24533 22.0092C4.39179 22.0092 4.53681 22.0381 4.67208 22.0943C4.80735 22.1505 4.9302 22.2328 5.03359 22.3365L5.82092 23.1229L7.39744 24.6994L8.97396 26.276L10.5505 27.8525L12.127 29.429L13.7035 31.0055L15.28 32.582L16.0674 33.3694C16.1707 33.4731 16.2936 33.5554 16.4289 33.6116C16.5641 33.6678 16.7092 33.6967 16.8556 33.6967C17.0021 33.6967 17.1471 33.6678 17.2824 33.6116C17.4176 33.5554 17.5405 33.4731 17.6439 33.3694C17.7476 33.266 17.8299 33.1431 17.8861 33.0079C17.9423 32.8726 17.9712 32.7276 17.9712 32.5811C17.9712 32.4346 17.9423 32.2896 17.8861 32.1544C17.8299 32.0191 17.7476 31.8962 17.6439 31.7929L16.8566 31.0064L15.28 29.4299L13.7035 27.8534L12.127 26.2769L10.5505 24.7004L8.97396 23.1238L7.39744 21.5473L5.82092 19.9708L5.03359 19.1844C4.92984 19.081 4.84752 18.9582 4.79135 18.8229C4.73519 18.6876 4.70627 18.5426 4.70627 18.3961C4.70627 18.2497 4.73519 18.1047 4.79135 17.9694C4.84752 17.8341 4.92984 17.7113 5.03359 17.6079C5.13697 17.5041 5.25982 17.4218 5.39509 17.3657C5.53036 17.3095 5.67538 17.2806 5.82184 17.2806C5.96831 17.2806 6.11333 17.3095 6.2486 17.3657C6.38387 17.4218 6.50672 17.5041 6.6101 17.6079L7.39744 18.3952L8.97396 19.9717L10.5505 21.5483L12.127 23.1248L13.7035 24.7013L15.28 26.2778L16.8566 27.8543L18.4331 29.4309L19.2204 30.2182C19.3238 30.3219 19.4466 30.4042 19.5819 30.4604C19.7172 30.5166 19.8622 30.5455 20.0087 30.5455C20.1551 30.5455 20.3002 30.5166 20.4354 30.4604C20.5707 30.4042 20.6935 30.3219 20.7969 30.2182C20.9007 30.1148 20.983 29.992 21.0392 29.8567C21.0953 29.7214 21.1242 29.5764 21.1242 29.4299C21.1242 29.2835 21.0953 29.1384 21.0392 29.0032C20.983 28.8679 20.9007 28.7451 20.7969 28.6417L20.0096 27.8553L18.4331 26.2787L16.8566 24.7022L15.28 23.1257L13.7035 21.5492L12.127 19.9727L10.5505 18.3961L8.97396 16.8196L7.39744 15.2431L5.84225 13.7148L5.83668 13.7092L5.05491 12.9275C4.84586 12.7184 4.72841 12.4349 4.72841 12.1392C4.72841 11.8436 4.84586 11.56 5.05491 11.351C5.26397 11.1419 5.54752 11.0245 5.84317 11.0245C6.13883 11.0245 6.42237 11.1419 6.63143 11.351L7.4132 12.1327L8.98972 13.7092L10.5662 15.2858L12.1428 16.8623L13.7193 18.4388L15.2958 20.0153L16.8723 21.5918L18.4488 23.1684L20.0254 24.7449L21.6019 26.3214L22.3892 27.1078C22.4926 27.2116 22.6154 27.2939 22.7507 27.35C22.886 27.4062 23.031 27.4351 23.1775 27.4351C23.3239 27.4351 23.469 27.4062 23.6042 27.35C23.7395 27.2939 23.8623 27.2116 23.9657 27.1078C24.0695 27.0044 24.1518 26.8816 24.208 26.7463C24.2641 26.611 24.293 26.466 24.293 26.3195C24.293 26.1731 24.2641 26.0281 24.208 25.8928C24.1518 25.7575 24.0695 25.6347 23.9657 25.5313L23.1784 24.7449L21.6019 23.1684L20.0254 21.5918L18.4488 20.0153L16.8723 18.4388L15.2958 16.8623L13.7193 15.2858L12.1428 13.7092L10.5662 12.1327L9.77891 11.3463C9.67516 11.2429 9.59284 11.1201 9.53668 10.9848C9.48051 10.8496 9.4516 10.7045 9.4516 10.5581C9.4516 10.4116 9.48051 10.2666 9.53668 10.1313C9.59284 9.99604 9.67516 9.87319 9.77891 9.7698C9.88229 9.66606 10.0051 9.58374 10.1404 9.52757C10.2757 9.47141 10.4207 9.4425 10.5672 9.4425C10.7136 9.4425 10.8587 9.47141 10.9939 9.52757C11.1292 9.58374 11.252 9.66606 11.3554 9.7698L12.1418 10.5562L13.7184 12.1327L15.2949 13.7092L16.0822 14.4957C16.1856 14.5994 16.3084 14.6817 16.4437 14.7379C16.579 14.7941 16.724 14.823 16.8705 14.823C17.0169 14.823 17.1619 14.7941 17.2972 14.7379C17.4325 14.6817 17.5553 14.5994 17.6587 14.4957C17.7625 14.3923 17.8448 14.2694 17.901 14.1342C17.9571 13.9989 17.986 13.8539 17.986 13.7074C17.986 13.5609 17.9571 13.4159 17.901 13.2806C17.8448 13.1454 17.7625 13.0225 17.6587 12.9191L16.8714 12.1327L15.2949 10.5562L13.7184 8.97969L12.1307 7.41894L11.3434 6.63253C11.2396 6.52915 11.1573 6.4063 11.1011 6.27103C11.045 6.13576 11.0161 5.99074 11.0161 5.84427C11.0161 5.69781 11.045 5.55278 11.1011 5.41752C11.1573 5.28225 11.2396 5.1594 11.3434 5.05601C11.4468 4.95227 11.5696 4.86995 11.7049 4.81378C11.8401 4.75762 11.9852 4.7287 12.1316 4.7287C12.2781 4.7287 12.4231 4.75762 12.5584 4.81378C12.6937 4.86995 12.8165 4.95227 12.9199 5.05601L13.7017 5.83685L13.7063 5.84242L15.2735 7.41059L16.8501 8.98711L18.4266 10.5636L19.2139 11.35C19.3173 11.4538 19.4401 11.5361 19.5754 11.5923C19.7107 11.6484 19.8557 11.6773 20.0022 11.6773C20.1486 11.6773 20.2937 11.6484 20.4289 11.5923C20.5642 11.5361 20.687 11.4538 20.7904 11.35C20.8942 11.2466 20.9765 11.1238 21.0327 10.9885C21.0888 10.8533 21.1177 10.7082 21.1177 10.5618C21.1177 10.4153 21.0888 10.2703 21.0327 10.135C20.9765 9.99975 20.8942 9.8769 20.7904 9.77351L20.0031 8.98711L18.4266 7.41059L17.6392 6.62419C17.5355 6.5208 17.4532 6.39795 17.397 6.26268C17.3408 6.12742 17.3119 5.98239 17.3119 5.83593C17.3119 5.68946 17.3408 5.54444 17.397 5.40917C17.4532 5.2739 17.5355 5.15105 17.6392 5.04767C17.7426 4.94392 17.8655 4.8616 18.0007 4.80544C18.136 4.74927 18.281 4.72036 18.4275 4.72036C18.574 4.72036 18.719 4.74927 18.8543 4.80544C18.9895 4.8616 19.1124 4.94392 19.2158 5.04767L20.0031 5.83407L21.5796 7.41059L22.3669 8.19699C22.4703 8.30074 22.5932 8.38306 22.7285 8.43923C22.8637 8.49539 23.0087 8.5243 23.1552 8.5243C23.3017 8.5243 23.4467 8.49539 23.582 8.43923C23.7172 8.38306 23.8401 8.30074 23.9435 8.19699C24.0472 8.09361 24.1295 7.97076 24.1857 7.83549C24.2419 7.70023 24.2708 7.5552 24.2708 7.40874C24.2708 7.26227 24.2419 7.11725 24.1857 6.98198C24.1295 6.84671 24.0472 6.72386 23.9435 6.62048C23.8397 6.51709 23.7574 6.39424 23.7012 6.25897C23.6451 6.12371 23.6162 5.97868 23.6162 5.83222C23.6162 5.68575 23.6451 5.54073 23.7012 5.40546C23.7574 5.27019 23.8397 5.14734 23.9435 5.04396C24.0469 4.94021 24.1697 4.85789 24.305 4.80173C24.4402 4.74556 24.5853 4.71665 24.7317 4.71665C24.8782 4.71665 25.0232 4.74556 25.1585 4.80173C25.2938 4.85789 25.4166 4.94021 25.52 5.04396L26.3073 5.83129L27.0947 6.61769C27.1984 6.72108 27.2807 6.84393 27.3369 6.9792C27.393 7.11446 27.422 7.25949 27.422 7.40595C27.422 7.55242 27.393 7.69744 27.3369 7.83271C27.2807 7.96798 27.1984 8.09083 27.0947 8.19421L26.3082 8.98155L24.7317 10.5581L23.1552 12.1346L21.5787 13.7111L20.0022 15.2876L19.2158 16.075C19.112 16.1783 19.0297 16.3012 18.9735 16.4365C18.9174 16.5717 18.8885 16.7167 18.8885 16.8632C18.8885 17.0097 18.9174 17.1547 18.9735 17.29C19.0297 17.4252 19.112 17.5481 19.2158 17.6515C19.3192 17.7552 19.442 17.8375 19.5773 17.8937C19.7125 17.9499 19.8576 17.9788 20.004 17.9788C20.1505 17.9788 20.2955 17.9499 20.4308 17.8937C20.566 17.8375 20.6889 17.7552 20.7923 17.6515L21.5796 16.8641L23.1561 15.2876L24.7327 13.7111L25.52 12.9238C25.6234 12.82 25.7462 12.7377 25.8815 12.6815C26.0168 12.6254 26.1618 12.5965 26.3082 12.5965C26.4547 12.5965 26.5997 12.6254 26.735 12.6815C26.8703 12.7377 26.9931 12.82 27.0965 12.9238C27.2003 13.0272 27.2826 13.15 27.3387 13.2853C27.3949 13.4205 27.4238 13.5656 27.4238 13.712C27.4238 13.8585 27.3949 14.0035 27.3387 14.1388C27.2826 14.2741 27.2003 14.3969 27.0965 14.5003L26.3101 15.2876L24.7336 16.8641L23.1571 18.4407L22.3707 19.228C22.1616 19.4371 22.0441 19.7206 22.0441 20.0163C22.0441 20.3119 22.1616 20.5955 22.3707 20.8045C22.5797 21.0136 22.8633 21.131 23.1589 21.131C23.4546 21.131 23.7381 21.0136 23.9472 20.8045L24.7336 20.0172L26.3101 18.4407L27.8866 16.8641L29.4631 15.2876L31.0397 13.7111L31.8261 12.9238C31.9295 12.82 32.0523 12.7377 32.1876 12.6815C32.3228 12.6254 32.4679 12.5965 32.6143 12.5965C32.7608 12.5965 32.9058 12.6254 33.0411 12.6815C33.1763 12.7377 33.2992 12.82 33.4026 12.9238C33.5063 13.0272 33.5886 13.15 33.6448 13.2853C33.701 13.4205 33.7299 13.5656 33.7299 13.712C33.7299 13.8585 33.701 14.0035 33.6448 14.1388C33.5886 14.2741 33.5063 14.3969 33.4026 14.5003L32.6162 15.2876L31.0397 16.8641L29.4631 18.4407L27.8866 20.0172L26.3101 21.5937L25.5237 22.381C25.42 22.4844 25.3376 22.6073 25.2815 22.7425C25.2253 22.8778 25.1964 23.0228 25.1964 23.1693C25.1964 23.3158 25.2253 23.4608 25.2815 23.596C25.3376 23.7313 25.42 23.8542 25.5237 23.9576C25.6271 24.0613 25.7499 24.1436 25.8852 24.1998C26.0205 24.2559 26.1655 24.2849 26.312 24.2849C26.4584 24.2849 26.6034 24.2559 26.7387 24.1998C26.874 24.1436 26.9968 24.0613 27.1002 23.9576L27.8866 23.1702L29.4631 21.5937L30.2495 20.8064C30.4586 20.5973 30.7422 20.4799 31.0378 20.4799C31.3335 20.4799 31.617 20.5973 31.8261 20.8064C32.0351 21.0154 32.1526 21.299 32.1526 21.5946C32.1526 21.8903 32.0351 22.1738 31.8261 22.3829L31.0387 23.1702L29.4622 24.7467L27.8857 26.3233L26.3092 27.8998L24.7327 29.4763L23.1561 31.0528L21.5796 32.6293L20.0031 34.2059L19.2167 34.9932C19.1129 35.0966 19.0306 35.2194 18.9745 35.3547C18.9183 35.49 18.8894 35.635 18.8894 35.7814C18.8894 35.9279 18.9183 36.0729 18.9745 36.2082C19.0306 36.3435 19.1129 36.4663 19.2167 36.5697C19.3201 36.6734 19.4429 36.7558 19.5782 36.8119C19.7135 36.8681 19.8585 36.897 20.005 36.897C20.1514 36.897 20.2964 36.8681 20.4317 36.8119C20.567 36.7558 20.6898 36.6734 20.7932 36.5697L21.5796 35.7824L23.1561 34.2059L24.7327 32.6293L26.3092 31.0528L27.8857 29.4763L29.4622 27.8998L31.0387 26.3233L32.6152 24.7467L34.1918 23.1702L34.9782 22.3829C35.0816 22.2791 35.2044 22.1968 35.3397 22.1407C35.4749 22.0845 35.62 22.0556 35.7664 22.0556C35.9129 22.0556 36.0579 22.0845 36.1932 22.1407C36.3285 22.1968 36.4513 22.2791 36.5547 22.3829C36.6584 22.4863 36.7408 22.6091 36.7969 22.7444C36.8531 22.8797 36.882 23.0247 36.882 23.1711C36.882 23.3176 36.8531 23.4626 36.7969 23.5979C36.7408 23.7332 36.6584 23.856 36.5547 23.9594L35.7683 24.7467L34.1918 26.3233L32.6152 27.8998L31.0387 29.4763L29.4622 31.0528L27.8857 32.6293L26.3092 34.2059L24.7327 35.7824L23.1561 37.3589L21.5796 38.9354L20.7932 39.7227C20.6898 39.8265 20.567 39.9088 20.4317 39.965C20.2964 40.0211 20.1514 40.0501 20.005 40.0501C19.8585 40.0501 19.7135 40.0211 19.5782 39.965C19.4429 39.9088 19.3201 39.8265 19.2167 39.7227L19.2204 39.6745ZM54.3527 25.2707L57.1014 23.8481C57.2868 25.3644 58.6427 26.3604 60.5864 26.3594C62.2455 26.3594 63.3351 25.7418 63.3351 24.6512C63.3351 23.7035 62.5292 23.2528 61.3877 23.0404L59.0887 22.5906C56.6943 22.1418 54.9156 20.9334 54.9156 18.8227C54.9156 16.4051 57.2127 14.7692 60.2943 14.7674C62.9493 14.7674 65.2492 15.9729 66.0087 18.0595L63.3769 19.4589C63.235 18.2264 61.9784 17.326 60.2711 17.326C58.8968 17.326 58.0195 17.9195 58.0195 18.7013C58.0195 19.3652 58.6835 19.6286 59.8454 19.8623L61.9784 20.2648C63.4714 20.5727 66.388 21.2589 66.3889 24.3869C66.3889 27.2553 63.9778 28.9152 60.5354 28.9162C57.2451 28.9208 54.9453 27.4046 54.3527 25.2707ZM67.4192 24.0336V15.0502H70.5009V23.0858C70.5009 25.0769 71.4746 26.1675 73.2514 26.1665C75.7164 26.1665 77.0907 24.0336 77.0898 20.9974V15.0474H80.1705L80.1751 28.6287H77.0954V26.5226C76.5534 27.2707 75.8404 27.8784 75.016 28.2951C74.1915 28.7118 73.2794 28.9254 72.3556 28.918C71.7026 28.9527 71.0496 28.8506 70.4385 28.6181C69.8273 28.3856 69.2715 28.0279 68.8067 27.568C68.3419 27.1081 67.9784 26.5561 67.7394 25.9474C67.5005 25.3388 67.3914 24.6869 67.4192 24.0336ZM90.2723 21.845C90.2723 17.5791 93.0664 14.7562 97.144 14.7553C101.065 14.7553 103.526 17.3798 103.524 21.7309C103.524 21.9826 103.516 22.2401 103.499 22.5034H93.4967C93.4967 22.5192 93.4967 22.535 93.4967 22.5507C93.4794 23.0357 93.5631 23.519 93.7423 23.97C93.9215 24.4209 94.1925 24.8298 94.538 25.1706C94.8835 25.5114 95.296 25.7767 95.7494 25.9497C96.2028 26.1228 96.6872 26.1997 97.1719 26.1758C97.9183 26.2198 98.6558 25.9953 99.2511 25.5429C99.8464 25.0904 100.26 24.44 100.418 23.709L103.143 24.9146C102.697 26.1348 101.872 27.1801 100.789 27.8977C99.7056 28.6152 98.4212 28.9672 97.1236 28.9023C93.0748 28.9078 90.2769 26.0877 90.275 21.845H90.2723ZM93.6377 20.0895H100.345C100.244 19.3247 99.8532 18.6279 99.2532 18.143C98.6532 17.6581 97.8899 17.4221 97.1208 17.4836C96.3247 17.4285 95.5352 17.6614 94.8963 18.1397C94.2575 18.6181 93.8118 19.31 93.6404 20.0895H93.6377ZM105.592 24.7783V17.3835H103.506V15.0372H105.591V13.4014L108.672 11.0301V15.0363H111.655V17.3825H108.675V24.616C108.675 25.8216 109.149 26.2036 109.788 26.2036C110.055 26.1985 110.317 26.1366 110.558 26.0221C110.8 25.9076 111.014 25.7432 111.186 25.5396L111.804 28.076C111.111 28.6615 110.221 28.9601 109.315 28.9106C106.947 28.9023 105.596 27.3387 105.595 24.7783H105.592ZM121.1 21.8339C121.1 17.568 123.894 14.7451 127.971 14.7442C132.12 14.7442 134.634 17.6811 134.327 22.4932H124.323C124.3 22.9821 124.379 23.4704 124.555 23.9269C124.732 24.3834 125.002 24.7979 125.348 25.1438C125.694 25.4898 126.109 25.7595 126.565 25.9356C127.022 26.1117 127.51 26.1904 127.999 26.1665C128.746 26.2109 129.484 25.9866 130.079 25.5341C130.674 25.0816 131.088 24.4309 131.245 23.6997L133.972 24.9053C133.526 26.1254 132.701 27.1706 131.618 27.8881C130.535 28.6056 129.251 28.9578 127.954 28.893C123.902 28.8967 121.103 26.0766 121.102 21.8339H121.1ZM124.465 20.0784H131.174C131.072 19.3137 130.681 18.617 130.081 18.1322C129.481 17.6473 128.718 17.4112 127.949 17.4725C127.153 17.4174 126.363 17.6502 125.724 18.1285C125.085 18.6068 124.639 19.2988 124.468 20.0784H124.465ZM135.335 21.8283C135.335 17.5624 138.129 14.7395 142.206 14.7386C146.354 14.7386 148.867 17.6756 148.561 22.4877H138.558C138.534 22.9765 138.613 23.4648 138.789 23.9214C138.965 24.3779 139.235 24.7925 139.581 25.1385C139.927 25.4845 140.342 25.7542 140.799 25.9303C141.255 26.1064 141.744 26.185 142.232 26.161C142.979 26.2052 143.717 25.9807 144.312 25.5283C144.907 25.0758 145.321 24.4252 145.478 23.6942L148.205 24.8998C147.758 26.12 146.933 27.1653 145.85 27.8828C144.767 28.6004 143.483 28.9524 142.185 28.8874C138.137 28.8911 135.338 26.071 135.338 21.8283H135.335ZM138.7 20.0728H145.407C145.306 19.3079 144.915 18.611 144.315 18.126C143.715 17.6411 142.951 17.4051 142.182 17.4669C141.386 17.4121 140.597 17.645 139.958 18.1234C139.32 18.6017 138.874 19.2935 138.703 20.0728H138.7ZM81.7785 15.0456H84.8602V17.108C85.2306 16.4232 85.7729 15.8466 86.4336 15.4349C87.0944 15.0232 87.851 14.7906 88.629 14.76C89.1632 14.7416 89.6946 14.8463 90.1819 15.066C90.6693 15.2856 91.0997 15.6143 91.4398 16.0267C90.7747 16.7311 90.2553 17.56 89.9115 18.4657C89.6984 18.2231 89.4357 18.029 89.1412 17.8965C88.8467 17.7641 88.5272 17.6963 88.2042 17.6978C86.4033 17.6978 84.8861 19.2864 84.8657 23.2694V28.6268H81.786L81.7785 15.0456ZM112.683 15.0345H115.765V17.0969C116.135 16.4108 116.677 15.8331 117.339 15.4207C118 15.0083 118.758 14.7754 119.537 14.7451C120.061 14.7291 120.583 14.8304 121.063 15.0415C121.543 15.2527 121.97 15.5683 122.313 15.9655C121.642 16.6653 121.117 17.4912 120.768 18.3952C120.555 18.1699 120.298 17.9905 120.013 17.8681C119.728 17.7458 119.421 17.6831 119.111 17.6839C117.31 17.6839 115.793 19.2734 115.773 23.2555V28.612H112.691L112.683 15.0345ZM0.326284 20.7943C0.222538 20.6909 0.140221 20.5681 0.084054 20.4328C0.0278868 20.2975 -0.00102576 20.1525 -0.00102576 20.0061C-0.00102576 19.8596 0.0278868 19.7146 0.084054 19.5793C0.140221 19.444 0.222538 19.3212 0.326284 19.2178C0.42967 19.114 0.55252 19.0317 0.687787 18.9756C0.823054 18.9194 0.968079 18.8905 1.11454 18.8905C1.26101 18.8905 1.40603 18.9194 1.5413 18.9756C1.67657 19.0317 1.79942 19.114 1.9028 19.2178C2.00655 19.3212 2.08887 19.444 2.14503 19.5793C2.2012 19.7146 2.23011 19.8596 2.23011 20.0061C2.23011 20.1525 2.2012 20.2975 2.14503 20.4328C2.08887 20.5681 2.00655 20.6909 1.9028 20.7943C1.79942 20.8981 1.67657 20.9804 1.5413 21.0365C1.40603 21.0927 1.26101 21.1216 1.11454 21.1216C0.968079 21.1216 0.823054 21.0927 0.687787 21.0365C0.55252 20.9804 0.42967 20.8981 0.326284 20.7943ZM38.1006 20.7804C37.9969 20.677 37.9146 20.5542 37.8584 20.4189C37.8022 20.2836 37.7733 20.1386 37.7733 19.9921C37.7733 19.8457 37.8022 19.7007 37.8584 19.5654C37.9146 19.4301 37.9969 19.3073 38.1006 19.2039C38.204 19.1001 38.3268 19.0178 38.4621 18.9617C38.5974 18.9055 38.7424 18.8766 38.8889 18.8766C39.0353 18.8766 39.1804 18.9055 39.3156 18.9617C39.4509 19.0178 39.5737 19.1001 39.6771 19.2039C39.8862 19.4129 40.0036 19.6965 40.0036 19.9921C40.0036 20.2878 39.8862 20.5713 39.6771 20.7804C39.4681 20.9895 39.1845 21.1069 38.8889 21.1069C38.5932 21.1069 38.3097 20.9895 38.1006 20.7804ZM33.3785 19.2039C33.2747 19.1005 33.1924 18.9776 33.1362 18.8424C33.0801 18.7071 33.0512 18.5621 33.0512 18.4156C33.0512 18.2692 33.0801 18.1241 33.1362 17.9889C33.1924 17.8536 33.2747 17.7307 33.3785 17.6274L34.1649 16.84L35.7414 15.2635L36.5278 14.4762C36.7369 14.2671 37.0204 14.1497 37.3161 14.1497C37.6117 14.1497 37.8953 14.2671 38.1043 14.4762C38.3134 14.6852 38.4308 14.9688 38.4308 15.2644C38.4308 15.5601 38.3134 15.8436 38.1043 16.0527L37.317 16.84L35.7405 18.4165L34.9541 19.2039C34.8507 19.3076 34.7278 19.3899 34.5926 19.4461C34.4573 19.5023 34.3123 19.5312 34.1658 19.5312C34.0193 19.5312 33.8743 19.5023 33.739 19.4461C33.6038 19.3899 33.4819 19.3076 33.3785 19.2039ZM1.90373 16.0777L1.11269 15.2904L0.325357 14.504C0.221611 14.4006 0.139294 14.2778 0.0831266 14.1425C0.0269595 14.0072 -0.00195313 13.8622 -0.00195312 13.7157C-0.00195313 13.5693 0.0269595 13.4243 0.0831266 13.289C0.139294 13.1537 0.221611 13.0309 0.325357 12.9275C0.428743 12.8237 0.551592 12.7414 0.68686 12.6853C0.822127 12.6291 0.967151 12.6002 1.11362 12.6002C1.26008 12.6002 1.40511 12.6291 1.54037 12.6853C1.67564 12.7414 1.79849 12.8237 1.90188 12.9275L2.68921 13.7139L3.47747 14.5003C3.68653 14.7093 3.80398 14.9929 3.80398 15.2885C3.80398 15.5842 3.68653 15.8678 3.47747 16.0768C3.37395 16.1803 3.25106 16.2624 3.11581 16.3185C2.98056 16.3745 2.8356 16.4033 2.68921 16.4033C2.39355 16.4033 2.11001 16.2859 1.90095 16.0768L1.90373 16.0777ZM28.6554 11.3408C28.5517 11.2374 28.4693 11.1145 28.4132 10.9793C28.357 10.844 28.3281 10.699 28.3281 10.5525C28.3281 10.406 28.357 10.261 28.4132 10.1257C28.4693 9.99048 28.5517 9.86763 28.6554 9.76424L29.4418 8.97691L30.2282 8.18958C30.4373 7.98052 30.7208 7.86307 31.0165 7.86307C31.3121 7.86307 31.5957 7.98052 31.8047 8.18958C32.0138 8.39864 32.1312 8.68218 32.1312 8.97784C32.1312 9.27349 32.0138 9.55704 31.8047 9.7661L31.0174 10.5534L30.231 11.3408C30.1276 11.4445 30.0048 11.5268 29.8695 11.583C29.7342 11.6392 29.5892 11.6681 29.4427 11.6681C29.2963 11.6681 29.1512 11.6392 29.016 11.583C28.8807 11.5268 28.7588 11.4445 28.6554 11.3408ZM34.9504 11.3408C34.8466 11.2374 34.7643 11.1145 34.7081 10.9793C34.652 10.844 34.623 10.699 34.623 10.5525C34.623 10.406 34.652 10.261 34.7081 10.1257C34.7643 9.99048 34.8466 9.86763 34.9504 9.76424C35.0537 9.66049 35.1766 9.57818 35.3119 9.52201C35.4471 9.46584 35.5921 9.43693 35.7386 9.43693C35.8851 9.43693 36.0301 9.46584 36.1654 9.52201C36.3006 9.57818 36.4235 9.66049 36.5269 9.76424C36.6306 9.86763 36.7129 9.99048 36.7691 10.1257C36.8253 10.261 36.8542 10.406 36.8542 10.5525C36.8542 10.699 36.8253 10.844 36.7691 10.9793C36.7129 11.1145 36.6306 11.2374 36.5269 11.3408C36.4235 11.4445 36.3006 11.5268 36.1654 11.583C36.0301 11.6392 35.8851 11.6681 35.7386 11.6681C35.5921 11.6681 35.4471 11.6392 35.3119 11.583C35.1766 11.5268 35.0537 11.4445 34.9504 11.3408ZM6.6166 8.20071C6.51285 8.09732 6.43053 7.97447 6.37437 7.8392C6.3182 7.70393 6.28929 7.55891 6.28929 7.41245C6.28929 7.26598 6.3182 7.12096 6.37437 6.98569C6.43053 6.85042 6.51285 6.72757 6.6166 6.62419C6.71998 6.52044 6.84283 6.43812 6.9781 6.38196C7.11337 6.32579 7.25839 6.29688 7.40486 6.29688C7.55132 6.29688 7.69634 6.32579 7.83161 6.38196C7.96688 6.43812 8.08973 6.52044 8.19312 6.62419C8.29686 6.72757 8.37918 6.85042 8.43534 6.98569C8.49151 7.12096 8.52042 7.26598 8.52042 7.41245C8.52042 7.55891 8.49151 7.70393 8.43534 7.8392C8.37918 7.97447 8.29686 8.09732 8.19312 8.20071C8.08973 8.30445 7.96688 8.38677 7.83161 8.44293C7.69634 8.4991 7.55132 8.52802 7.40486 8.52802C7.25839 8.52802 7.11337 8.4991 6.9781 8.44293C6.84283 8.38677 6.71998 8.30445 6.6166 8.20071ZM14.4853 3.47578C14.3815 3.3724 14.2992 3.24955 14.2431 3.11428C14.1869 2.97901 14.158 2.83399 14.158 2.68752C14.158 2.54106 14.1869 2.39604 14.2431 2.26077C14.2992 2.1255 14.3815 2.00265 14.4853 1.89927C14.5887 1.79552 14.7115 1.7132 14.8468 1.65703C14.982 1.60087 15.1271 1.57196 15.2735 1.57196C15.42 1.57196 15.565 1.60087 15.7003 1.65703C15.8356 1.7132 15.9584 1.79552 16.0618 1.89927C16.1655 2.00265 16.2479 2.1255 16.304 2.26077C16.3602 2.39604 16.3891 2.54106 16.3891 2.68752C16.3891 2.83399 16.3602 2.97901 16.304 3.11428C16.2479 3.24955 16.1655 3.3724 16.0618 3.47578C15.9584 3.57953 15.8356 3.66185 15.7003 3.71801C15.565 3.77418 15.42 3.80309 15.2735 3.80309C15.1271 3.80309 14.982 3.77418 14.8468 3.71801C14.7115 3.66185 14.5887 3.57953 14.4853 3.47578ZM20.7812 3.47578L19.9929 2.68938L19.2056 1.90297C19.1018 1.79959 19.0195 1.67674 18.9633 1.54147C18.9072 1.4062 18.8783 1.26118 18.8783 1.11471C18.8783 0.96825 18.9072 0.823225 18.9633 0.687958C19.0195 0.552691 19.1018 0.429842 19.2056 0.326455C19.309 0.222709 19.4318 0.140392 19.5671 0.0842253C19.7023 0.0280581 19.8474 -0.000854492 19.9938 -0.000854492C20.1403 -0.000854492 20.2853 0.0280581 20.4206 0.0842253C20.5558 0.140392 20.6787 0.222709 20.7821 0.326455L21.5694 1.11286L22.3577 1.90019C22.4612 2.00371 22.5433 2.1266 22.5993 2.26185C22.6553 2.3971 22.6842 2.54206 22.6842 2.68845C22.6842 2.83485 22.6553 2.97981 22.5993 3.11505C22.5433 3.2503 22.4612 3.3732 22.3577 3.47671C22.2542 3.58023 22.1313 3.66234 21.996 3.71836C21.8608 3.77438 21.7158 3.80322 21.5694 3.80322C21.423 3.80322 21.2781 3.77438 21.1428 3.71836C21.0076 3.66234 20.8847 3.58023 20.7812 3.47671V3.47578Z" fill="#5368B1"/>
</g>
<defs>
<clipPath id="clip0_1122_17679">
<rect width="148.59" height="40" fill="white"/>
</clipPath>
</defs>
</svg>
