<svg width="36" height="36" viewBox="0 0 36 36" fill="none" xmlns="http://www.w3.org/2000/svg">
<path d="M3 16.125C3 20.1032 4.58035 23.9186 7.3934 26.7316C10.2064 29.5446 14.0218 31.125 18 31.125C21.9782 31.125 25.7936 29.5446 28.6066 26.7316C31.4196 23.9186 33 20.1032 33 16.125C33 12.1468 31.4196 8.33144 28.6066 5.5184C25.7936 2.70535 21.9782 1.125 18 1.125C14.0218 1.125 10.2064 2.70535 7.3934 5.5184C4.58035 8.33144 3 12.1468 3 16.125Z" fill="#FFE500"/>
<path d="M18 1.125C15.0333 1.125 12.1332 2.00473 9.66645 3.65296C7.19972 5.30118 5.27713 7.64386 4.14181 10.3847C3.0065 13.1256 2.70945 16.1416 3.28823 19.0514C3.86701 21.9611 5.29562 24.6338 7.3934 26.7316C9.49119 28.8294 12.1639 30.258 15.0737 30.8368C17.9834 31.4156 20.9994 31.1185 23.7403 29.9832C26.4812 28.8479 28.8238 26.9253 30.472 24.4586C32.1203 21.9918 33 19.0917 33 16.125C33 12.1468 31.4197 8.33144 28.6066 5.5184C25.7936 2.70535 21.9783 1.125 18 1.125ZM18 28.875C15.2929 28.875 12.6465 28.0722 10.3956 26.5682C8.14474 25.0642 6.39038 22.9265 5.35441 20.4255C4.31843 17.9244 4.04737 15.1723 4.57551 12.5172C5.10364 9.86209 6.40725 7.42321 8.32148 5.50898C10.2357 3.59474 12.6746 2.29114 15.3297 1.763C17.9848 1.23487 20.7369 1.50592 23.238 2.5419C25.739 3.57787 27.8767 5.33223 29.3807 7.58313C30.8847 9.83403 31.6875 12.4804 31.6875 15.1875C31.6875 18.8176 30.2454 22.2991 27.6785 24.866C25.1116 27.4329 21.6302 28.875 18 28.875Z" fill="#EBCB00"/>
<path d="M13.5 4.125C13.5 4.42337 13.9741 4.70952 14.818 4.9205C15.6619 5.13147 16.8065 5.25 18 5.25C19.1935 5.25 20.3381 5.13147 21.182 4.9205C22.0259 4.70952 22.5 4.42337 22.5 4.125C22.5 3.82663 22.0259 3.54048 21.182 3.3295C20.3381 3.11853 19.1935 3 18 3C16.8065 3 15.6619 3.11853 14.818 3.3295C13.9741 3.54048 13.5 3.82663 13.5 4.125Z" fill="#FFF48C"/>
<path d="M3 16.125C3 20.1032 4.58035 23.9186 7.3934 26.7316C10.2064 29.5446 14.0218 31.125 18 31.125C21.9782 31.125 25.7936 29.5446 28.6066 26.7316C31.4196 23.9186 33 20.1032 33 16.125C33 12.1468 31.4196 8.33144 28.6066 5.5184C25.7936 2.70535 21.9782 1.125 18 1.125C14.0218 1.125 10.2064 2.70535 7.3934 5.5184C4.58035 8.33144 3 12.1468 3 16.125V16.125Z" stroke="#45413C" stroke-width="0.5" stroke-linecap="round" stroke-linejoin="round"/>
<path d="M14.25 23.6249C15.36 22.8833 16.665 22.4874 18 22.4874C19.335 22.4874 20.64 22.8833 21.75 23.6249" stroke="#45413C" stroke-width="0.5" stroke-linecap="round"/>
<path opacity="0.15" d="M6 34.125C6 34.4234 7.26428 34.7095 9.51472 34.9205C11.7652 35.1315 14.8174 35.25 18 35.25C21.1826 35.25 24.2348 35.1315 26.4853 34.9205C28.7357 34.7095 30 34.4234 30 34.125C30 33.8266 28.7357 33.5405 26.4853 33.3295C24.2348 33.1185 21.1826 33 18 33C14.8174 33 11.7652 33.1185 9.51472 33.3295C7.26428 33.5405 6 33.8266 6 34.125Z" fill="#45413C"/>
<path d="M11.25 16.125C11.25 16.2733 11.206 16.4183 11.1236 16.5417C11.0412 16.665 10.9241 16.7611 10.787 16.8179C10.65 16.8747 10.4992 16.8895 10.3537 16.8606C10.2082 16.8317 10.0746 16.7602 9.96967 16.6553C9.86478 16.5504 9.79335 16.4168 9.76441 16.2713C9.73547 16.1258 9.75032 15.975 9.80709 15.838C9.86386 15.7009 9.95999 15.5838 10.0833 15.5014C10.2067 15.419 10.3517 15.375 10.5 15.375C10.6989 15.375 10.8897 15.454 11.0303 15.5947C11.171 15.7353 11.25 15.9261 11.25 16.125Z" fill="#45413C" stroke="#45413C" stroke-width="0.5" stroke-linecap="round" stroke-linejoin="round"/>
<path d="M9.75 12.87C10.6303 12.7281 11.483 12.4498 12.2775 12.045C13.075 11.648 13.8041 11.1265 14.4375 10.5" stroke="#45413C" stroke-width="0.5" stroke-linecap="round" stroke-linejoin="round"/>
<path d="M24.75 16.125C24.75 16.2733 24.794 16.4183 24.8764 16.5417C24.9588 16.665 25.0759 16.7611 25.213 16.8179C25.35 16.8747 25.5008 16.8895 25.6463 16.8606C25.7918 16.8317 25.9254 16.7602 26.0303 16.6553C26.1352 16.5504 26.2067 16.4168 26.2356 16.2713C26.2645 16.1258 26.2497 15.975 26.1929 15.838C26.1361 15.7009 26.04 15.5838 25.9167 15.5014C25.7933 15.419 25.6483 15.375 25.5 15.375C25.3011 15.375 25.1103 15.454 24.9697 15.5947C24.829 15.7353 24.75 15.9261 24.75 16.125Z" fill="#45413C" stroke="#45413C" stroke-width="0.5" stroke-linecap="round" stroke-linejoin="round"/>
<path d="M26.25 12.87C25.3697 12.7281 24.517 12.4498 23.7225 12.045C22.925 11.648 22.1959 11.1265 21.5625 10.5" stroke="#45413C" stroke-width="0.5" stroke-linecap="round" stroke-linejoin="round"/>
<path d="M28.875 19.875C28.875 20.4975 28.035 21 27 21C25.965 21 25.125 20.4975 25.125 19.875C25.125 19.2525 25.965 18.75 27 18.75C28.035 18.75 28.875 19.2525 28.875 19.875Z" fill="#FFAA54"/>
<path d="M7.125 19.875C7.125 20.4975 7.965 21 9 21C10.035 21 10.875 20.4975 10.875 19.875C10.875 19.2525 10.035 18.75 9 18.75C7.965 18.75 7.125 19.2525 7.125 19.875Z" fill="#FFAA54"/>
<path d="M34.875 21.75C34.875 22.7446 34.4799 23.6984 33.7767 24.4017C33.0734 25.1049 32.1196 25.5 31.125 25.5C30.1304 25.5 29.1766 25.1049 28.4733 24.4017C27.7701 23.6984 27.375 22.7446 27.375 21.75C27.375 19.68 31.125 13.5 31.125 13.5C31.125 13.5 34.875 19.68 34.875 21.75Z" fill="#00B8F0"/>
<path d="M31.125 23.625C30.3049 23.6209 29.5087 23.348 28.8585 22.8481C28.2083 22.3483 27.7399 21.649 27.525 20.8575C27.4354 21.147 27.385 21.4472 27.375 21.75C27.375 22.7446 27.7701 23.6984 28.4733 24.4017C29.1766 25.105 30.1304 25.5 31.125 25.5C32.1196 25.5 33.0734 25.105 33.7767 24.4017C34.4799 23.6984 34.875 22.7446 34.875 21.75C34.865 21.4472 34.8146 21.147 34.725 20.8575C34.5101 21.649 34.0417 22.3483 33.3915 22.8481C32.7413 23.348 31.9451 23.6209 31.125 23.625Z" fill="#009FD9"/>
<path d="M34.875 21.75C34.875 22.7446 34.4799 23.6984 33.7767 24.4017C33.0734 25.1049 32.1196 25.5 31.125 25.5C30.1304 25.5 29.1766 25.1049 28.4733 24.4017C27.7701 23.6984 27.375 22.7446 27.375 21.75C27.375 19.68 31.125 13.5 31.125 13.5C31.125 13.5 34.875 19.68 34.875 21.75Z" stroke="#45413C" stroke-width="0.5" stroke-linecap="round" stroke-linejoin="round"/>
</svg>
