<svg width="80" height="80" viewBox="0 0 80 80" fill="none" xmlns="http://www.w3.org/2000/svg">
<rect width="80" height="80" rx="16" fill="#311541"/>
<path d="M33.696 27.64L33.232 28.84C40.08 28.456 44.528 28.264 47.52 28.264C49.888 28.264 51.344 28.392 52.384 28.648C53.456 28.936 54.08 29.384 54.08 30.056C54.08 30.152 54.08 30.248 54.048 30.36V30.376C54.048 30.536 53.936 30.6 53.792 30.6C53.584 30.6 53.328 30.488 53.2 30.296C53.216 30.248 53.216 30.216 53.216 30.168C53.216 29.784 52.848 29.304 52.096 29.096C51.312 28.888 50.288 28.808 48.8 28.808C45.872 28.808 41.184 29.144 33.056 29.592L26.128 46.808C25.168 53.288 21.184 58.2 21.168 58.216C21.088 58.328 20.928 58.392 20.784 58.392C20.64 58.392 20.512 58.328 20.512 58.168C20.512 58.104 20.544 58.024 20.608 57.912L25.184 46.552C25.344 45.4 25.44 44.232 25.44 43.08C25.44 38.328 23.936 33.736 19.84 30.776C19.072 30.824 18.352 30.856 17.696 30.856C15.824 30.856 14.544 30.664 14.288 30.36C14.192 30.264 14.16 30.168 14.16 30.056C14.16 29.928 14.24 29.784 14.4 29.64C14.816 29.288 15.296 29.032 15.824 28.904C16.128 28.84 16.432 28.792 16.752 28.792C17.376 28.792 18.032 28.936 18.72 29.224C19.12 29.384 19.52 29.608 19.92 29.88C24.048 29.576 28.16 29.176 32.288 28.904L32.848 27.48C32.912 27.24 33.088 27.128 33.264 27.128C33.488 27.128 33.696 27.304 33.696 27.576V27.64ZM22.992 53.72C23.376 52.888 23.76 51.944 24.112 50.936L22.992 53.72ZM28.736 38.568L31.92 29.752C28.208 30.024 24.528 30.44 20.784 30.712C24.672 34.04 26.016 38.632 26.016 43.48C26.016 43.816 26.016 44.152 26 44.488L28.736 38.568ZM18.8 29.96C18.688 29.912 18.576 29.864 18.48 29.816C17.872 29.56 17.28 29.432 16.736 29.432C16.48 29.432 16.208 29.464 15.968 29.528C15.6 29.624 15.248 29.784 14.96 30.024C15.152 30.072 15.472 30.088 15.92 30.088C16.624 30.088 17.6 30.04 18.8 29.96ZM36.0966 42.008C36.0966 42.008 35.0726 43.864 35.0726 44.984C35.0726 45.32 35.1686 45.592 35.3926 45.736C35.4726 45.8 35.6006 45.816 35.7606 45.816C37.6326 45.816 44.7206 42.76 44.7206 42.76C44.8486 42.664 44.9606 42.632 45.0726 42.632C45.3606 42.632 45.5686 42.856 45.5686 43.016C45.5686 43.048 45.5686 43.08 45.5366 43.112C45.5206 43.112 38.1446 46.328 35.4726 46.328C35.0726 46.328 34.7686 46.264 34.6246 46.088C34.1766 45.8 34.0166 45.256 34.0166 44.648C34.0166 43.528 34.5606 42.168 34.8486 41.672C34.9766 41.4 35.2006 41.288 35.4406 41.288C35.7766 41.288 36.1126 41.528 36.1126 41.864C36.1126 41.912 36.1126 41.96 36.0966 42.008ZM36.6726 38.264C36.8806 38.344 37.0086 38.568 37.0086 38.84C37.0086 38.952 36.9926 39.064 36.9446 39.176C36.8326 39.512 36.5606 39.736 36.3046 39.736C36.2566 39.736 36.2086 39.736 36.1606 39.72C35.9526 39.64 35.8246 39.416 35.8246 39.144C35.8246 39.032 35.8406 38.92 35.8886 38.808C36.0166 38.472 36.2886 38.248 36.5446 38.248C36.5926 38.248 36.6246 38.248 36.6726 38.264ZM49.3051 34.232C50.1051 33.256 51.9131 29.96 52.3131 28.84C52.4091 28.552 52.4571 28.376 52.4571 28.312C52.4571 28.296 52.4411 28.28 52.4411 28.28C52.2011 28.28 49.3531 34.088 49.3051 34.232ZM37.1611 36.456C37.6571 36.504 38.3771 36.52 39.2731 36.52C41.1451 36.52 43.8811 36.408 47.4491 36.12C49.5291 31.256 51.7051 27.528 52.7131 27.528H52.7451C53.0491 27.64 53.1771 27.912 53.1771 28.296C53.1771 30.12 50.0411 34.472 48.8891 36.056C50.2971 35.96 59.8011 35.112 61.4011 35.112C61.5131 35.112 61.5931 35.112 61.6251 35.128C61.6891 35.224 61.7211 35.304 61.7211 35.384C61.7211 35.96 60.3931 36.392 60.3931 36.392C60.3291 36.424 60.2651 36.44 60.2011 36.44C59.9771 36.44 59.8011 36.248 59.8011 36.024C59.8011 35.96 59.8171 35.896 59.8491 35.832C59.8491 35.832 52.3611 36.152 48.6491 36.456C47.3531 38.264 43.2571 47.88 43.2571 52.344C43.2571 53.656 43.6251 54.536 44.5211 54.616C44.7131 54.632 44.7931 54.76 44.7931 54.888C44.7931 55.064 44.6491 55.256 44.4731 55.256C44.4411 55.256 44.4091 55.256 44.3771 55.24C43.4491 54.84 43.0651 53.64 43.0651 51.96C43.0651 48.152 45.0491 41.832 47.2571 36.568C44.6651 36.584 41.4971 36.696 39.1611 36.696C37.3371 36.696 36.0251 36.616 35.9291 36.376C35.9131 36.344 35.8971 36.312 35.8971 36.28C35.8971 36.072 36.2491 35.992 36.4571 35.992H36.5531C36.7931 35.992 37.1611 36.088 37.1611 36.456ZM50.6279 42.008C50.6279 42.008 49.6039 43.864 49.6039 44.984C49.6039 45.32 49.6999 45.592 49.9239 45.736C50.0039 45.8 50.1319 45.816 50.2919 45.816C52.1639 45.816 59.2519 42.76 59.2519 42.76C59.3799 42.664 59.4919 42.632 59.6039 42.632C59.8919 42.632 60.0999 42.856 60.0999 43.016C60.0999 43.048 60.0999 43.08 60.0679 43.112C60.0519 43.112 52.6759 46.328 50.0039 46.328C49.6039 46.328 49.2999 46.264 49.1559 46.088C48.7079 45.8 48.5479 45.256 48.5479 44.648C48.5479 43.528 49.0919 42.168 49.3799 41.672C49.5079 41.4 49.7319 41.288 49.9719 41.288C50.3079 41.288 50.6439 41.528 50.6439 41.864C50.6439 41.912 50.6439 41.96 50.6279 42.008ZM51.2039 38.264C51.4119 38.344 51.5399 38.568 51.5399 38.84C51.5399 38.952 51.5239 39.064 51.4759 39.176C51.3639 39.512 51.0919 39.736 50.8359 39.736C50.7879 39.736 50.7399 39.736 50.6919 39.72C50.4839 39.64 50.3559 39.416 50.3559 39.144C50.3559 39.032 50.3719 38.92 50.4199 38.808C50.5479 38.472 50.8199 38.248 51.0759 38.248C51.1239 38.248 51.1559 38.248 51.2039 38.264Z" fill="white"/>
</svg>
