<svg width="34" height="25" viewBox="0 0 34 25" fill="none" xmlns="http://www.w3.org/2000/svg">
<path opacity="0.15" d="M6.77832 23.605C6.77832 23.7882 7.04273 23.9696 7.55646 24.1389C8.07019 24.3081 8.82317 24.4619 9.77242 24.5914C10.7217 24.721 11.8486 24.8237 13.0888 24.8938C14.3291 24.9639 15.6584 25 17.0008 25C18.3433 25 19.6726 24.9639 20.9128 24.8938C22.1531 24.8237 23.28 24.721 24.2292 24.5914C25.1785 24.4619 25.9315 24.3081 26.4452 24.1389C26.9589 23.9696 27.2233 23.7882 27.2233 23.605C27.2233 23.4218 26.9589 23.2404 26.4452 23.0712C25.9315 22.9019 25.1785 22.7481 24.2292 22.6186C23.28 22.4891 22.1531 22.3863 20.9128 22.3162C19.6726 22.2461 18.3433 22.21 17.0008 22.21C15.6584 22.21 14.3291 22.2461 13.0888 22.3162C11.8486 22.3863 10.7217 22.4891 9.77242 22.6186C8.82317 22.7481 8.07019 22.9019 7.55646 23.0712C7.04273 23.2404 6.77832 23.4218 6.77832 23.605Z" fill="#45413C"/>
<path d="M0.62793 10C0.62793 12.4029 2.35288 14.7073 5.42332 16.4064C8.49376 18.1055 12.6582 19.06 17.0004 19.06C21.3427 19.06 25.5071 18.1055 28.5775 16.4064C31.648 14.7073 33.3729 12.4029 33.3729 10C33.3729 7.59714 31.648 5.29269 28.5775 3.59362C25.5071 1.89454 21.3427 0.940002 17.0004 0.940002C12.6582 0.940002 8.49376 1.89454 5.42332 3.59362C2.35288 5.29269 0.62793 7.59714 0.62793 10Z" fill="white"/>
<path d="M17.0004 5.3575C25.1379 5.3575 30.5754 9.1975 32.5479 12.205C33.0239 11.5617 33.3097 10.7977 33.3729 10C33.3729 7.2175 27.3729 0.940002 17.0004 0.940002C6.62793 0.940002 0.62793 7.2175 0.62793 10C0.691135 10.7977 0.976975 11.5617 1.45293 12.205C3.42543 9.1975 8.86293 5.3575 17.0004 5.3575Z" fill="#E0E0E0"/>
<path d="M0.62793 10C0.62793 12.4029 2.35288 14.7073 5.42332 16.4064C8.49376 18.1055 12.6582 19.06 17.0004 19.06C21.3427 19.06 25.5071 18.1055 28.5775 16.4064C31.648 14.7073 33.3729 12.4029 33.3729 10C33.3729 7.59714 31.648 5.29269 28.5775 3.59362C25.5071 1.89454 21.3427 0.940002 17.0004 0.940002C12.6582 0.940002 8.49376 1.89454 5.42332 3.59362C2.35288 5.29269 0.62793 7.59714 0.62793 10V10Z" stroke="#45413C" stroke-width="0.5" stroke-linecap="round" stroke-linejoin="round"/>
<path d="M17.0004 3.0925C26.8479 3.0925 32.5404 9.28 32.6229 12.0925C33.057 11.4754 33.3161 10.7524 33.3729 10C33.3729 7.2175 27.3729 0.940002 17.0004 0.940002C6.62793 0.940002 0.62793 7.2175 0.62793 10C0.684735 10.7524 0.943876 11.4754 1.37793 12.0925C1.46043 9.25 7.15293 3.0925 17.0004 3.0925Z" fill="#656769" stroke="#45413C" stroke-width="0.5" stroke-linecap="round" stroke-linejoin="round"/>
<path d="M10.2656 10C10.2656 10.8845 10.4398 11.7603 10.7783 12.5774C11.1168 13.3945 11.6129 14.137 12.2383 14.7624C12.8637 15.3878 13.6061 15.8839 14.4233 16.2223C15.2404 16.5608 16.1162 16.735 17.0006 16.735C17.8851 16.735 18.7609 16.5608 19.578 16.2223C20.3951 15.8839 21.1376 15.3878 21.763 14.7624C22.3884 14.137 22.8845 13.3945 23.223 12.5774C23.5614 11.7603 23.7356 10.8845 23.7356 10C23.7356 9.11556 23.5614 8.23977 23.223 7.42264C22.8845 6.60551 22.3884 5.86305 21.763 5.23765C21.1376 4.61225 20.3951 4.11615 19.578 3.77769C18.7609 3.43922 17.8851 3.26501 17.0006 3.26501C16.1162 3.26501 15.2404 3.43922 14.4233 3.77769C13.6061 4.11615 12.8637 4.61225 12.2383 5.23765C11.6129 5.86305 11.1168 6.60551 10.7783 7.42264C10.4398 8.23977 10.2656 9.11556 10.2656 10Z" fill="#B89558"/>
<path d="M21.6725 5.14752C22.3963 6.03206 22.8542 7.10388 22.9929 8.23837C23.1316 9.37286 22.9454 10.5234 22.456 11.5563C21.9666 12.5891 21.1941 13.4618 20.2282 14.073C19.2624 14.6841 18.1429 15.0085 17 15.0085C15.8571 15.0085 14.7376 14.6841 13.7718 14.073C12.8059 13.4618 12.0334 12.5891 11.544 11.5563C11.0546 10.5234 10.8684 9.37286 11.0071 8.23837C11.1458 7.10388 11.6037 6.03206 12.3275 5.14752C11.3554 6.07995 10.6845 7.2819 10.4011 8.59875C10.1177 9.9156 10.2348 11.2871 10.7372 12.5369C11.2397 13.7867 12.1046 14.8575 13.2207 15.6117C14.3368 16.3659 15.653 16.7689 17 16.7689C18.347 16.7689 19.6632 16.3659 20.7793 15.6117C21.8954 14.8575 22.7603 13.7867 23.2628 12.5369C23.7652 11.2871 23.8823 9.9156 23.5989 8.59875C23.3155 7.2819 22.6446 6.07995 21.6725 5.14752Z" fill="#947746"/>
<path d="M10.2656 10C10.2656 10.8845 10.4398 11.7603 10.7783 12.5774C11.1168 13.3945 11.6129 14.137 12.2383 14.7624C12.8637 15.3878 13.6061 15.8839 14.4233 16.2223C15.2404 16.5608 16.1162 16.735 17.0006 16.735C17.8851 16.735 18.7609 16.5608 19.578 16.2223C20.3951 15.8839 21.1376 15.3878 21.763 14.7624C22.3884 14.137 22.8845 13.3945 23.223 12.5774C23.5614 11.7603 23.7356 10.8845 23.7356 10C23.7356 9.11556 23.5614 8.23977 23.223 7.42264C22.8845 6.60551 22.3884 5.86305 21.763 5.23765C21.1376 4.61225 20.3951 4.11615 19.578 3.77769C18.7609 3.43922 17.8851 3.26501 17.0006 3.26501C16.1162 3.26501 15.2404 3.43922 14.4233 3.77769C13.6061 4.11615 12.8637 4.61225 12.2383 5.23765C11.6129 5.86305 11.1168 6.60551 10.7783 7.42264C10.4398 8.23977 10.2656 9.11556 10.2656 10V10Z" stroke="#45413C" stroke-width="0.5" stroke-linecap="round" stroke-linejoin="round"/>
<path d="M13.9775 9.99998C13.9775 10.8016 14.296 11.5704 14.8628 12.1372C15.4296 12.704 16.1984 13.0225 17 13.0225C17.8017 13.0225 18.5704 12.704 19.1373 12.1372C19.7041 11.5704 20.0225 10.8016 20.0225 9.99998C20.0225 9.19836 19.7041 8.42958 19.1373 7.86275C18.5704 7.29592 17.8017 6.97748 17 6.97748C16.1984 6.97748 15.4296 7.29592 14.8628 7.86275C14.296 8.42958 13.9775 9.19836 13.9775 9.99998Z" fill="#525252" stroke="#45413C" stroke-width="0.5" stroke-linecap="round" stroke-linejoin="round"/>
<path d="M12.1631 6.84999C12.1631 7.46065 12.4057 8.0463 12.8375 8.4781C13.2693 8.9099 13.8549 9.15249 14.4656 9.15249C15.0762 9.15249 15.6619 8.9099 16.0937 8.4781C16.5255 8.0463 16.7681 7.46065 16.7681 6.84999C16.7681 6.23932 16.5255 5.65368 16.0937 5.22187C15.6619 4.79007 15.0762 4.54749 14.4656 4.54749C13.8549 4.54749 13.2693 4.79007 12.8375 5.22187C12.4057 5.65368 12.1631 6.23932 12.1631 6.84999Z" fill="white" stroke="#45413C" stroke-width="0.5" stroke-linecap="round" stroke-linejoin="round"/>
</svg>
