<svg width="32" height="32" viewBox="0 0 32 32" fill="none" xmlns="http://www.w3.org/2000/svg">
<mask id="mask0_1105_8087" style="mask-type:alpha" maskUnits="userSpaceOnUse" x="0" y="0" width="32" height="32">
<rect width="32" height="32" fill="#D9D9D9"/>
</mask>
<g mask="url(#mask0_1105_8087)">
<path d="M6.22233 28C5.61122 28 5.088 27.7824 4.65267 27.3473C4.21756 26.912 4 26.3888 4 25.7777V6.22233C4 5.61122 4.21756 5.088 4.65267 4.65267C5.088 4.21756 5.61122 4 6.22233 4H25.7777C26.3888 4 26.912 4.21756 27.3473 4.65267C27.7824 5.088 28 5.61122 28 6.22233V25.7777C28 26.3888 27.7824 26.912 27.3473 27.3473C26.912 27.7824 26.3888 28 25.7777 28H6.22233ZM6.22233 25.7777H25.7777V8.889H6.22233V25.7777ZM16.001 22.5557C14.2077 22.5557 12.6054 22.0712 11.1943 21.1023C9.78322 20.1332 8.75544 18.8758 8.111 17.33C8.75544 15.784 9.783 14.5277 11.1937 13.561C12.6041 12.5943 14.2059 12.111 15.999 12.111C17.7923 12.111 19.3946 12.5954 20.8057 13.5643C22.2168 14.5334 23.2446 15.7909 23.889 17.3367C23.2446 18.8827 22.217 20.139 20.8063 21.1057C19.3959 22.0723 17.7941 22.5557 16.001 22.5557ZM16 20.7777C17.2593 20.7777 18.4146 20.4734 19.4657 19.865C20.5168 19.2566 21.3393 18.4127 21.9333 17.3333C21.3393 16.254 20.5168 15.4101 19.4657 14.8017C18.4146 14.1932 17.2593 13.889 16 13.889C14.7407 13.889 13.5854 14.1932 12.5343 14.8017C11.4832 15.4101 10.6607 16.254 10.0667 17.3333C10.6607 18.4127 11.4832 19.2566 12.5343 19.865C13.5854 20.4734 14.7407 20.7777 16 20.7777ZM16.0027 19.111C16.4971 19.111 16.9166 18.9379 17.261 18.5917C17.6054 18.2457 17.7777 17.8253 17.7777 17.3307C17.7777 16.8362 17.6046 16.4168 17.2583 16.0723C16.9123 15.7279 16.492 15.5557 15.9973 15.5557C15.5029 15.5557 15.0834 15.7288 14.739 16.075C14.3946 16.421 14.2223 16.8413 14.2223 17.336C14.2223 17.8304 14.3954 18.2499 14.7417 18.5943C15.0877 18.9388 15.508 19.111 16.0027 19.111Z" fill="#6D3091"/>
</g>
</svg>
