<svg width="14" height="19" viewBox="0 0 14 19" fill="none" xmlns="http://www.w3.org/2000/svg">
<path d="M1.07621 0.833564C0.944314 0.825263 0.812211 0.846117 0.689287 0.894644C0.566364 0.94317 0.455638 1.01818 0.36498 1.11433C0.274322 1.21049 0.205958 1.32544 0.164745 1.451C0.123533 1.57656 0.110485 1.70967 0.126528 1.84084L1.48679 16.4365C1.57373 17.1453 2.41145 17.4756 2.95847 17.0166L5.82893 14.6889L7.11593 16.9182C7.85609 18.2001 9.03041 18.5151 10.3124 17.775C11.5943 17.0348 11.909 15.8601 11.1688 14.5782L9.88631 12.357L13.2876 11.0531C13.9586 10.8088 14.0916 9.91798 13.5216 9.48832L1.56113 1.01248C1.42043 0.906633 1.25194 0.84442 1.07621 0.833564Z" fill="#C2B5F5"/>
</svg>
