<svg width="32" height="32" viewBox="0 0 32 32" fill="none" xmlns="http://www.w3.org/2000/svg">
<mask id="mask0_1105_8108" style="mask-type:alpha" maskUnits="userSpaceOnUse" x="0" y="0" width="32" height="32">
<rect width="32" height="32" fill="#D9D9D9"/>
</mask>
<g mask="url(#mask0_1105_8108)">
<path d="M7.55567 15.3333V7.53333H15.3557V15.3333H7.55567ZM7.55567 24.4667V16.6667H15.3557V24.4667H7.55567ZM16.6667 15.3333V7.53333H24.4667V15.3333H16.6667ZM16.6667 24.4667V16.6667H24.4667V24.4667H16.6667ZM9.77767 13.111H13.1333V9.75567H9.77767V13.111ZM18.889 13.111H22.2443V9.75567H18.889V13.111ZM9.77767 22.2443H13.1333V18.889H9.77767V22.2443ZM18.889 22.2443H22.2443V18.889H18.889V22.2443ZM6.22233 28C5.62233 28 5.10189 27.7797 4.661 27.339C4.22033 26.8981 4 26.3777 4 25.7777V6.22233C4 5.62233 4.22033 5.10189 4.661 4.661C5.10189 4.22033 5.62233 4 6.22233 4H25.7777C26.3777 4 26.8981 4.22033 27.339 4.661C27.7797 5.10189 28 5.62233 28 6.22233V25.7777C28 26.3777 27.7797 26.8981 27.339 27.339C26.8981 27.7797 26.3777 28 25.7777 28H6.22233ZM6.22233 25.7777H25.7777V6.22233H6.22233V25.7777Z" fill="#6D3091"/>
</g>
</svg>
